<?xml version="1.0" encoding="UTF-8"?>
<svg version="1.1" xmlns="http://www.w3.org/2000/svg" width="488" height="135">
<path d="M0 0 C7.26 0 14.52 0 22 0 C22 0.66 22 1.32 22 2 C22.66 2 23.32 2 24 2 C24 16.52 24 31.04 24 46 C23.34 46 22.68 46 22 46 C22 49.96 22 53.92 22 58 C21.34 58 20.68 58 20 58 C19.855625 58.763125 19.71125 59.52625 19.5625 60.3125 C19 63 19 63 18 66 C17.34 66 16.68 66 16 66 C16 66.66 16 67.32 16 68 C15.34 68 14.68 68 14 68 C14 68.66 14 69.32 14 70 C13.34 70 12.68 70 12 70 C12 70.66 12 71.32 12 72 C24.54 72 37.08 72 50 72 C50 58.14 50 44.28 50 30 C52.64 30 55.28 30 58 30 C58 30.66 58 31.32 58 32 C59.32 32 60.64 32 62 32 C62 32.66 62 33.32 62 34 C63.32 34 64.64 34 66 34 C66 34.66 66 35.32 66 36 C66.66 36 67.32 36 68 36 C68 36.66 68 37.32 68 38 C68.66 38 69.32 38 70 38 C70 36.02 70 34.04 70 32 C77.92 32 85.84 32 94 32 C94 33.98 94 35.96 94 38 C94.66 38 95.32 38 96 38 C96 39.98 96 41.96 96 44 C96.66 44 97.32 44 98 44 C98 45.98 98 47.96 98 50 C98.66 50 99.32 50 100 50 C100 51.98 100 53.96 100 56 C100.66 56 101.32 56 102 56 C102 57.98 102 59.96 102 62 C102.66 62 103.32 62 104 62 C104 63.98 104 65.96 104 68 C104.66 68 105.32 68 106 68 C106 66.02 106 64.04 106 62 C106.66 62 107.32 62 108 62 C108 60.02 108 58.04 108 56 C108.66 56 109.32 56 110 56 C110 54.02 110 52.04 110 50 C110.66 50 111.32 50 112 50 C112 48.68 112 47.36 112 46 C112.66 46 113.32 46 114 46 C114 44.68 114 43.36 114 42 C114.66 42 115.32 42 116 42 C116 41.34 116 40.68 116 40 C116.66 40 117.32 40 118 40 C118 39.34 118 38.68 118 38 C118.66 38 119.32 38 120 38 C120 37.34 120 36.68 120 36 C120.66 36 121.32 36 122 36 C122 35.34 122 34.68 122 34 C122.66 34 123.32 34 124 34 C124 33.34 124 32.68 124 32 C125.98 32 127.96 32 130 32 C130 31.34 130 30.68 130 30 C133.3 30 136.6 30 140 30 C140 32.64 140 35.28 140 38 C139.34 38 138.68 38 138 38 C138 39.98 138 41.96 138 44 C137.34 44 136.68 44 136 44 C136 45.98 136 47.96 136 50 C135.34 50 134.68 50 134 50 C134 51.32 134 52.64 134 54 C133.34 54 132.68 54 132 54 C132 55.98 132 57.96 132 60 C131.34 60 130.68 60 130 60 C130.04125 60.721875 130.0825 61.44375 130.125 62.1875 C129.99078695 65.20729369 129.24829381 67.26935729 128 70 C127.34 70 126.68 70 126 70 C126 71.98 126 73.96 126 76 C125.34 76 124.68 76 124 76 C123.855625 76.721875 123.71125 77.44375 123.5625 78.1875 C123.04166667 80.79166667 122.52083333 83.39583333 122 86 C121.34 86 120.68 86 120 86 C120.0309375 87.2065625 120.0309375 87.2065625 120.0625 88.4375 C120 91 120 91 119 92 C117.00035018 92.08758003 114.9976389 92.10696576 112.99609375 92.09765625 C111.17368164 92.09282227 111.17368164 92.09282227 109.31445312 92.08789062 C108.03505859 92.07951172 106.75566406 92.07113281 105.4375 92.0625 C104.15423828 92.05798828 102.87097656 92.05347656 101.54882812 92.04882812 C98.36583978 92.03699545 95.18294238 92.02051068 92 92 C92 91.34 92 90.68 92 90 C91.34 90 90.68 90 90 90 C90 88.02 90 86.04 90 84 C89.34 84 88.68 84 88 84 C88 82.68 88 81.36 88 80 C87.34 80 86.68 80 86 80 C86 78.02 86 76.04 86 74 C85.34 74 84.68 74 84 74 C84 72.68 84 71.36 84 70 C83.34 70 82.68 70 82 70 C82 68.02 82 66.04 82 64 C81.34 64 80.68 64 80 64 C80 62.02 80 60.04 80 58 C79.34 58 78.68 58 78 58 C78 56.68 78 55.36 78 54 C77.34 54 76.68 54 76 54 C76 52.02 76 50.04 76 48 C75.34 48 74.68 48 74 48 C74 62.52 74 77.04 74 92 C49.58 92 25.16 92 0 92 C0 82.76 0 73.52 0 64 C-0.66 64 -1.32 64 -2 64 C-2 65.32 -2 66.64 -2 68 C-2.66 68 -3.32 68 -4 68 C-4 68.66 -4 69.32 -4 70 C-3.34 70 -2.68 70 -2 70 C-2 71.98 -2 73.96 -2 76 C-2.66 76 -3.32 76 -4 76 C-4 77.32 -4 78.64 -4 80 C-4.66 80 -5.32 80 -6 80 C-6 81.32 -6 82.64 -6 84 C-6.66 84 -7.32 84 -8 84 C-8 84.66 -8 85.32 -8 86 C-8.66 86 -9.32 86 -10 86 C-10 86.66 -10 87.32 -10 88 C-10.66 88 -11.32 88 -12 88 C-12 88.66 -12 89.32 -12 90 C-13.32 90 -14.64 90 -16 90 C-16 90.66 -16 91.32 -16 92 C-17.32 92 -18.64 92 -20 92 C-20 92.66 -20 93.32 -20 94 C-29.24 94 -38.48 94 -48 94 C-48 93.34 -48 92.68 -48 92 C-49.98 92 -51.96 92 -54 92 C-54 91.34 -54 90.68 -54 90 C-55.32 90 -56.64 90 -58 90 C-58 89.34 -58 88.68 -58 88 C-58.66 88 -59.32 88 -60 88 C-60 87.34 -60 86.68 -60 86 C-60.66 86 -61.32 86 -62 86 C-62 85.34 -62 84.68 -62 84 C-62.66 84 -63.32 84 -64 84 C-64 83.34 -64 82.68 -64 82 C-64.66 82 -65.32 82 -66 82 C-66 80.68 -66 79.36 -66 78 C-66.66 78 -67.32 78 -68 78 C-68 76.02 -68 74.04 -68 72 C-68.66 72 -69.32 72 -70 72 C-70 65.4 -70 58.8 -70 52 C-69.34 52 -68.68 52 -68 52 C-68 50.02 -68 48.04 -68 46 C-67.34 46 -66.68 46 -66 46 C-65.34 44.02 -64.68 42.04 -64 40 C-63.34 40 -62.68 40 -62 40 C-62 39.34 -62 38.68 -62 38 C-61.34 38 -60.68 38 -60 38 C-60 37.34 -60 36.68 -60 36 C-58.68 36 -57.36 36 -56 36 C-56 35.34 -56 34.68 -56 34 C-55.34 34 -54.68 34 -54 34 C-54 33.34 -54 32.68 -54 32 C-52.02 32 -50.04 32 -48 32 C-48 31.34 -48 30.68 -48 30 C-39.42 30 -30.84 30 -22 30 C-22 30.66 -22 31.32 -22 32 C-20.02 32 -18.04 32 -16 32 C-16 32.66 -16 33.32 -16 34 C-15.34 34 -14.68 34 -14 34 C-14 34.66 -14 35.32 -14 36 C-12.68 36 -11.36 36 -10 36 C-10 36.66 -10 37.32 -10 38 C-9.34 38 -8.68 38 -8 38 C-8 38.66 -8 39.32 -8 40 C-7.34 40 -6.68 40 -6 40 C-6 41.32 -6 42.64 -6 44 C-5.34 44 -4.68 44 -4 44 C-4 45.32 -4 46.64 -4 48 C-3.34 48 -2.68 48 -2 48 C-2 51.3 -2 54.6 -2 58 C-1.34 58 -0.68 58 0 58 C0 38.86 0 19.72 0 0 Z M70 38 C70 39.32 70 40.64 70 42 C70.66 42 71.32 42 72 42 C72 40.68 72 39.36 72 38 C71.34 38 70.68 38 70 38 Z M72 42 C72 43.32 72 44.64 72 46 C72.66 46 73.32 46 74 46 C74 44.68 74 43.36 74 42 C73.34 42 72.68 42 72 42 Z M-38 46 C-38 46.66 -38 47.32 -38 48 C-39.32 48 -40.64 48 -42 48 C-42 48.66 -42 49.32 -42 50 C-42.66 50 -43.32 50 -44 50 C-44 51.32 -44 52.64 -44 54 C-38.06 54 -32.12 54 -26 54 C-26 53.34 -26 52.68 -26 52 C-26.66 52 -27.32 52 -28 52 C-28 50.68 -28 49.36 -28 48 C-29.32 48 -30.64 48 -32 48 C-32 47.34 -32 46.68 -32 46 C-33.98 46 -35.96 46 -38 46 Z M-44 68 C-44 69.32 -44 70.64 -44 72 C-43.34 72 -42.68 72 -42 72 C-42 72.66 -42 73.32 -42 74 C-41.34 74 -40.68 74 -40 74 C-40 74.66 -40 75.32 -40 76 C-36.04 76 -32.08 76 -28 76 C-28 75.34 -28 74.68 -28 74 C-27.34 74 -26.68 74 -26 74 C-26 72.68 -26 71.36 -26 70 C-24.68 70 -23.36 70 -22 70 C-22 69.34 -22 68.68 -22 68 C-29.26 68 -36.52 68 -44 68 Z " fill="#DAFE50" transform="translate(272,29)"/>
<path d="M0 0 C0.74168427 0.00444122 1.48336853 0.00888245 2.24752808 0.01345825 C3.50860886 0.01368484 3.50860886 0.01368484 4.79516602 0.01391602 C6.15773026 0.02939987 6.15773026 0.02939987 7.54782104 0.04519653 C8.47722504 0.04802643 9.40662903 0.05085632 10.36419678 0.05377197 C13.33959704 0.06498834 16.3146989 0.09009543 19.29000854 0.11550903 C21.30432712 0.12553696 23.31865041 0.13466313 25.33297729 0.14285278 C30.27710311 0.16493243 35.22100519 0.1994721 40.16500854 0.24050903 C40.16500854 0.90050903 40.16500854 1.56050903 40.16500854 2.24050903 C42.14500854 2.24050903 44.12500854 2.24050903 46.16500854 2.24050903 C46.16500854 2.90050903 46.16500854 3.56050903 46.16500854 4.24050903 C47.48500854 4.24050903 48.80500854 4.24050903 50.16500854 4.24050903 C50.16500854 4.90050903 50.16500854 5.56050903 50.16500854 6.24050903 C51.48500854 6.24050903 52.80500854 6.24050903 54.16500854 6.24050903 C54.16500854 6.90050903 54.16500854 7.56050903 54.16500854 8.24050903 C54.82500854 8.24050903 55.48500854 8.24050903 56.16500854 8.24050903 C58.16500854 11.24050903 58.16500854 11.24050903 58.16500854 14.24050903 C58.82500854 14.24050903 59.48500854 14.24050903 60.16500854 14.24050903 C62.01033568 19.71110484 62.41809922 24.42870832 62.29000854 30.17800903 C62.28098511 30.95724731 62.27196167 31.7364856 62.26266479 32.53933716 C62.23934545 34.4398635 62.2034844 36.34022911 62.16500854 38.24050903 C61.50500854 38.24050903 60.84500854 38.24050903 60.16500854 38.24050903 C60.16500854 40.22050903 60.16500854 42.20050903 60.16500854 44.24050903 C59.50500854 44.24050903 58.84500854 44.24050903 58.16500854 44.24050903 C58.16500854 45.56050903 58.16500854 46.88050903 58.16500854 48.24050903 C57.50500854 48.24050903 56.84500854 48.24050903 56.16500854 48.24050903 C56.16500854 48.90050903 56.16500854 49.56050903 56.16500854 50.24050903 C55.50500854 50.24050903 54.84500854 50.24050903 54.16500854 50.24050903 C54.16500854 50.90050903 54.16500854 51.56050903 54.16500854 52.24050903 C53.50500854 52.24050903 52.84500854 52.24050903 52.16500854 52.24050903 C52.16500854 52.90050903 52.16500854 53.56050903 52.16500854 54.24050903 C50.84500854 54.24050903 49.52500854 54.24050903 48.16500854 54.24050903 C48.16500854 54.90050903 48.16500854 55.56050903 48.16500854 56.24050903 C45.52500854 56.24050903 42.88500854 56.24050903 40.16500854 56.24050903 C40.16500854 56.90050903 40.16500854 57.56050903 40.16500854 58.24050903 C40.82500854 58.24050903 41.48500854 58.24050903 42.16500854 58.24050903 C42.16500854 58.90050903 42.16500854 59.56050903 42.16500854 60.24050903 C43.48500854 60.24050903 44.80500854 60.24050903 46.16500854 60.24050903 C46.16500854 60.90050903 46.16500854 61.56050903 46.16500854 62.24050903 C46.82500854 62.24050903 47.48500854 62.24050903 48.16500854 62.24050903 C48.16500854 62.90050903 48.16500854 63.56050903 48.16500854 64.24050903 C48.82500854 64.24050903 49.48500854 64.24050903 50.16500854 64.24050903 C50.16500854 64.90050903 50.16500854 65.56050903 50.16500854 66.24050903 C50.82500854 66.24050903 51.48500854 66.24050903 52.16500854 66.24050903 C52.16500854 66.90050903 52.16500854 67.56050903 52.16500854 68.24050903 C52.82500854 68.24050903 53.48500854 68.24050903 54.16500854 68.24050903 C54.16500854 68.90050903 54.16500854 69.56050903 54.16500854 70.24050903 C54.82500854 70.24050903 55.48500854 70.24050903 56.16500854 70.24050903 C56.16500854 70.90050903 56.16500854 71.56050903 56.16500854 72.24050903 C56.82500854 72.24050903 57.48500854 72.24050903 58.16500854 72.24050903 C58.16500854 73.56050903 58.16500854 74.88050903 58.16500854 76.24050903 C58.82500854 76.24050903 59.48500854 76.24050903 60.16500854 76.24050903 C60.16500854 76.90050903 60.16500854 77.56050903 60.16500854 78.24050903 C60.82500854 78.24050903 61.48500854 78.24050903 62.16500854 78.24050903 C62.16500854 78.90050903 62.16500854 79.56050903 62.16500854 80.24050903 C62.82500854 80.24050903 63.48500854 80.24050903 64.16500854 80.24050903 C64.16500854 81.56050903 64.16500854 82.88050903 64.16500854 84.24050903 C64.82500854 84.24050903 65.48500854 84.24050903 66.16500854 84.24050903 C66.16500854 84.90050903 66.16500854 85.56050903 66.16500854 86.24050903 C66.82500854 86.24050903 67.48500854 86.24050903 68.16500854 86.24050903 C68.16500854 88.22050903 68.16500854 90.20050903 68.16500854 92.24050903 C64.21408795 92.31460304 60.2634356 92.36908309 56.3119812 92.40530396 C54.3058148 92.42783154 52.29984328 92.46594473 50.29391479 92.50418091 C49.03707886 92.51384888 47.78024292 92.52351685 46.48532104 92.53347778 C45.3227478 92.54918823 44.16017456 92.56489868 42.96237183 92.58108521 C42.03924194 92.46869507 41.11611206 92.35630493 40.16500854 92.24050903 C38.16500854 89.24050903 38.16500854 89.24050903 38.16500854 86.24050903 C37.50500854 86.24050903 36.84500854 86.24050903 36.16500854 86.24050903 C36.16500854 85.58050903 36.16500854 84.92050903 36.16500854 84.24050903 C35.50500854 84.24050903 34.84500854 84.24050903 34.16500854 84.24050903 C34.16500854 82.92050903 34.16500854 81.60050903 34.16500854 80.24050903 C33.50500854 80.24050903 32.84500854 80.24050903 32.16500854 80.24050903 C32.16500854 79.58050903 32.16500854 78.92050903 32.16500854 78.24050903 C31.50500854 78.24050903 30.84500854 78.24050903 30.16500854 78.24050903 C30.16500854 76.92050903 30.16500854 75.60050903 30.16500854 74.24050903 C29.50500854 74.24050903 28.84500854 74.24050903 28.16500854 74.24050903 C28.16500854 73.58050903 28.16500854 72.92050903 28.16500854 72.24050903 C27.50500854 72.24050903 26.84500854 72.24050903 26.16500854 72.24050903 C26.16500854 71.58050903 26.16500854 70.92050903 26.16500854 70.24050903 C25.50500854 70.24050903 24.84500854 70.24050903 24.16500854 70.24050903 C24.16500854 68.92050903 24.16500854 67.60050903 24.16500854 66.24050903 C23.50500854 66.24050903 22.84500854 66.24050903 22.16500854 66.24050903 C22.16500854 65.58050903 22.16500854 64.92050903 22.16500854 64.24050903 C21.50500854 64.24050903 20.84500854 64.24050903 20.16500854 64.24050903 C20.16500854 67.54050903 20.16500854 70.84050903 20.16500854 74.24050903 C19.50500854 74.24050903 18.84500854 74.24050903 18.16500854 74.24050903 C18.16500854 76.88050903 18.16500854 79.52050903 18.16500854 82.24050903 C17.50500854 82.24050903 16.84500854 82.24050903 16.16500854 82.24050903 C16.16500854 83.56050903 16.16500854 84.88050903 16.16500854 86.24050903 C15.50500854 86.24050903 14.84500854 86.24050903 14.16500854 86.24050903 C14.16500854 86.90050903 14.16500854 87.56050903 14.16500854 88.24050903 C13.50500854 88.24050903 12.84500854 88.24050903 12.16500854 88.24050903 C12.16500854 88.90050903 12.16500854 89.56050903 12.16500854 90.24050903 C11.50500854 90.24050903 10.84500854 90.24050903 10.16500854 90.24050903 C10.16500854 90.90050903 10.16500854 91.56050903 10.16500854 92.24050903 C8.84500854 92.24050903 7.52500854 92.24050903 6.16500854 92.24050903 C6.16500854 92.90050903 6.16500854 93.56050903 6.16500854 94.24050903 C4.84500854 94.24050903 3.52500854 94.24050903 2.16500854 94.24050903 C2.16500854 94.90050903 2.16500854 95.56050903 2.16500854 96.24050903 C0.18500854 96.24050903 -1.79499146 96.24050903 -3.83499146 96.24050903 C-3.88125688 84.0189887 -3.9168311 71.79748907 -3.9386158 59.57589912 C-3.9490694 53.90140829 -3.96325728 48.2269772 -3.98587036 42.55252075 C-4.00754262 37.08013188 -4.01954819 31.60780062 -4.02474594 26.13537216 C-4.02845182 24.04370084 -4.03568809 21.9520328 -4.04645157 19.86038589 C-4.06089186 16.93900904 -4.06297254 14.01787265 -4.06204224 11.09646606 C-4.06923279 10.22468719 -4.07642334 9.35290833 -4.08383179 8.45471191 C-4.05638613 0.53166324 -4.05638613 0.53166324 0 0 Z M20.16500854 20.24050903 C20.16500854 26.84050903 20.16500854 33.44050903 20.16500854 40.24050903 C24.78500854 40.24050903 29.40500854 40.24050903 34.16500854 40.24050903 C34.16500854 39.58050903 34.16500854 38.92050903 34.16500854 38.24050903 C34.82500854 38.24050903 35.48500854 38.24050903 36.16500854 38.24050903 C36.16500854 37.58050903 36.16500854 36.92050903 36.16500854 36.24050903 C36.82500854 36.24050903 37.48500854 36.24050903 38.16500854 36.24050903 C38.16500854 32.94050903 38.16500854 29.64050903 38.16500854 26.24050903 C37.50500854 26.24050903 36.84500854 26.24050903 36.16500854 26.24050903 C36.16500854 24.92050903 36.16500854 23.60050903 36.16500854 22.24050903 C34.18500854 22.24050903 32.20500854 22.24050903 30.16500854 22.24050903 C30.16500854 21.58050903 30.16500854 20.92050903 30.16500854 20.24050903 C26.86500854 20.24050903 23.56500854 20.24050903 20.16500854 20.24050903 Z " fill="#F9BF17" transform="translate(139.83499145507813,28.759490966796875)"/>
<path d="M0 0 C10.05859375 -0.09765625 10.05859375 -0.09765625 13 0 C13.33 0.33 13.66 0.66 14 1 C15.68183948 1.23287008 17.3712416 1.41264166 19.0625 1.5625 C19.98160156 1.64628906 20.90070312 1.73007812 21.84765625 1.81640625 C22.91306641 1.90728516 22.91306641 1.90728516 24 2 C24 2.66 24 3.32 24 4 C25.98 4 27.96 4 30 4 C30 4.66 30 5.32 30 6 C31.32 6 32.64 6 34 6 C34 6.66 34 7.32 34 8 C35.32 8 36.64 8 38 8 C38 8.66 38 9.32 38 10 C38.66 10 39.32 10 40 10 C40 10.66 40 11.32 40 12 C41.32 12 42.64 12 44 12 C44 12.66 44 13.32 44 14 C44.66 14 45.32 14 46 14 C46 14.66 46 15.32 46 16 C47.32 16.66 48.64 17.32 50 18 C50 19.32 50 20.64 50 22 C51.32 22.33 52.64 22.66 54 23 C54 23.99 54 24.98 54 26 C54.66 26 55.32 26 56 26 C56 27.32 56 28.64 56 30 C56.66 30 57.32 30 58 30 C58 31.32 58 32.64 58 34 C58.66 34 59.32 34 60 34 C60 35.98 60 37.96 60 40 C60.66 40 61.32 40 62 40 C62 41.98 62 43.96 62 46 C62.66 46 63.32 46 64 46 C64 49.3 64 52.6 64 56 C64.66 56 65.32 56 66 56 C66 54.02 66 52.04 66 50 C66.66 50 67.32 50 68 50 C68 48.68 68 47.36 68 46 C68.66 46 69.32 46 70 46 C70.99 43.03 70.99 43.03 72 40 C72.66 40 73.32 40 74 40 C74 39.34 74 38.68 74 38 C74.66 38 75.32 38 76 38 C76 37.34 76 36.68 76 36 C76.66 36 77.32 36 78 36 C78 35.34 78 34.68 78 34 C78.66 34 79.32 34 80 34 C80 33.34 80 32.68 80 32 C80.66 32 81.32 32 82 32 C82 31.34 82 30.68 82 30 C82.66 30 83.32 30 84 30 C84 29.34 84 28.68 84 28 C85.32 28 86.64 28 88 28 C88 27.34 88 26.68 88 26 C89.32 26 90.64 26 92 26 C92 25.34 92 24.68 92 24 C93.32 24 94.64 24 96 24 C96 23.34 96 22.68 96 22 C97.98 22 99.96 22 102 22 C102 21.34 102 20.68 102 20 C107.94 20 113.88 20 120 20 C120 23.96 120 27.92 120 32 C119.34 32 118.68 32 118 32 C118.04125 32.763125 118.0825 33.52625 118.125 34.3125 C118 37 118 37 116 40 C115.34 40 114.68 40 114 40 C114 41.32 114 42.64 114 44 C113.34 44 112.68 44 112 44 C112 45.32 112 46.64 112 48 C111.34 48 110.68 48 110 48 C110 48.66 110 49.32 110 50 C109.34 50 108.68 50 108 50 C108 50.66 108 51.32 108 52 C107.34 52 106.68 52 106 52 C106 52.66 106 53.32 106 54 C105.34 54 104.68 54 104 54 C104 54.66 104 55.32 104 56 C103.34 56 102.68 56 102 56 C102 56.66 102 57.32 102 58 C101.34 58 100.68 58 100 58 C100 58.66 100 59.32 100 60 C98.68 60 97.36 60 96 60 C96 60.66 96 61.32 96 62 C94.68 62 93.36 62 92 62 C92 62.66 92 63.32 92 64 C91.34 64 90.68 64 90 64 C90 64.66 90 65.32 90 66 C88.02 66 86.04 66 84 66 C84 66.66 84 67.32 84 68 C79.8803623 69.29243536 76.33168317 70.26252625 72 70 C72 70.66 72 71.32 72 72 C71.34 72 70.68 72 70 72 C70 73.32 70 74.64 70 76 C69.34 76 68.68 76 68 76 C68 78.64 68 81.28 68 84 C67.34 84 66.68 84 66 84 C66 86.64 66 89.28 66 92 C63.36 92 60.72 92 58 92 C56.01039227 88.6816923 55.7638255 86.20040301 55.8046875 82.359375 C55.81113281 81.28945312 55.81757812 80.21953125 55.82421875 79.1171875 C55.84097656 78.00601563 55.85773438 76.89484375 55.875 75.75 C55.88402344 74.62335938 55.89304688 73.49671875 55.90234375 72.3359375 C55.92589342 69.55707635 55.9587832 66.7786461 56 64 C55.34 64 54.68 64 54 64 C54 63.34 54 62.68 54 62 C52.68 62 51.36 62 50 62 C50 61.34 50 60.68 50 60 C47.36 60 44.72 60 42 60 C42 59.34 42 58.68 42 58 C40.02 58 38.04 58 36 58 C36 57.34 36 56.68 36 56 C34.68 56 33.36 56 32 56 C32 55.34 32 54.68 32 54 C30.68 54 29.36 54 28 54 C28 53.34 28 52.68 28 52 C26.68 52 25.36 52 24 52 C24 51.34 24 50.68 24 50 C23.34 50 22.68 50 22 50 C22 49.34 22 48.68 22 48 C21.34 48 20.68 48 20 48 C20 47.34 20 46.68 20 46 C18.68 46 17.36 46 16 46 C16 45.34 16 44.68 16 44 C15.34 44 14.68 44 14 44 C14 42.68 14 41.36 14 40 C13.34 40 12.68 40 12 40 C12 39.34 12 38.68 12 38 C11.34 38 10.68 38 10 38 C10 36.68 10 35.36 10 34 C9.34 34 8.68 34 8 34 C6 31 6 31 6 28 C5.34 28 4.68 28 4 28 C4 26.02 4 24.04 4 22 C3.34 22 2.68 22 2 22 C2 20.02 2 18.04 2 16 C1.34 16 0.68 16 0 16 C0 10.72 0 5.44 0 0 Z " fill="#02E432" transform="translate(10,43)"/>
<path d="M0 0 C8.58 0 17.16 0 26 0 C26 0.66 26 1.32 26 2 C27.98 2 29.96 2 32 2 C32 2.66 32 3.32 32 4 C32.66 4 33.32 4 34 4 C34 4.66 34 5.32 34 6 C35.32 6 36.64 6 38 6 C38 6.66 38 7.32 38 8 C38.66 8 39.32 8 40 8 C40 8.66 40 9.32 40 10 C40.66 10 41.32 10 42 10 C42 11.32 42 12.64 42 14 C42.66 14 43.32 14 44 14 C44 15.32 44 16.64 44 18 C44.66 18 45.32 18 46 18 C46 21.3 46 24.6 46 28 C46.66 28 47.32 28 48 28 C48 29.98 48 31.96 48 34 C47.34 34 46.68 34 46 34 C46 35.32 46 36.64 46 38 C45.34 38 44.68 38 44 38 C44 38.66 44 39.32 44 40 C44.66 40 45.32 40 46 40 C46 41.98 46 43.96 46 46 C45.34 46 44.68 46 44 46 C44 47.32 44 48.64 44 50 C43.34 50 42.68 50 42 50 C42 51.32 42 52.64 42 54 C41.34 54 40.68 54 40 54 C40 54.66 40 55.32 40 56 C39.34 56 38.68 56 38 56 C38 56.66 38 57.32 38 58 C37.34 58 36.68 58 36 58 C36 58.66 36 59.32 36 60 C34.68 60 33.36 60 32 60 C32 60.66 32 61.32 32 62 C28.05091786 63.85725751 24.95232103 64.23651489 20.60546875 64.1953125 C19.40341797 64.18886719 18.20136719 64.18242188 16.96289062 64.17578125 C15.09407227 64.15064453 15.09407227 64.15064453 13.1875 64.125 C11.92228516 64.11597656 10.65707031 64.10695313 9.35351562 64.09765625 C6.23548436 64.07412394 3.11783903 64.04124545 0 64 C0 63.34 0 62.68 0 62 C-1.98 62 -3.96 62 -6 62 C-6 61.34 -6 60.68 -6 60 C-7.32 60 -8.64 60 -10 60 C-10 59.34 -10 58.68 -10 58 C-10.66 58 -11.32 58 -12 58 C-12 57.34 -12 56.68 -12 56 C-12.66 56 -13.32 56 -14 56 C-14 55.34 -14 54.68 -14 54 C-14.66 54 -15.32 54 -16 54 C-16 53.34 -16 52.68 -16 52 C-16.66 52 -17.32 52 -18 52 C-18 50.68 -18 49.36 -18 48 C-18.66 48 -19.32 48 -20 48 C-20 46.02 -20 44.04 -20 42 C-20.66 42 -21.32 42 -22 42 C-22 35.4 -22 28.8 -22 22 C-21.34 22 -20.68 22 -20 22 C-20 20.02 -20 18.04 -20 16 C-19.34 16 -18.68 16 -18 16 C-18 15.34 -18 14.68 -18 14 C-17.34 14 -16.68 14 -16 14 C-16 12.68 -16 11.36 -16 10 C-15.34 10 -14.68 10 -14 10 C-14 9.34 -14 8.68 -14 8 C-13.34 8 -12.68 8 -12 8 C-12 7.34 -12 6.68 -12 6 C-10.68 6 -9.36 6 -8 6 C-8 5.34 -8 4.68 -8 4 C-6.68 4 -5.36 4 -4 4 C-4 3.34 -4 2.68 -4 2 C-2.68 2 -1.36 2 0 2 C0 1.34 0 0.68 0 0 Z M10 16 C10 16.66 10 17.32 10 18 C8.68 18 7.36 18 6 18 C6 18.66 6 19.32 6 20 C5.34 20 4.68 20 4 20 C4 21.32 4 22.64 4 24 C9.94 24 15.88 24 22 24 C22 23.34 22 22.68 22 22 C21.34 22 20.68 22 20 22 C20 20.68 20 19.36 20 18 C18.68 18 17.36 18 16 18 C16 17.34 16 16.68 16 16 C14.02 16 12.04 16 10 16 Z M4 38 C4 39.32 4 40.64 4 42 C4.66 42 5.32 42 6 42 C6 42.66 6 43.32 6 44 C6.66 44 7.32 44 8 44 C8 44.66 8 45.32 8 46 C12.33273814 46.92844389 15.66726186 46.92844389 20 46 C20 45.34 20 44.68 20 44 C20.66 44 21.32 44 22 44 C22 42.68 22 41.36 22 40 C23.32 40 24.64 40 26 40 C26 39.34 26 38.68 26 38 C18.74 38 11.48 38 4 38 Z " fill="#E2E2E3" transform="translate(430,59)"/>
<path d="M0 0 C8.58 0 17.16 0 26 0 C26 0.66 26 1.32 26 2 C27.98 2 29.96 2 32 2 C32 2.66 32 3.32 32 4 C32.66 4 33.32 4 34 4 C34 4.66 34 5.32 34 6 C35.32 6 36.64 6 38 6 C38 6.66 38 7.32 38 8 C38.66 8 39.32 8 40 8 C40 8.66 40 9.32 40 10 C40.66 10 41.32 10 42 10 C42 11.32 42 12.64 42 14 C42.66 14 43.32 14 44 14 C44 15.32 44 16.64 44 18 C44.66 18 45.32 18 46 18 C46.05411124 20.41696872 46.09372278 22.83271787 46.125 25.25 C46.14175781 25.93191406 46.15851563 26.61382812 46.17578125 27.31640625 C46.21528576 31.38537077 45.87550339 33.24899321 44 37 C29.81 37 15.62 37 1 37 C1.66 38.65 2.32 40.3 3 42 C3.99 42 4.98 42 6 42 C6 42.66 6 43.32 6 44 C6.66 44 7.32 44 8 44 C8 44.66 8 45.32 8 46 C11.96 46 15.92 46 20 46 C20 45.34 20 44.68 20 44 C20.66 44 21.32 44 22 44 C22 42.68 22 41.36 22 40 C26.37511539 38.91908914 30.64616815 38.85052551 35.125 38.875 C35.84042969 38.87113281 36.55585938 38.86726563 37.29296875 38.86328125 C40.46134984 38.86920346 42.97310145 38.99103382 46 40 C46 41.98 46 43.96 46 46 C45.34 46 44.68 46 44 46 C44 47.32 44 48.64 44 50 C43.34 50 42.68 50 42 50 C42 51.32 42 52.64 42 54 C41.34 54 40.68 54 40 54 C40 54.66 40 55.32 40 56 C39.34 56 38.68 56 38 56 C38 56.66 38 57.32 38 58 C37.34 58 36.68 58 36 58 C36 58.66 36 59.32 36 60 C34.68 60 33.36 60 32 60 C32 60.66 32 61.32 32 62 C30.68 62 29.36 62 28 62 C28 62.66 28 63.32 28 64 C18.76 64 9.52 64 0 64 C0 63.34 0 62.68 0 62 C-1.98 62 -3.96 62 -6 62 C-6 61.34 -6 60.68 -6 60 C-7.32 60 -8.64 60 -10 60 C-10 59.34 -10 58.68 -10 58 C-10.66 58 -11.32 58 -12 58 C-12 57.34 -12 56.68 -12 56 C-12.66 56 -13.32 56 -14 56 C-14 55.34 -14 54.68 -14 54 C-14.66 54 -15.32 54 -16 54 C-16 53.34 -16 52.68 -16 52 C-16.66 52 -17.32 52 -18 52 C-18 50.68 -18 49.36 -18 48 C-18.66 48 -19.32 48 -20 48 C-20 46.02 -20 44.04 -20 42 C-20.66 42 -21.32 42 -22 42 C-22 35.4 -22 28.8 -22 22 C-21.34 22 -20.68 22 -20 22 C-20 20.02 -20 18.04 -20 16 C-19.34 16 -18.68 16 -18 16 C-17.34 14.02 -16.68 12.04 -16 10 C-15.34 10 -14.68 10 -14 10 C-14 9.34 -14 8.68 -14 8 C-13.34 8 -12.68 8 -12 8 C-12 7.34 -12 6.68 -12 6 C-10.68 6 -9.36 6 -8 6 C-8 5.34 -8 4.68 -8 4 C-7.34 4 -6.68 4 -6 4 C-6 3.34 -6 2.68 -6 2 C-4.02 2 -2.04 2 0 2 C0 1.34 0 0.68 0 0 Z M10 16 C10 16.66 10 17.32 10 18 C8.68 18 7.36 18 6 18 C6 18.66 6 19.32 6 20 C5.34 20 4.68 20 4 20 C4 21.32 4 22.64 4 24 C9.94 24 15.88 24 22 24 C22 23.34 22 22.68 22 22 C21.34 22 20.68 22 20 22 C20 20.68 20 19.36 20 18 C18.68 18 17.36 18 16 18 C16 17.34 16 16.68 16 16 C14.02 16 12.04 16 10 16 Z " fill="#E5E4E4" transform="translate(224,59)"/>
<path d="M0 0 C6.6 0 13.2 0 20 0 C20 0.66 20 1.32 20 2 C21.32 2 22.64 2 24 2 C24 2.66 24 3.32 24 4 C25.32 4 26.64 4 28 4 C28 4.66 28 5.32 28 6 C28.66 6 29.32 6 30 6 C30 6.66 30 7.32 30 8 C30.66 8 31.32 8 32 8 C32 8.66 32 9.32 32 10 C32.66 10 33.32 10 34 10 C34 10.66 34 11.32 34 12 C34.66 12 35.32 12 36 12 C36 12.66 36 13.32 36 14 C36.66 14 37.32 14 38 14 C38 15.98 38 17.96 38 20 C38.66 20 39.32 20 40 20 C40 26.6 40 33.2 40 40 C39.34 40 38.68 40 38 40 C38 41.32 38 42.64 38 44 C37.34 44 36.68 44 36 44 C36 45.32 36 46.64 36 48 C35.34 48 34.68 48 34 48 C34 48.66 34 49.32 34 50 C33.34 50 32.68 50 32 50 C32 50.66 32 51.32 32 52 C31.34 52 30.68 52 30 52 C30 52.66 30 53.32 30 54 C29.34 54 28.68 54 28 54 C28 54.66 28 55.32 28 56 C26.68 56 25.36 56 24 56 C24 56.66 24 57.32 24 58 C22.68 58 21.36 58 20 58 C20 58.66 20 59.32 20 60 C16.7 60 13.4 60 10 60 C10 59.34 10 58.68 10 58 C9.34 58 8.68 58 8 58 C8 56.68 8 55.36 8 54 C7.34 54 6.68 54 6 54 C6 53.34 6 52.68 6 52 C5.34 52 4.68 52 4 52 C4 51.34 4 50.68 4 50 C3.34 50 2.68 50 2 50 C2 49.34 2 48.68 2 48 C1.34 48 0.68 48 0 48 C0 47.34 0 46.68 0 46 C-0.66 46 -1.32 46 -2 46 C-2 45.34 -2 44.68 -2 44 C-2.66 44 -3.32 44 -4 44 C-4 43.34 -4 42.68 -4 42 C-5.32 42 -6.64 42 -8 42 C-8 41.34 -8 40.68 -8 40 C-8.66 40 -9.32 40 -10 40 C-10 39.34 -10 38.68 -10 38 C-11.32 38 -12.64 38 -14 38 C-14 37.34 -14 36.68 -14 36 C-15.98 36 -17.96 36 -20 36 C-20 30.72 -20 25.44 -20 20 C-19.34 20 -18.68 20 -18 20 C-18 18.02 -18 16.04 -18 14 C-17.34 14 -16.68 14 -16 14 C-16 13.34 -16 12.68 -16 12 C-15.34 12 -14.68 12 -14 12 C-14 11.34 -14 10.68 -14 10 C-13.34 10 -12.68 10 -12 10 C-12 9.34 -12 8.68 -12 8 C-11.34 8 -10.68 8 -10 8 C-10 7.34 -10 6.68 -10 6 C-9.34 6 -8.68 6 -8 6 C-8 5.34 -8 4.68 -8 4 C-7.34 4 -6.68 4 -6 4 C-6 3.34 -6 2.68 -6 2 C-4.02 2 -2.04 2 0 2 C0 1.34 0 0.68 0 0 Z " fill="#E6B209" transform="translate(60,9)"/>
<path d="M0 0 C3.3 0 6.6 0 10 0 C10 2.64 10 5.28 10 8 C9.34 8 8.68 8 8 8 C8 9.98 8 11.96 8 14 C7.34 14 6.68 14 6 14 C6 15.98 6 17.96 6 20 C5.34 20 4.68 20 4 20 C4 21.32 4 22.64 4 24 C3.34 24 2.68 24 2 24 C2 25.98 2 27.96 2 30 C1.34 30 0.68 30 0 30 C0.04125 30.721875 0.0825 31.44375 0.125 32.1875 C-0.00921305 35.20729369 -0.75170619 37.26935729 -2 40 C-2.66 40 -3.32 40 -4 40 C-4 41.98 -4 43.96 -4 46 C-4.66 46 -5.32 46 -6 46 C-6.144375 46.721875 -6.28875 47.44375 -6.4375 48.1875 C-6.95833333 50.79166667 -7.47916667 53.39583333 -8 56 C-8.66 56 -9.32 56 -10 56 C-9.979375 56.804375 -9.95875 57.60875 -9.9375 58.4375 C-10 61 -10 61 -11 62 C-12.99964982 62.08758003 -15.0023611 62.10696576 -17.00390625 62.09765625 C-18.21884766 62.09443359 -19.43378906 62.09121094 -20.68554688 62.08789062 C-21.96494141 62.07951172 -23.24433594 62.07113281 -24.5625 62.0625 C-25.84576172 62.05798828 -27.12902344 62.05347656 -28.45117188 62.04882812 C-31.63416022 62.03699545 -34.81705762 62.02051068 -38 62 C-38 61.34 -38 60.68 -38 60 C-38.66 60 -39.32 60 -40 60 C-40 58.02 -40 56.04 -40 54 C-40.66 54 -41.32 54 -42 54 C-42 52.68 -42 51.36 -42 50 C-42.66 50 -43.32 50 -44 50 C-44 48.02 -44 46.04 -44 44 C-44.66 44 -45.32 44 -46 44 C-46 42.68 -46 41.36 -46 40 C-46.66 40 -47.32 40 -48 40 C-48 38.02 -48 36.04 -48 34 C-48.66 34 -49.32 34 -50 34 C-50 32.02 -50 30.04 -50 28 C-50.66 28 -51.32 28 -52 28 C-52.13277344 27.26394531 -52.26554687 26.52789062 -52.40234375 25.76953125 C-52.66724609 24.30580078 -52.66724609 24.30580078 -52.9375 22.8125 C-53.11152344 21.84957031 -53.28554688 20.88664062 -53.46484375 19.89453125 C-53.9523735 17.25760028 -54.46671105 14.6280095 -55 12 C-55.99 12 -56.98 12 -58 12 C-58 10.68 -58 9.36 -58 8 C-58.66 8 -59.32 8 -60 8 C-60 6.02 -60 4.04 -60 2 C-52.08 2 -44.16 2 -36 2 C-36 3.98 -36 5.96 -36 8 C-35.34 8 -34.68 8 -34 8 C-34 9.98 -34 11.96 -34 14 C-33.34 14 -32.68 14 -32 14 C-32 15.98 -32 17.96 -32 20 C-31.34 20 -30.68 20 -30 20 C-30 21.98 -30 23.96 -30 26 C-29.34 26 -28.68 26 -28 26 C-28 27.98 -28 29.96 -28 32 C-27.34 32 -26.68 32 -26 32 C-26 33.98 -26 35.96 -26 38 C-25.34 38 -24.68 38 -24 38 C-24 36.02 -24 34.04 -24 32 C-23.34 32 -22.68 32 -22 32 C-22 30.02 -22 28.04 -22 26 C-21.34 26 -20.68 26 -20 26 C-20 24.02 -20 22.04 -20 20 C-19.34 20 -18.68 20 -18 20 C-18 18.68 -18 17.36 -18 16 C-17.34 16 -16.68 16 -16 16 C-16 14.68 -16 13.36 -16 12 C-15.34 12 -14.68 12 -14 12 C-14 11.34 -14 10.68 -14 10 C-13.34 10 -12.68 10 -12 10 C-12 9.34 -12 8.68 -12 8 C-11.34 8 -10.68 8 -10 8 C-10 7.34 -10 6.68 -10 6 C-9.34 6 -8.68 6 -8 6 C-8 5.34 -8 4.68 -8 4 C-7.34 4 -6.68 4 -6 4 C-6 3.34 -6 2.68 -6 2 C-4.02 2 -2.04 2 0 2 C0 1.34 0 0.68 0 0 Z " fill="#DFDFDF" transform="translate(402,59)"/>
<path d="M0 0 C10.05859375 -0.09765625 10.05859375 -0.09765625 13 0 C13.33 0.33 13.66 0.66 14 1 C15.68183948 1.23287008 17.3712416 1.41264166 19.0625 1.5625 C19.98160156 1.64628906 20.90070312 1.73007812 21.84765625 1.81640625 C22.91306641 1.90728516 22.91306641 1.90728516 24 2 C24 2.66 24 3.32 24 4 C25.98 4 27.96 4 30 4 C30 4.66 30 5.32 30 6 C31.32 6 32.64 6 34 6 C34 6.66 34 7.32 34 8 C35.32 8 36.64 8 38 8 C38 8.66 38 9.32 38 10 C38.66 10 39.32 10 40 10 C40.495 11.485 40.495 11.485 41 13 C42.80139629 14.45375489 42.80139629 14.45375489 44.9375 15.8125 C48.71378854 18.53384672 49.94103383 20.3790567 51 25 C52.66381684 29.26670295 52.66381684 29.26670295 56 32 C56 33.32 56 34.64 56 36 C56.99 36 57.98 36 59 36 C59.66 39.96 60.32 43.92 61 48 C61.33 48 61.66 48 62 48 C62.375 50.6875 62.375 50.6875 62 54 C59.09472117 56.90527883 56.90492563 58.69835812 53 60 C53 59.34 53 58.68 53 58 C52.14341797 58.08701172 52.14341797 58.08701172 51.26953125 58.17578125 C40.64817554 58.76679468 31.36008801 54.5697542 23 48.234375 C20.68233528 46.80394131 18.67756343 46.390478 16 46 C16 45.34 16 44.68 16 44 C15.34 44 14.68 44 14 44 C14 42.68 14 41.36 14 40 C13.34 40 12.68 40 12 40 C12 39.34 12 38.68 12 38 C11.34 38 10.68 38 10 38 C10 36.68 10 35.36 10 34 C9.34 34 8.68 34 8 34 C6 31 6 31 6 28 C5.34 28 4.68 28 4 28 C4 26.02 4 24.04 4 22 C3.34 22 2.68 22 2 22 C2 20.02 2 18.04 2 16 C1.34 16 0.68 16 0 16 C0 10.72 0 5.44 0 0 Z " fill="#04E435" transform="translate(10,43)"/>
<path d="M0 0 C2.64 0 5.28 0 8 0 C8 0.66 8 1.32 8 2 C9.32 2 10.64 2 12 2 C12 2.66 12 3.32 12 4 C12.66 4 13.32 4 14 4 C14 4.66 14 5.32 14 6 C18.62 6 23.24 6 28 6 C28 6.66 28 7.32 28 8 C28.66 8 29.32 8 30 8 C30 9.32 30 10.64 30 12 C30.66 12 31.32 12 32 12 C32.05437607 13.58294782 32.09296271 15.16644256 32.125 16.75 C32.14820313 17.63171875 32.17140625 18.5134375 32.1953125 19.421875 C31.99139502 22.1135858 31.36551721 23.69904974 30 26 C29.34 26 28.68 26 28 26 C27.67 27.32 27.34 28.64 27 30 C26.01 30 25.02 30 24 30 C24 30.66 24 31.32 24 32 C23.34 32 22.68 32 22 32 C22 32.66 22 33.32 22 34 C21.34 34 20.68 34 20 34 C20 34.66 20 35.32 20 36 C19.34 36 18.68 36 18 36 C18 36.66 18 37.32 18 38 C17.34 38 16.68 38 16 38 C16 38.66 16 39.32 16 40 C14.68 40 13.36 40 12 40 C12 40.66 12 41.32 12 42 C8.79619983 44.13586678 7.98060033 44.23132175 4.3125 44.125 C3.50425781 44.10695312 2.69601562 44.08890625 1.86328125 44.0703125 C1.24839844 44.04710937 0.63351562 44.02390625 0 44 C0 43.34 0 42.68 0 42 C-1.32 42 -2.64 42 -4 42 C-4 41.34 -4 40.68 -4 40 C-4.66 40 -5.32 40 -6 40 C-6 39.34 -6 38.68 -6 38 C-7.32 38 -8.64 38 -10 38 C-10 37.34 -10 36.68 -10 36 C-10.66 36 -11.32 36 -12 36 C-12 35.34 -12 34.68 -12 34 C-12.66 34 -13.32 34 -14 34 C-14 33.34 -14 32.68 -14 32 C-14.66 32 -15.32 32 -16 32 C-16 31.34 -16 30.68 -16 30 C-16.66 30 -17.32 30 -18 30 C-18 28.68 -18 27.36 -18 26 C-18.66 26 -19.32 26 -20 26 C-20 24.02 -20 22.04 -20 20 C-20.66 20 -21.32 20 -22 20 C-22 17.36 -22 14.72 -22 12 C-21.34 12 -20.68 12 -20 12 C-20 10.68 -20 9.36 -20 8 C-19.34 8 -18.68 8 -18 8 C-18 7.34 -18 6.68 -18 6 C-16.68 6 -15.36 6 -14 6 C-14 5.34 -14 4.68 -14 4 C-12.02 4 -10.04 4 -8 4 C-8 4.66 -8 5.32 -8 6 C-7.34 6 -6.68 6 -6 6 C-6 5.34 -6 4.68 -6 4 C-5.34 4 -4.68 4 -4 4 C-4 3.34 -4 2.68 -4 2 C-2.68 2 -1.36 2 0 2 C0 1.34 0 0.68 0 0 Z " fill="#E1EACB" transform="translate(326,13)"/>
<path d="M0 0 C3.63 0.33 7.26 0.66 11 1 C11 1.66 11 2.32 11 3 C12.32 3 13.64 3 15 3 C15 3.66 15 4.32 15 5 C15.66 5 16.32 5 17 5 C17 5.66 17 6.32 17 7 C17.66 7 18.32 7 19 7 C19 8.32 19 9.64 19 11 C19.66 11 20.32 11 21 11 C22.08606648 16.28203635 22.14508923 21.3733191 22.1328125 26.73828125 C22.13424759 28.12034004 22.13424759 28.12034004 22.13571167 29.53031921 C22.13638958 31.46756051 22.1345625 33.40480413 22.13037109 35.34204102 C22.12498666 38.31987529 22.13034487 41.29756083 22.13671875 44.27539062 C22.1360585 46.1588545 22.13477844 48.04231828 22.1328125 49.92578125 C22.13483673 50.82049637 22.13686096 51.71521149 22.13894653 52.63703918 C22.11497045 58.88502955 22.11497045 58.88502955 21 60 C19.59651265 60.09860131 18.18819523 60.13078937 16.78125 60.1328125 C15.50701172 60.13474609 15.50701172 60.13474609 14.20703125 60.13671875 C12.86705078 60.13091797 12.86705078 60.13091797 11.5 60.125 C10.60667969 60.12886719 9.71335937 60.13273437 8.79296875 60.13671875 C7.94347656 60.13542969 7.09398437 60.13414063 6.21875 60.1328125 C5.43435547 60.13168457 4.64996094 60.13055664 3.84179688 60.12939453 C2 60 2 60 1 59 C-0.42863666 46.23884457 -0.11927377 33.31801671 -0.0625 20.5 C-0.05747 18.50130322 -0.05290977 16.50260519 -0.04882812 14.50390625 C-0.03795284 9.66923949 -0.02077282 4.83463395 0 0 Z " fill="#F6F6F5" transform="translate(323,60)"/>
<path d="M0 0 C0.33 0 0.66 0 1 0 C1 30.69 1 61.38 1 93 C12.09057939 88.16482421 12.09057939 88.16482421 19.01171875 79.23828125 C19.23472656 78.27277344 19.45773438 77.30726562 19.6875 76.3125 C20.93055556 71.06944444 20.93055556 71.06944444 22 70 C22.23481693 67.81707226 22.41363323 65.62796826 22.5625 63.4375 C22.64628906 62.23996094 22.73007813 61.04242188 22.81640625 59.80859375 C22.90728516 58.41833984 22.90728516 58.41833984 23 57 C24.1446875 58.0209375 24.1446875 58.0209375 25.3125 59.0625 C26.6428125 60.0215625 26.6428125 60.0215625 28 61 C31.08628136 59.97123955 31.99584162 59.43984498 34 57 C35.19027984 54.40084462 35.19027984 54.40084462 36 52 C36.804375 52.391875 37.60875 52.78375 38.4375 53.1875 C44.43777768 54.55598438 48.94814049 52.06538859 54.25 49.3125 C58.99744048 45.32033414 62.14706633 39.90935604 64 34 C64.13760722 31.19006055 64.19011573 28.48998076 64.125 25.6875 C64.11597656 24.94693359 64.10695313 24.20636719 64.09765625 23.44335938 C64.07424213 21.62876533 64.03837615 19.81433929 64 18 C64.66 18.33 65.32 18.66 66 19 C66 24.61 66 30.22 66 36 C65.34 36 64.68 36 64 36 C64 37.98 64 39.96 64 42 C63.34 42 62.68 42 62 42 C62 43.32 62 44.64 62 46 C61.34 46 60.68 46 60 46 C60 46.66 60 47.32 60 48 C59.34 48 58.68 48 58 48 C58 48.66 58 49.32 58 50 C57.34 50 56.68 50 56 50 C56 50.66 56 51.32 56 52 C54.68 52 53.36 52 52 52 C52 52.66 52 53.32 52 54 C49.36 54 46.72 54 44 54 C44 54.66 44 55.32 44 56 C44.66 56 45.32 56 46 56 C46 56.66 46 57.32 46 58 C47.32 58 48.64 58 50 58 C50 58.66 50 59.32 50 60 C50.66 60 51.32 60 52 60 C52 60.66 52 61.32 52 62 C52.66 62 53.32 62 54 62 C54 62.66 54 63.32 54 64 C54.66 64 55.32 64 56 64 C56 64.66 56 65.32 56 66 C56.66 66 57.32 66 58 66 C58 66.66 58 67.32 58 68 C58.66 68 59.32 68 60 68 C60 68.66 60 69.32 60 70 C60.66 70 61.32 70 62 70 C62 71.32 62 72.64 62 74 C62.66 74 63.32 74 64 74 C64 74.66 64 75.32 64 76 C64.66 76 65.32 76 66 76 C66 76.66 66 77.32 66 78 C66.66 78 67.32 78 68 78 C68 79.32 68 80.64 68 82 C68.66 82 69.32 82 70 82 C70 82.66 70 83.32 70 84 C70.66 84 71.32 84 72 84 C72 85.98 72 87.96 72 90 C68.04907941 90.07409401 64.09842706 90.12857406 60.14697266 90.16479492 C58.14080626 90.18732251 56.13483474 90.2254357 54.12890625 90.26367188 C52.87207031 90.27333984 51.61523438 90.28300781 50.3203125 90.29296875 C49.15773926 90.3086792 47.99516602 90.32438965 46.79736328 90.34057617 C45.8742334 90.22818604 44.95110352 90.1157959 44 90 C42 87 42 87 42 84 C41.34 84 40.68 84 40 84 C40 83.34 40 82.68 40 82 C39.34 82 38.68 82 38 82 C38 80.68 38 79.36 38 78 C37.34 78 36.68 78 36 78 C36 77.34 36 76.68 36 76 C35.34 76 34.68 76 34 76 C34 74.68 34 73.36 34 72 C33.34 72 32.68 72 32 72 C32 71.34 32 70.68 32 70 C31.34 70 30.68 70 30 70 C30 69.34 30 68.68 30 68 C29.34 68 28.68 68 28 68 C28 66.68 28 65.36 28 64 C27.34 64 26.68 64 26 64 C26 63.34 26 62.68 26 62 C25.34 62 24.68 62 24 62 C24 65.3 24 68.6 24 72 C23.34 72 22.68 72 22 72 C22 74.64 22 77.28 22 80 C21.34 80 20.68 80 20 80 C20 81.32 20 82.64 20 84 C19.34 84 18.68 84 18 84 C18 84.66 18 85.32 18 86 C17.34 86 16.68 86 16 86 C16 86.66 16 87.32 16 88 C15.34 88 14.68 88 14 88 C14 88.66 14 89.32 14 90 C12.68 90 11.36 90 10 90 C10 90.66 10 91.32 10 92 C8.68 92 7.36 92 6 92 C6 92.66 6 93.32 6 94 C4.02 94 2.04 94 0 94 C0 62.98 0 31.96 0 0 Z " fill="#E6AE11" transform="translate(136,31)"/>
<path d="M0 0 C6.1055471 -0.02464513 12.21106551 -0.04283371 18.31665039 -0.05493164 C20.39543156 -0.05997288 22.47420916 -0.06680574 24.55297852 -0.07543945 C27.53402586 -0.08751422 30.51502649 -0.09323024 33.49609375 -0.09765625 C34.89921059 -0.10539818 34.89921059 -0.10539818 36.33067322 -0.11329651 C37.19149002 -0.11337204 38.05230682 -0.11344757 38.93920898 -0.11352539 C40.08171364 -0.11685631 40.08171364 -0.11685631 41.24729919 -0.12025452 C43 0 43 0 44 1 C44 6.28 44 11.56 44 17 C27.5 17 11 17 -6 17 C-6 14.36 -6 11.72 -6 9 C-5.01 8.34 -4.02 7.68 -3 7 C-0.92707722 3.69293394 -0.92707722 3.69293394 0 0 Z " fill="#DFFE55" transform="translate(280,102)"/>
<path d="M0 0 C2.64 0 5.28 0 8 0 C8 0.66 8 1.32 8 2 C9.32 2 10.64 2 12 2 C12 2.66 12 3.32 12 4 C12.66 4 13.32 4 14 4 C14 4.66 14 5.32 14 6 C18.62 6 23.24 6 28 6 C28 6.66 28 7.32 28 8 C28.66 8 29.32 8 30 8 C29.67 9.32 29.34 10.64 29 12 C28.41025391 11.01966797 28.41025391 11.01966797 27.80859375 10.01953125 C26.18009691 7.78561397 26.18009691 7.78561397 23.66015625 7.57421875 C22.80292969 7.61160156 21.94570313 7.64898438 21.0625 7.6875 C19.78052734 7.72423828 19.78052734 7.72423828 18.47265625 7.76171875 C16.21545879 7.97923699 14.1765785 8.37884187 12 9 C12 9.66 12 10.32 12 11 C11.00298061 12.00297175 10.00231213 13.00231749 9 14 C4.05740683 21.33214203 1.8861018 28.24592531 1 37 C-0.65 36.67 -2.3 36.34 -4 36 C-4.99 32.37 -5.98 28.74 -7 25 C-11.12973628 25.56739868 -11.12973628 25.56739868 -15 27 C-13.61811547 30.21043882 -12.07578097 32.04936365 -9.375 34.25 C-8.42753906 35.03117187 -8.42753906 35.03117187 -7.4609375 35.828125 C-6.97882813 36.21484375 -6.49671875 36.6015625 -6 37 C-7.98 37.495 -7.98 37.495 -10 38 C-10 37.34 -10 36.68 -10 36 C-10.66 36 -11.32 36 -12 36 C-12 35.34 -12 34.68 -12 34 C-12.66 34 -13.32 34 -14 34 C-14 33.34 -14 32.68 -14 32 C-14.66 32 -15.32 32 -16 32 C-16 31.34 -16 30.68 -16 30 C-16.66 30 -17.32 30 -18 30 C-18 28.68 -18 27.36 -18 26 C-18.66 26 -19.32 26 -20 26 C-20 24.02 -20 22.04 -20 20 C-20.66 20 -21.32 20 -22 20 C-22 17.36 -22 14.72 -22 12 C-21.34 12 -20.68 12 -20 12 C-20 10.68 -20 9.36 -20 8 C-19.34 8 -18.68 8 -18 8 C-18 7.34 -18 6.68 -18 6 C-16.68 6 -15.36 6 -14 6 C-14 5.34 -14 4.68 -14 4 C-12.02 4 -10.04 4 -8 4 C-8 4.66 -8 5.32 -8 6 C-7.34 6 -6.68 6 -6 6 C-6 5.34 -6 4.68 -6 4 C-5.34 4 -4.68 4 -4 4 C-4 3.34 -4 2.68 -4 2 C-2.68 2 -1.36 2 0 2 C0 1.34 0 0.68 0 0 Z " fill="#3DFFD1" transform="translate(326,13)"/>
<path d="M0 0 C1.32 0 2.64 0 4 0 C4 0.66 4 1.32 4 2 C4.66 2 5.32 2 6 2 C6 2.66 6 3.32 6 4 C7.32 4.66 8.64 5.32 10 6 C10 7.32 10 8.64 10 10 C11.32 10.33 12.64 10.66 14 11 C14 11.99 14 12.98 14 14 C14.66 14 15.32 14 16 14 C16 15.32 16 16.64 16 18 C16.66 18 17.32 18 18 18 C18 19.32 18 20.64 18 22 C18.66 22 19.32 22 20 22 C20 23.98 20 25.96 20 28 C20.66 28 21.32 28 22 28 C22 29.98 22 31.96 22 34 C22.66 34 23.32 34 24 34 C24 37.3 24 40.6 24 44 C24.66 44 25.32 44 26 44 C26 42.02 26 40.04 26 38 C26.66 38 27.32 38 28 38 C27.98839844 38.61488281 27.97679687 39.22976562 27.96484375 39.86328125 C27.95582031 40.67152344 27.94679687 41.47976562 27.9375 42.3125 C27.92589844 43.11300781 27.91429687 43.91351563 27.90234375 44.73828125 C27.90342145 47.16861334 27.90342145 47.16861334 29 50 C28.34 50.66 27.68 51.32 27 52 C27 52.99 27 53.98 27 55 C36.42466495 57.51778053 46.78184108 51.88777525 54.875 47.375 C62.74721955 42.53886512 68.93314292 36.31053403 73 28 C73.495 29.98 73.495 29.98 74 32 C73.34 32 72.68 32 72 32 C72 33.32 72 34.64 72 36 C71.34 36 70.68 36 70 36 C70 36.66 70 37.32 70 38 C69.34 38 68.68 38 68 38 C68 38.66 68 39.32 68 40 C67.34 40 66.68 40 66 40 C66 40.66 66 41.32 66 42 C65.34 42 64.68 42 64 42 C64 42.66 64 43.32 64 44 C63.34 44 62.68 44 62 44 C62 44.66 62 45.32 62 46 C61.34 46 60.68 46 60 46 C60 46.66 60 47.32 60 48 C58.68 48 57.36 48 56 48 C56 48.66 56 49.32 56 50 C54.68 50 53.36 50 52 50 C52 50.66 52 51.32 52 52 C51.34 52 50.68 52 50 52 C50 52.66 50 53.32 50 54 C48.02 54 46.04 54 44 54 C44 54.66 44 55.32 44 56 C39.8803623 57.29243536 36.33168317 58.26252625 32 58 C32 58.66 32 59.32 32 60 C31.34 60 30.68 60 30 60 C30 61.32 30 62.64 30 64 C29.34 64 28.68 64 28 64 C28 66.64 28 69.28 28 72 C27.34 72 26.68 72 26 72 C26 74.64 26 77.28 26 80 C23.36 80 20.72 80 18 80 C16.01039227 76.6816923 15.7638255 74.20040301 15.8046875 70.359375 C15.81113281 69.28945312 15.81757812 68.21953125 15.82421875 67.1171875 C15.84097656 66.00601563 15.85773438 64.89484375 15.875 63.75 C15.88402344 62.62335938 15.89304688 61.49671875 15.90234375 60.3359375 C15.92589342 57.55707635 15.9587832 54.7786461 16 52 C15.34 52 14.68 52 14 52 C14 51.34 14 50.68 14 50 C12.68 50 11.36 50 10 50 C10 49.34 10 48.68 10 48 C7.36 48 4.72 48 2 48 C2 47.34 2 46.68 2 46 C0.02 46 -1.96 46 -4 46 C-4 45.34 -4 44.68 -4 44 C-5.32 44 -6.64 44 -8 44 C-8 43.34 -8 42.68 -8 42 C-9.32 42 -10.64 42 -12 42 C-12 41.34 -12 40.68 -12 40 C-13.32 40 -14.64 40 -16 40 C-16 39.34 -16 38.68 -16 38 C-16.66 38 -17.32 38 -18 38 C-18 37.34 -18 36.68 -18 36 C-18.66 36 -19.32 36 -20 36 C-19.67 35.34 -19.34 34.68 -19 34 C-18.50113281 34.37511719 -18.00226562 34.75023437 -17.48828125 35.13671875 C-7.95257181 41.9332657 4.00639786 47.4503133 16 46 C18.88558852 44.29551252 18.88558852 44.29551252 21 42 C21.41870553 39.33071879 21.41870553 39.33071879 21 37 C20.67 37 20.34 37 20 37 C18.89771304 32.59085217 18.92345464 28.51617599 19 24 C18.01 24 17.02 24 16 24 C16 22.68 16 21.36 16 20 C15.01 19.67 14.02 19.34 13 19 C11.22176273 15.88808478 9.93695125 12.82031106 8.75 9.4375 C6.49575284 5.00951451 4.137493 3.65424079 0 1 C0 0.67 0 0.34 0 0 Z " fill="#03D829" transform="translate(50,55)"/>
<path d="M0 0 C1.28583984 -0.02513672 1.28583984 -0.02513672 2.59765625 -0.05078125 C5.38306626 0.38167807 6.27562507 1.07305542 7.9375 3.3125 C7.9375 3.9725 7.9375 4.6325 7.9375 5.3125 C8.9275 5.3125 9.9175 5.3125 10.9375 5.3125 C10.99187607 6.89544782 11.03046271 8.47894256 11.0625 10.0625 C11.08570313 10.94421875 11.10890625 11.8259375 11.1328125 12.734375 C10.92889502 15.4260858 10.30301721 17.01154974 8.9375 19.3125 C8.2775 19.3125 7.6175 19.3125 6.9375 19.3125 C6.6075 20.6325 6.2775 21.9525 5.9375 23.3125 C4.9475 23.3125 3.9575 23.3125 2.9375 23.3125 C2.9375 23.9725 2.9375 24.6325 2.9375 25.3125 C2.2775 25.3125 1.6175 25.3125 0.9375 25.3125 C0.9375 25.9725 0.9375 26.6325 0.9375 27.3125 C0.2775 27.3125 -0.3825 27.3125 -1.0625 27.3125 C-1.0625 27.9725 -1.0625 28.6325 -1.0625 29.3125 C-1.7225 29.3125 -2.3825 29.3125 -3.0625 29.3125 C-3.0625 29.9725 -3.0625 30.6325 -3.0625 31.3125 C-3.7225 31.3125 -4.3825 31.3125 -5.0625 31.3125 C-5.0625 31.9725 -5.0625 32.6325 -5.0625 33.3125 C-6.3825 32.9825 -7.7025 32.6525 -9.0625 32.3125 C-6.4225 30.0025 -3.7825 27.6925 -1.0625 25.3125 C-2.0525 25.6425 -3.0425 25.9725 -4.0625 26.3125 C-6.04612069 23.39541076 -6.0501191 22.18869096 -5.6875 18.5625 C-5.378125 16.95375 -5.378125 16.95375 -5.0625 15.3125 C-6.0525 14.9825 -7.0425 14.6525 -8.0625 14.3125 C-7.7325 12.9925 -7.4025 11.6725 -7.0625 10.3125 C-10.88347239 10.84319061 -13.12421403 11.80951566 -16.0625 14.3125 C-14.72999209 10.7249787 -13.231783 7.4760377 -11.0625 4.3125 C-10.4025 4.3125 -9.7425 4.3125 -9.0625 4.3125 C-9.0625 3.6525 -9.0625 2.9925 -9.0625 2.3125 C-5.94428643 0.4965566 -3.5974669 0.01627813 0 0 Z " fill="#E6FF7E" transform="translate(347.0625,19.6875)"/>
<path d="M0 0 C0.66 0.33 1.32 0.66 2 1 C2 6.61 2 12.22 2 18 C1.34 18 0.68 18 0 18 C0 19.98 0 21.96 0 24 C-0.66 24 -1.32 24 -2 24 C-2 25.32 -2 26.64 -2 28 C-2.66 28 -3.32 28 -4 28 C-4 28.66 -4 29.32 -4 30 C-4.66 30 -5.32 30 -6 30 C-6 30.66 -6 31.32 -6 32 C-6.66 32 -7.32 32 -8 32 C-8 32.66 -8 33.32 -8 34 C-9.32 34 -10.64 34 -12 34 C-12 34.66 -12 35.32 -12 36 C-14.64 36 -17.28 36 -20 36 C-20 36.66 -20 37.32 -20 38 C-19.34 38 -18.68 38 -18 38 C-18 38.66 -18 39.32 -18 40 C-16.68 40 -15.36 40 -14 40 C-14 40.66 -14 41.32 -14 42 C-13.34 42 -12.68 42 -12 42 C-12 42.66 -12 43.32 -12 44 C-11.34 44 -10.68 44 -10 44 C-10 44.66 -10 45.32 -10 46 C-9.34 46 -8.68 46 -8 46 C-8 46.66 -8 47.32 -8 48 C-7.34 48 -6.68 48 -6 48 C-6 48.66 -6 49.32 -6 50 C-5.34 50 -4.68 50 -4 50 C-4 50.66 -4 51.32 -4 52 C-3.34 52 -2.68 52 -2 52 C-2 53.32 -2 54.64 -2 56 C-1.34 56 -0.68 56 0 56 C0 56.66 0 57.32 0 58 C0.66 58 1.32 58 2 58 C2 58.66 2 59.32 2 60 C2.66 60 3.32 60 4 60 C4 61.32 4 62.64 4 64 C4.66 64 5.32 64 6 64 C6 64.66 6 65.32 6 66 C6.66 66 7.32 66 8 66 C8 67.98 8 69.96 8 72 C4.04907941 72.07409401 0.09842706 72.12857406 -3.85302734 72.16479492 C-5.85919374 72.18732251 -7.86516526 72.2254357 -9.87109375 72.26367188 C-11.12792969 72.27333984 -12.38476562 72.28300781 -13.6796875 72.29296875 C-14.84226074 72.3086792 -16.00483398 72.32438965 -17.20263672 72.34057617 C-18.1257666 72.22818604 -19.04889648 72.1157959 -20 72 C-20.66 71.01 -21.32 70.02 -22 69 C-21.67 68.01 -21.34 67.02 -21 66 C-20.34 66.99 -19.68 67.98 -19 69 C-16.41619823 69.25030977 -16.41619823 69.25030977 -14 69 C-13.67 67.35 -13.34 65.7 -13 64 C-11.515 63.505 -11.515 63.505 -10 63 C-8.75786953 60.97899623 -8.75786953 60.97899623 -7.8125 58.5625 C-7.29623047 57.35787109 -7.29623047 57.35787109 -6.76953125 56.12890625 C-5.88668624 54.06380415 -5.88668624 54.06380415 -6 52 C-7.9600281 50.36323743 -7.9600281 50.36323743 -10 49 C-9.67 50.32 -9.34 51.64 -9 53 C-9.66 53 -10.32 53 -11 53 C-11 52.01 -11 51.02 -11 50 C-11.8971875 49.9071875 -11.8971875 49.9071875 -12.8125 49.8125 C-15.85101353 48.68390926 -16.39370223 46.7237223 -18 44 C-18.99 44 -19.98 44 -21 44 C-22.125 38.375 -22.125 38.375 -21 35 C-19.04695301 34.50346263 -17.09177651 34.01323136 -15.125 33.57421875 C-9.1096256 31.94874074 -6.11908814 28.19633779 -3.078125 23.09765625 C-0.36803983 17.82477314 0.26253491 13.60679094 0.125 7.6875 C0.11597656 6.94693359 0.10695312 6.20636719 0.09765625 5.44335938 C0.07424213 3.62876533 0.03837615 1.81433929 0 0 Z " fill="#C18F0A" transform="translate(200,49)"/>
<path d="M0 0 C0.495 1.98 0.495 1.98 1 4 C0.34 4 -0.32 4 -1 4 C-1 5.32 -1 6.64 -1 8 C-1.66 8 -2.32 8 -3 8 C-3 8.66 -3 9.32 -3 10 C-3.66 10 -4.32 10 -5 10 C-5 10.66 -5 11.32 -5 12 C-5.66 12 -6.32 12 -7 12 C-7 12.66 -7 13.32 -7 14 C-7.66 14 -8.32 14 -9 14 C-9 14.66 -9 15.32 -9 16 C-9.66 16 -10.32 16 -11 16 C-11 16.66 -11 17.32 -11 18 C-11.66 18 -12.32 18 -13 18 C-13 18.66 -13 19.32 -13 20 C-14.32 20 -15.64 20 -17 20 C-17 20.66 -17 21.32 -17 22 C-18.32 22 -19.64 22 -21 22 C-21 22.66 -21 23.32 -21 24 C-21.66 24 -22.32 24 -23 24 C-23 24.66 -23 25.32 -23 26 C-24.98 26 -26.96 26 -29 26 C-29 26.66 -29 27.32 -29 28 C-33.1196377 29.29243536 -36.66831683 30.26252625 -41 30 C-41 30.66 -41 31.32 -41 32 C-41.66 32 -42.32 32 -43 32 C-43 33.32 -43 34.64 -43 36 C-43.66 36 -44.32 36 -45 36 C-45 38.64 -45 41.28 -45 44 C-45.66 44 -46.32 44 -47 44 C-47 46.64 -47 49.28 -47 52 C-49.64 52 -52.28 52 -55 52 C-56.98960773 48.6816923 -57.2361745 46.20040301 -57.1953125 42.359375 C-57.18886719 41.28945312 -57.18242188 40.21953125 -57.17578125 39.1171875 C-57.15902344 38.00601563 -57.14226562 36.89484375 -57.125 35.75 C-57.11597656 34.62335938 -57.10695312 33.49671875 -57.09765625 32.3359375 C-57.07410658 29.55707635 -57.0412168 26.7786461 -57 24 C-57.66 24 -58.32 24 -59 24 C-59 23.34 -59 22.68 -59 22 C-60.32 22 -61.64 22 -63 22 C-63 21.34 -63 20.68 -63 20 C-65.64 20 -68.28 20 -71 20 C-71 19.34 -71 18.68 -71 18 C-72.98 18 -74.96 18 -77 18 C-77 17.34 -77 16.68 -77 16 C-78.32 16 -79.64 16 -81 16 C-81 15.34 -81 14.68 -81 14 C-82.32 14 -83.64 14 -85 14 C-85 13.34 -85 12.68 -85 12 C-86.32 12 -87.64 12 -89 12 C-89 11.34 -89 10.68 -89 10 C-89.66 10 -90.32 10 -91 10 C-91 9.34 -91 8.68 -91 8 C-91.66 8 -92.32 8 -93 8 C-92.67 7.34 -92.34 6.68 -92 6 C-91.50113281 6.37511719 -91.00226563 6.75023438 -90.48828125 7.13671875 C-84.83633153 11.16512815 -79.15162419 13.68535663 -72.625 16.01953125 C-70 17 -70 17 -69 18 C-68.01 18.12375 -67.02 18.2475 -66 18.375 C-61.49551686 18.99051943 -57.07227645 19.9217928 -53 22 C-51.4375 24.6875 -51.4375 24.6875 -51 27 C-51.495 27.495 -51.495 27.495 -52 28 C-52.20912703 29.43193921 -52.36791979 30.87141054 -52.5 32.3125 C-52.77707425 35.30589146 -53.20340984 38.09908418 -54 41 C-51.0745356 41.2236068 -51.0745356 41.2236068 -49 40 C-48.67 40.66 -48.34 41.32 -48 42 C-47.82984375 41.40832031 -47.6596875 40.81664062 -47.484375 40.20703125 C-44.70697264 31.15092674 -44.70697264 31.15092674 -41 28 C-38.27205228 27.04586884 -35.54460776 26.34078903 -32.734375 25.66796875 C-20.81215586 22.75554093 -9.453989 15.02662533 -2.55078125 4.8671875 C-1.63544152 3.28059864 -0.80512732 1.64526017 0 0 Z " fill="#05530E" transform="translate(123,83)"/>
<path d="M0 0 C7.26 0 14.52 0 22 0 C22 0.66 22 1.32 22 2 C15.4 2 8.8 2 2 2 C1.67 31.37 1.34 60.74 1 91 C36.145 90.505 36.145 90.505 72 90 C72 75.48 72 60.96 72 46 C72.66 46 73.32 46 74 46 C74.33 44.68 74.66 43.36 75 42 C75.50336767 43.62395997 76.00258976 45.24920541 76.5 46.875 C76.7784375 47.77992187 77.056875 48.68484375 77.34375 49.6171875 C78 52 78 52 78 54 C77.34 54 76.68 54 76 54 C76 52.02 76 50.04 76 48 C75.34 48 74.68 48 74 48 C74 62.52 74 77.04 74 92 C49.58 92 25.16 92 0 92 C0 82.76 0 73.52 0 64 C-0.66 64 -1.32 64 -2 64 C-2 65.32 -2 66.64 -2 68 C-2.66 68 -3.32 68 -4 68 C-4.33 68.66 -4.66 69.32 -5 70 C-10.61 70 -16.22 70 -22 70 C-22 69.34 -22 68.68 -22 68 C-29.26 68 -36.52 68 -44 68 C-44.33 69.32 -44.66 70.64 -45 72 C-45.66 70.35 -46.32 68.7 -47 67 C-32.81 66.67 -18.62 66.34 -4 66 C-3.34 63.36 -2.68 60.72 -2 58 C-1.34 58 -0.68 58 0 58 C0 38.86 0 19.72 0 0 Z " fill="#171700" transform="translate(272,29)"/>
<path d="M0 0 C3.29613843 4.39485124 3.528614 7.02946016 3.6875 12.25 C3.72166016 12.97574219 3.75582031 13.70148438 3.79101562 14.44921875 C3.94900571 18.0668692 4.00733627 21.6721508 3.98046875 25.29296875 C3.99498793 28.04870858 4.135943 30.3840599 4.625 33.0625 C5.48036625 39.71795249 4.04805645 46.42582774 3 53 C3.66 53 4.32 53 5 53 C5.33 52.34 5.66 51.68 6 51 C7.65 51 9.3 51 11 51 C11.66 49.35 12.32 47.7 13 46 C13.99 46 14.98 46 16 46 C15.938125 44.88625 15.938125 44.88625 15.875 43.75 C16.00398134 40.91241048 16.57051222 39.41226062 18 37 C19.485 37.495 19.485 37.495 21 38 C19.74014744 45.25727568 18.13495792 49.99823476 12.19921875 54.5625 C3.88043478 60 3.88043478 60 0 60 C0 40.2 0 20.4 0 0 Z " fill="#FDBA0B" transform="translate(137,64)"/>
<path d="M0 0 C2.64 0 5.28 0 8 0 C8 0.66 8 1.32 8 2 C5.69 1.67 3.38 1.34 1 1 C1 14.86 1 28.72 1 43 C-19.3125 43.3125 -19.3125 43.3125 -25.71606445 43.38793945 C-27.39015956 43.42022315 -29.06423418 43.45359598 -30.73828125 43.48828125 C-31.60819702 43.49452515 -32.47811279 43.50076904 -33.37438965 43.50720215 C-34.20643921 43.52714233 -35.03848877 43.54708252 -35.89575195 43.56762695 C-36.97830009 43.58428154 -36.97830009 43.58428154 -38.0827179 43.60127258 C-40.54255178 44.11283174 -41.4261305 45.08282525 -43 47 C-43.97715609 48.80190614 -43.97715609 48.80190614 -44.6875 50.6875 C-45.120625 51.780625 -45.55375 52.87375 -46 54 C-46.33 54 -46.66 54 -47 54 C-47.33 55.98 -47.66 57.96 -48 60 C-31.17 60 -14.34 60 3 60 C3 60.33 3 60.66 3 61 C-14.16 61 -31.32 61 -49 61 C-49 54.07 -49 47.14 -49 40 C-48.01 39.505 -48.01 39.505 -47 39 C-47 39.99 -47 40.98 -47 42 C-40.46969546 40.80055631 -37.33271206 37.92533226 -33 33 C-32.67 33.99 -32.34 34.98 -32 36 C-32.66 36 -33.32 36 -34 36 C-34 36.66 -34 37.32 -34 38 C-34.66 38 -35.32 38 -36 38 C-36 38.66 -36 39.32 -36 40 C-36.66 40 -37.32 40 -38 40 C-38 40.66 -38 41.32 -38 42 C-25.46 42 -12.92 42 0 42 C0 28.14 0 14.28 0 0 Z " fill="#CDF72C" transform="translate(322,59)"/>
<path d="M0 0 C2.31 1.98 4.62 3.96 7 6 C5.89441342 8.21117316 4.73874636 10.38801489 3.5625 12.5625 C2.91474609 13.77099609 2.91474609 13.77099609 2.25390625 15.00390625 C1 17 1 17 -1 18 C-1.33 18.99 -1.66 19.98 -2 21 C0.97 21.33 3.94 21.66 7 22 C7 22.33 7 22.66 7 23 C4.58145554 23.13536629 2.17050217 23.23420279 -0.25 23.3125 C-0.93191406 23.35439453 -1.61382812 23.39628906 -2.31640625 23.43945312 C-6.11712131 23.53170349 -7.65520879 23.32457366 -10.46484375 20.6796875 C-12.28796814 17.49733806 -12.4014465 15.61301848 -12 12 C-11 10 -11 10 -9.0625 9.3125 C-7 9 -7 9 -5 10 C-4.9175 9.21625 -4.835 8.4325 -4.75 7.625 C-4 5 -4 5 -1.9375 3.6875 C-1.298125 3.460625 -0.65875 3.23375 0 3 C0 3.99 0 4.98 0 6 C0 4 0 2 0 0 Z " fill="#FEC213" transform="translate(189,96)"/>
<path d="M0 0 C0 14.52 0 29.04 0 44 C-0.66 44 -1.32 44 -2 44 C-2 47.96 -2 51.92 -2 56 C-2.66 56 -3.32 56 -4 56 C-4.495 58.475 -4.495 58.475 -5 61 C-5.33 60.34 -5.66 59.68 -6 59 C-5.69537842 58.27063232 -5.39075684 57.54126465 -5.0769043 56.78979492 C-3.79652585 53.47288617 -3.75693141 50.91421379 -3.76953125 47.36328125 C-3.77082031 46.07107666 -3.77210938 44.77887207 -3.7734375 43.44750977 C-3.78591582 42.06916816 -3.79894601 40.69083145 -3.8125 39.3125 C-3.81934657 37.91137856 -3.82585594 36.51025542 -3.83203125 35.10913086 C-3.89561764 25.05217589 -4.22962818 15.02859025 -5 5 C-7.49064888 4.31292445 -9.37886292 4 -12 4 C-12 3.01 -12 2.02 -12 1 C-7.915021 0.45533613 -4.1274515 0 0 0 Z " fill="#95A826" transform="translate(296,31)"/>
<path d="M0 0 C10.05859375 -0.09765625 10.05859375 -0.09765625 13 0 C13.33 0.33 13.66 0.66 14 1 C15.68183948 1.23287008 17.3712416 1.41264166 19.0625 1.5625 C19.98160156 1.64628906 20.90070312 1.73007812 21.84765625 1.81640625 C22.91306641 1.90728516 22.91306641 1.90728516 24 2 C24 2.66 24 3.32 24 4 C25.98 4 27.96 4 30 4 C30 4.66 30 5.32 30 6 C31.32 6 32.64 6 34 6 C34 6.66 34 7.32 34 8 C35.32 8 36.64 8 38 8 C38 8.66 38 9.32 38 10 C38.66 10 39.32 10 40 10 C40 10.66 40 11.32 40 12 C37.525 11.01 37.525 11.01 35 10 C35.495 10.495 35.495 10.495 36 11 C35.34 11.99 34.68 12.98 34 14 C32.35 13.34 30.7 12.68 29 12 C29 11.01 29 10.02 29 9 C28.34 8.67 27.68 8.34 27 8 C26.41734375 7.65195312 25.8346875 7.30390625 25.234375 6.9453125 C22.4394161 5.76282989 20.27309439 5.80302156 17.25 5.875 C16.26515625 5.89304687 15.2803125 5.91109375 14.265625 5.9296875 C13.51796875 5.95289063 12.7703125 5.97609375 12 6 C12.33 5.01 12.66 4.02 13 3 C9.7 2.67 6.4 2.34 3 2 C3.33 8.6 3.66 15.2 4 22 C3.34 22 2.68 22 2 22 C2 20.02 2 18.04 2 16 C1.34 16 0.68 16 0 16 C0 10.72 0 5.44 0 0 Z " fill="#0D5720" transform="translate(10,43)"/>
<path d="M0 0 C1.98 0 3.96 0 6 0 C5.67 0.66 5.34 1.32 5 2 C4.01 2 3.02 2 2 2 C2.33 3.32 2.66 4.64 3 6 C1.35 6.33 -0.3 6.66 -2 7 C-2.33 8.98 -2.66 10.96 -3 13 C-3.66 13 -4.32 13 -5 13 C-5 13.66 -5 14.32 -5 15 C-4.34 15 -3.68 15 -3 15 C-3 16.65 -3 18.3 -3 20 C0.24849977 18.27773504 0.24849977 18.27773504 1 15 C1.66 15 2.32 15 3 15 C3 15.66 3 16.32 3 17 C4.32 16.67 5.64 16.34 7 16 C9.42857143 22.28571429 9.42857143 22.28571429 8 26 C7.67 24.35 7.34 22.7 7 21 C2.87026372 21.56739868 2.87026372 21.56739868 -1 23 C0.38188453 26.21043882 1.92421903 28.04936365 4.625 30.25 C5.25664062 30.77078125 5.88828125 31.2915625 6.5390625 31.828125 C7.02117187 32.21484375 7.50328125 32.6015625 8 33 C6.02 33.495 6.02 33.495 4 34 C4 33.34 4 32.68 4 32 C3.34 32 2.68 32 2 32 C2 31.34 2 30.68 2 30 C1.34 30 0.68 30 0 30 C0 29.34 0 28.68 0 28 C-0.66 28 -1.32 28 -2 28 C-2 27.34 -2 26.68 -2 26 C-2.66 26 -3.32 26 -4 26 C-4 24.68 -4 23.36 -4 22 C-4.66 22 -5.32 22 -6 22 C-6 20.02 -6 18.04 -6 16 C-6.66 16 -7.32 16 -8 16 C-8 13.36 -8 10.72 -8 8 C-7.34 8 -6.68 8 -6 8 C-6 6.68 -6 5.36 -6 4 C-5.34 4 -4.68 4 -4 4 C-4 3.34 -4 2.68 -4 2 C-2.68 2 -1.36 2 0 2 C0 1.34 0 0.68 0 0 Z " fill="#40A38B" transform="translate(312,17)"/>
<path d="M0 0 C0.33 0 0.66 0 1 0 C1 30.69 1 61.38 1 93 C12.09057939 88.16482421 12.09057939 88.16482421 19.01171875 79.23828125 C19.23472656 78.27277344 19.45773438 77.30726562 19.6875 76.3125 C20.93055556 71.06944444 20.93055556 71.06944444 22 70 C22.23481693 67.81707226 22.41363323 65.62796826 22.5625 63.4375 C22.64628906 62.23996094 22.73007813 61.04242188 22.81640625 59.80859375 C22.90728516 58.41833984 22.90728516 58.41833984 23 57 C24.5 58.375 24.5 58.375 26 60 C26 60.66 26 61.32 26 62 C25.34 62 24.68 62 24 62 C24 65.3 24 68.6 24 72 C23.34 72 22.68 72 22 72 C22 74.64 22 77.28 22 80 C21.34 80 20.68 80 20 80 C20 81.32 20 82.64 20 84 C19.34 84 18.68 84 18 84 C18 84.66 18 85.32 18 86 C17.34 86 16.68 86 16 86 C16 86.66 16 87.32 16 88 C15.34 88 14.68 88 14 88 C14 88.66 14 89.32 14 90 C12.68 90 11.36 90 10 90 C10 90.66 10 91.32 10 92 C8.68 92 7.36 92 6 92 C6 92.66 6 93.32 6 94 C4.02 94 2.04 94 0 94 C0 62.98 0 31.96 0 0 Z " fill="#211100" transform="translate(136,31)"/>
<path d="M0 0 C5.94 0 11.88 0 18 0 C18 3.96 18 7.92 18 12 C17.34 12 16.68 12 16 12 C16.04125 12.763125 16.0825 13.52625 16.125 14.3125 C16 17 16 17 14 20 C13.34 20 12.68 20 12 20 C12.47550561 18.51965236 12.95551216 17.04074979 13.4375 15.5625 C13.70433594 14.73878906 13.97117188 13.91507813 14.24609375 13.06640625 C15 11 15 11 16 10 C16.23192865 8.48530552 16.41215238 6.96245438 16.5625 5.4375 C16.64628906 4.61121094 16.73007813 3.78492187 16.81640625 2.93359375 C16.90728516 1.97646484 16.90728516 1.97646484 17 1 C15.865625 1.639375 14.73125 2.27875 13.5625 2.9375 C9.66793637 4.90549758 6.34608646 5.47874892 2.03125 5.7890625 C-0.54891074 6.05700227 -2.62977609 6.97503831 -5 8 C-6.99883869 8.34022786 -8.99890722 8.67329097 -11 9 C-15.86784354 10.22103165 -15.86784354 10.22103165 -19 14 C-19.99 14 -20.98 14 -22 14 C-22 13.34 -22 12.68 -22 12 C-21.34 12 -20.68 12 -20 12 C-20 11.34 -20 10.68 -20 10 C-19.34 10 -18.68 10 -18 10 C-18 9.34 -18 8.68 -18 8 C-16.68 8 -15.36 8 -14 8 C-14 7.34 -14 6.68 -14 6 C-12.68 6 -11.36 6 -10 6 C-10 5.34 -10 4.68 -10 4 C-8.68 4 -7.36 4 -6 4 C-6 3.34 -6 2.68 -6 2 C-4.02 2 -2.04 2 0 2 C0 1.34 0 0.68 0 0 Z " fill="#02D534" transform="translate(112,63)"/>
<path d="M0 0 C0.66 0.33 1.32 0.66 2 1 C2 6.61 2 12.22 2 18 C1.34 18 0.68 18 0 18 C0 19.98 0 21.96 0 24 C-0.66 24 -1.32 24 -2 24 C-2 25.32 -2 26.64 -2 28 C-2.66 28 -3.32 28 -4 28 C-4 28.66 -4 29.32 -4 30 C-4.66 30 -5.32 30 -6 30 C-6 30.66 -6 31.32 -6 32 C-6.66 32 -7.32 32 -8 32 C-8 32.66 -8 33.32 -8 34 C-9.32 34 -10.64 34 -12 34 C-12 34.66 -12 35.32 -12 36 C-14.64 36 -17.28 36 -20 36 C-20 36.66 -20 37.32 -20 38 C-19.34 38 -18.68 38 -18 38 C-18 38.66 -18 39.32 -18 40 C-16.68 40 -15.36 40 -14 40 C-14 40.66 -14 41.32 -14 42 C-13.34 42 -12.68 42 -12 42 C-12 42.66 -12 43.32 -12 44 C-11.34 44 -10.68 44 -10 44 C-10 44.66 -10 45.32 -10 46 C-9.34 46 -8.68 46 -8 46 C-8 46.66 -8 47.32 -8 48 C-7.34 48 -6.68 48 -6 48 C-6 48.66 -6 49.32 -6 50 C-5.34 50 -4.68 50 -4 50 C-4 50.66 -4 51.32 -4 52 C-3.34 52 -2.68 52 -2 52 C-2.33 53.32 -2.66 54.64 -3 56 C-5.31 53.36 -7.62 50.72 -10 48 C-9.67 49.65 -9.34 51.3 -9 53 C-9.66 53 -10.32 53 -11 53 C-11 52.01 -11 51.02 -11 50 C-11.8971875 49.9071875 -11.8971875 49.9071875 -12.8125 49.8125 C-15.85101353 48.68390926 -16.39370223 46.7237223 -18 44 C-18.99 44 -19.98 44 -21 44 C-22.125 38.375 -22.125 38.375 -21 35 C-19.04695301 34.50346263 -17.09177651 34.01323136 -15.125 33.57421875 C-9.1096256 31.94874074 -6.11908814 28.19633779 -3.078125 23.09765625 C-0.36803983 17.82477314 0.26253491 13.60679094 0.125 7.6875 C0.11597656 6.94693359 0.10695312 6.20636719 0.09765625 5.44335938 C0.07424213 3.62876533 0.03837615 1.81433929 0 0 Z " fill="#5E4205" transform="translate(200,49)"/>
<path d="M0 0 C0.66 0 1.32 0 2 0 C2.05437607 1.58294782 2.09296271 3.16644256 2.125 4.75 C2.14820313 5.63171875 2.17140625 6.5134375 2.1953125 7.421875 C1.99139502 10.1135858 1.36551721 11.69904974 0 14 C-0.66 14 -1.32 14 -2 14 C-2.33 15.32 -2.66 16.64 -3 18 C-3.99 18 -4.98 18 -6 18 C-6 18.66 -6 19.32 -6 20 C-6.66 20 -7.32 20 -8 20 C-8 20.66 -8 21.32 -8 22 C-8.66 22 -9.32 22 -10 22 C-10 22.66 -10 23.32 -10 24 C-10.66 24 -11.32 24 -12 24 C-12 24.66 -12 25.32 -12 26 C-12.66 26 -13.32 26 -14 26 C-14 26.66 -14 27.32 -14 28 C-15.32 27.67 -16.64 27.34 -18 27 C-14.7 24.03 -11.4 21.06 -8 18 C-8.66 17.67 -9.32 17.34 -10 17 C-11.21999365 14.25501429 -10.9737638 12.89286887 -10.25 9.9375 C-9.08092877 7.1901826 -8.43186385 5.68359805 -6 4 C-4.68 4 -3.36 4 -2 4 C-1.34 2.68 -0.68 1.36 0 0 Z " fill="#AFBC66" transform="translate(356,25)"/>
<path d="M0 0 C1.99028232 3.69623859 4 7.74300779 4 12 C3.34 12 2.68 12 2 12 C2 10.02 2 8.04 2 6 C1.34 6 0.68 6 0 6 C0 20.52 0 35.04 0 50 C-24.42 50 -48.84 50 -74 50 C-74 41.42 -74 32.84 -74 24 C-73.67 24 -73.34 24 -73 24 C-73 32.25 -73 40.5 -73 49 C-37.855 48.505 -37.855 48.505 -2 48 C-2 33.48 -2 18.96 -2 4 C-1.34 4 -0.68 4 0 4 C0 2.68 0 1.36 0 0 Z " fill="#121300" transform="translate(346,71)"/>
<path d="M0 0 C1.05644983 10.56449828 -3.91814687 18.97483487 -10.34375 27.109375 C-13.38655968 30.58277095 -16.66085906 33.81340864 -20 37 C-20.99 36.67 -21.98 36.34 -23 36 C-22.25 34.0625 -22.25 34.0625 -21 32 C-20.38253906 31.85949219 -19.76507813 31.71898438 -19.12890625 31.57421875 C-15.27476978 30.53466267 -13.02287913 27.31272889 -11 24 C-11.15701426 21.38084878 -11.15701426 21.38084878 -12 19 C-11.0625 16.1875 -11.0625 16.1875 -10 14 C-8.35 14 -6.7 14 -5 14 C-5.2475 12.700625 -5.2475 12.700625 -5.5 11.375 C-5.97218548 8.18774801 -6.07655118 5.21514973 -6 2 C-2.25 0 -2.25 0 0 0 Z " fill="#09D933" transform="translate(129,64)"/>
<path d="M0 0 C0.495 1.98 0.495 1.98 1 4 C0.34 4 -0.32 4 -1 4 C-1 5.32 -1 6.64 -1 8 C-1.66 8 -2.32 8 -3 8 C-3 8.66 -3 9.32 -3 10 C-3.66 10 -4.32 10 -5 10 C-5 10.66 -5 11.32 -5 12 C-5.66 12 -6.32 12 -7 12 C-7 12.66 -7 13.32 -7 14 C-7.66 14 -8.32 14 -9 14 C-9 14.66 -9 15.32 -9 16 C-9.66 16 -10.32 16 -11 16 C-11 16.66 -11 17.32 -11 18 C-11.66 18 -12.32 18 -13 18 C-13 18.66 -13 19.32 -13 20 C-14.32 20 -15.64 20 -17 20 C-17 20.66 -17 21.32 -17 22 C-18.32 22 -19.64 22 -21 22 C-21 22.66 -21 23.32 -21 24 C-21.66 24 -22.32 24 -23 24 C-23 24.66 -23 25.32 -23 26 C-24.98 26 -26.96 26 -29 26 C-29 26.66 -29 27.32 -29 28 C-33.1196377 29.29243536 -36.66831683 30.26252625 -41 30 C-41 30.66 -41 31.32 -41 32 C-41.66 32 -42.32 32 -43 32 C-43 33.32 -43 34.64 -43 36 C-43.66 36 -44.32 36 -45 36 C-45 38.64 -45 41.28 -45 44 C-45.66 44 -46.32 44 -47 44 C-47 46.64 -47 49.28 -47 52 C-49.64 52 -52.28 52 -55 52 C-55.33 50.68 -55.66 49.36 -56 48 C-55.401875 48.33 -54.80375 48.66 -54.1875 49 C-51.94613529 50.20787988 -51.94613529 50.20787988 -49 50 C-48.91363281 49.154375 -48.82726562 48.30875 -48.73828125 47.4375 C-47.03079142 33.652261 -47.03079142 33.652261 -42 29 C-39.1953125 27.90625 -39.1953125 27.90625 -36 27 C-20.55399519 22.28381986 -8.07860016 14.45644239 0 0 Z " fill="#041704" transform="translate(123,83)"/>
<path d="M0 0 C1.32 0 2.64 0 4 0 C4 0.66 4 1.32 4 2 C4.66 2 5.32 2 6 2 C6 2.66 6 3.32 6 4 C7.32 4.66 8.64 5.32 10 6 C10 7.32 10 8.64 10 10 C11.32 10.33 12.64 10.66 14 11 C14 11.99 14 12.98 14 14 C14.66 14 15.32 14 16 14 C16 15.32 16 16.64 16 18 C16.66 18 17.32 18 18 18 C18 19.32 18 20.64 18 22 C18.66 22 19.32 22 20 22 C20 23.98 20 25.96 20 28 C20.66 28 21.32 28 22 28 C22 29.98 22 31.96 22 34 C22.66 34 23.32 34 24 34 C24 37.3 24 40.6 24 44 C24.66 44 25.32 44 26 44 C26 42.02 26 40.04 26 38 C26.66 38 27.32 38 28 38 C27.38461538 44.52307692 27.38461538 44.52307692 25.4375 46.9375 C24.963125 47.288125 24.48875 47.63875 24 48 C23.34 47.67 22.68 47.34 22 47 C21.5859375 44.71484375 21.5859375 44.71484375 21.375 41.9375 C21.30023438 41.01839844 21.22546875 40.09929687 21.1484375 39.15234375 C21.09945312 38.44207031 21.05046875 37.73179688 21 37 C20.67 37 20.34 37 20 37 C18.89771304 32.59085217 18.92345464 28.51617599 19 24 C18.01 24 17.02 24 16 24 C16 22.68 16 21.36 16 20 C15.01 19.67 14.02 19.34 13 19 C11.22176273 15.88808478 9.93695125 12.82031106 8.75 9.4375 C6.49575284 5.00951451 4.137493 3.65424079 0 1 C0 0.67 0 0.34 0 0 Z " fill="#0F521A" transform="translate(50,55)"/>
<path d="M0 0 C3.22384953 2.14923302 3.7851443 3.25642128 4.7265625 6.9140625 C5.21798881 10.66294321 4.62184312 14.29415114 4 18 C4.99 18.33 5.98 18.66 7 19 C5.02 19.99 3.04 20.98 1 22 C-0.98362069 19.08291076 -0.9876191 17.87619096 -0.625 14.25 C-0.315625 12.64125 -0.315625 12.64125 0 11 C-0.99 10.67 -1.98 10.34 -3 10 C-2.67 8.68 -2.34 7.36 -2 6 C-5.82097239 6.53069061 -8.06171403 7.49701566 -11 10 C-10.1875 7.5625 -10.1875 7.5625 -9 5 C-8.01 4.67 -7.02 4.34 -6 4 C-6 3.34 -6 2.68 -6 2 C-5.38125 1.855625 -4.7625 1.71125 -4.125 1.5625 C-1.96741678 1.06847775 -1.96741678 1.06847775 0 0 Z " fill="#ECFFA1" transform="translate(342,24)"/>
<path d="M0 0 C2.64 0 5.28 0 8 0 C8 0.66 8 1.32 8 2 C9.32 2 10.64 2 12 2 C12 2.66 12 3.32 12 4 C12.66 4 13.32 4 14 4 C14 4.66 14 5.32 14 6 C18.62 6 23.24 6 28 6 C28 6.66 28 7.32 28 8 C28.66 8 29.32 8 30 8 C29.67 9.32 29.34 10.64 29 12 C28.40832031 11.01966797 28.40832031 11.01966797 27.8046875 10.01953125 C26.18360889 7.79074212 26.18360889 7.79074212 23.6953125 7.57421875 C22.84710938 7.61160156 21.99890625 7.64898438 21.125 7.6875 C20.23296875 7.71972656 19.3409375 7.75195312 18.421875 7.78515625 C15.9462405 7.94587953 15.9462405 7.94587953 13.375 8.625 C10.2759726 9.11432012 7.99029754 8.32481847 5.00390625 7.48046875 C2.31118652 6.83484589 -0.24629507 6.86231475 -3 7 C-2.67 6.01 -2.34 5.02 -2 4 C-2.99 4.99 -3.98 5.98 -5 7 C-5.99 6.67 -6.98 6.34 -8 6 C-7.34 6 -6.68 6 -6 6 C-6 5.34 -6 4.68 -6 4 C-5.34 4 -4.68 4 -4 4 C-4 3.34 -4 2.68 -4 2 C-2.68 2 -1.36 2 0 2 C0 1.34 0 0.68 0 0 Z " fill="#5A9D36" transform="translate(326,13)"/>
<path d="M0 0 C1.77206192 0.00015919 3.54412846 0.00585754 5.31616211 0.01586914 C6.24698105 0.01728409 7.17779999 0.01869904 8.13682556 0.02015686 C11.12241777 0.02577367 14.10793615 0.03832899 17.09350586 0.05102539 C19.11238499 0.05603823 21.13126529 0.06060151 23.15014648 0.06469727 C28.11046158 0.07574856 33.07072118 0.09302444 38.03100586 0.11352539 C38.03100586 0.77352539 38.03100586 1.43352539 38.03100586 2.11352539 C40.01100586 2.11352539 41.99100586 2.11352539 44.03100586 2.11352539 C44.03100586 2.77352539 44.03100586 3.43352539 44.03100586 4.11352539 C45.35100586 4.11352539 46.67100586 4.11352539 48.03100586 4.11352539 C48.03100586 4.77352539 48.03100586 5.43352539 48.03100586 6.11352539 C46.21742432 5.63846861 44.40516407 5.15836497 42.59350586 4.67602539 C41.58416992 4.40918945 40.57483398 4.14235352 39.53491211 3.86743164 C37.03100586 3.11352539 37.03100586 3.11352539 36.03100586 2.11352539 C33.14666766 2.02487331 30.28638428 1.99831243 27.40209961 2.01586914 C26.5378688 2.01728409 25.673638 2.01869904 24.78321838 2.02015686 C22.01161294 2.025773 19.24008706 2.0383282 16.46850586 2.05102539 C14.59415806 2.05603831 12.71980901 2.06060158 10.84545898 2.06469727 C6.24061042 2.07574767 1.63582165 2.09302309 -2.96899414 2.11352539 C0.00100586 2.60852539 0.00100586 2.60852539 3.03100586 3.11352539 C2.70100586 3.77352539 2.37100586 4.43352539 2.03100586 5.11352539 C0.71100586 5.11352539 -0.60899414 5.11352539 -1.96899414 5.11352539 C-1.93418945 6.36649414 -1.89938477 7.61946289 -1.86352539 8.91040039 C-1.83538286 10.56142864 -1.8080832 12.2124714 -1.78149414 13.86352539 C-1.74378906 15.10102539 -1.74378906 15.10102539 -1.70532227 16.36352539 C-1.6956543 17.16274414 -1.68598633 17.96196289 -1.67602539 18.78540039 C-1.66031494 19.51855469 -1.64460449 20.25170898 -1.62841797 21.00708008 C-2.06134491 23.68470995 -3.22614126 25.07919192 -4.96899414 27.11352539 C-4.99785951 22.8010393 -5.01574669 18.48857777 -5.03149414 14.17602539 C-5.03987305 12.94432617 -5.04825195 11.71262695 -5.05688477 10.44360352 C-5.06010742 9.2737793 -5.06333008 8.10395508 -5.06665039 6.89868164 C-5.07188721 5.81466064 -5.07712402 4.73063965 -5.08251953 3.61376953 C-4.89525986 -0.51037313 -4.36227214 0.12477435 0 0 Z " fill="#916B07" transform="translate(141.968994140625,28.886474609375)"/>
<path d="M0 0 C3.3 0.99 6.6 1.98 10 3 C9.34 8.28 8.68 13.56 8 19 C6.35 18.67 4.7 18.34 3 18 C2.49645133 15.56318413 1.99703244 13.12564561 1.5 10.6875 C1.35691406 9.99720703 1.21382813 9.30691406 1.06640625 8.59570312 C0.47374956 5.67475227 0 2.98891878 0 0 Z " fill="#2FFFD1" transform="translate(319,31)"/>
<path d="M0 0 C2.64 0 5.28 0 8 0 C8 0.66 8 1.32 8 2 C5.69 1.67 3.38 1.34 1 1 C1 14.86 1 28.72 1 43 C-12.86 43 -26.72 43 -41 43 C-39.193388 39.38677599 -38.33581029 38.16251209 -35.375 35.75 C-34.42753906 34.96882813 -34.42753906 34.96882813 -33.4609375 34.171875 C-32.73777344 33.59179688 -32.73777344 33.59179688 -32 33 C-32 33.99 -32 34.98 -32 36 C-32.66 36 -33.32 36 -34 36 C-34 36.66 -34 37.32 -34 38 C-34.66 38 -35.32 38 -36 38 C-36 38.66 -36 39.32 -36 40 C-36.66 40 -37.32 40 -38 40 C-38 40.66 -38 41.32 -38 42 C-25.46 42 -12.92 42 0 42 C0 28.14 0 14.28 0 0 Z " fill="#2E231A" transform="translate(322,59)"/>
<path d="M0 0 C0.99 0 1.98 0 3 0 C4.81677701 5.33678246 5.70981463 10.35279828 5 16 C4.65710938 16.62003906 4.31421875 17.24007812 3.9609375 17.87890625 C2.62408956 20.82975352 3.02786916 23.05639624 3.375 26.25 C3.48585938 27.32765625 3.59671875 28.4053125 3.7109375 29.515625 C3.80632812 30.33546875 3.90171875 31.1553125 4 32 C3.34 32 2.68 32 2 32 C0 30 0 30 -0.22705078 27.01904297 C-0.21657715 25.77268066 -0.20610352 24.52631836 -0.1953125 23.2421875 C-0.1924826 22.57913605 -0.18965271 21.91608459 -0.18673706 21.23294067 C-0.17553435 19.11344417 -0.15043051 16.99436896 -0.125 14.875 C-0.11497028 13.43880818 -0.10584441 12.00260975 -0.09765625 10.56640625 C-0.075595 7.04413372 -0.04106494 3.52210797 0 0 Z " fill="#D3FF3C" transform="translate(273,69)"/>
<path d="M0 0 C0.66 0.33 1.32 0.66 2 1 C1.34 1.66 0.68 2.32 0 3 C1.010625 2.938125 2.02125 2.87625 3.0625 2.8125 C7.55499372 3.02642827 10.01085961 4.04613532 14 6 C14 8 14 8 12.6875 9.4375 C12.130625 9.953125 11.57375 10.46875 11 11 C10.443125 11.556875 9.88625 12.11375 9.3125 12.6875 C8.879375 13.120625 8.44625 13.55375 8 14 C7.67 13.34 7.34 12.68 7 12 C5.22539972 10.87316542 5.22539972 10.87316542 3.125 9.875 C2.42632812 9.52179687 1.72765625 9.16859375 1.0078125 8.8046875 C-1.10360353 7.81399334 -1.10360353 7.81399334 -4 8 C-3.50168276 4.31245243 -2.89932357 2.39509338 0 0 Z " fill="#74FF75" transform="translate(324,16)"/>
<path d="M0 0 C0.33 0.99 0.66 1.98 1 3 C1.57234375 2.78472656 2.1446875 2.56945312 2.734375 2.34765625 C5.74417351 1.88580786 6.77285691 2.74478556 9.25 4.4375 C9.95640625 4.91058594 10.6628125 5.38367188 11.390625 5.87109375 C11.92171875 6.24363281 12.4528125 6.61617187 13 7 C12.25 12.75 12.25 12.75 10 15 C10 14.34 10 13.68 10 13 C9.36191406 12.95101562 8.72382813 12.90203125 8.06640625 12.8515625 C7.24011719 12.77679688 6.41382813 12.70203125 5.5625 12.625 C4.73878906 12.55539063 3.91507812 12.48578125 3.06640625 12.4140625 C2.38449219 12.27742188 1.70257813 12.14078125 1 12 C-0.26237731 9.47524538 -0.09856404 7.68799534 -0.0625 4.875 C-0.05347656 3.96492188 -0.04445313 3.05484375 -0.03515625 2.1171875 C-0.02355469 1.41851563 -0.01195312 0.71984375 0 0 Z " fill="#3AFFC3" transform="translate(319,21)"/>
<path d="M0 0 C1.32 0 2.64 0 4 0 C4 0.66 4 1.32 4 2 C4.66 2 5.32 2 6 2 C8 5 8 5 8 8 C8.66 8 9.32 8 10 8 C11.17402193 15.33763707 11.09377123 22.58165418 11 30 C10.67 30 10.34 30 10 30 C10 28.35 10 26.7 10 25 C9.01 25.33 8.02 25.66 7 26 C6.88861841 20.54230189 7.08342019 15.38490641 8 10 C7.34 10 6.68 10 6 10 C5.67 9.01 5.34 8.02 5 7 C3.02 7 1.04 7 -1 7 C0.32 5.68 1.64 4.36 3 3 C2.01 2.01 1.02 1.02 0 0 Z " fill="#C59204" transform="translate(190,35)"/>
<path d="M0 0 C0.74886475 0.00523682 1.49772949 0.01047363 2.26928711 0.01586914 C3.07817383 0.0190918 3.88706055 0.02231445 4.72045898 0.02563477 C5.5705957 0.03401367 6.42073242 0.04239258 7.29663086 0.05102539 C8.15063477 0.05553711 9.00463867 0.06004883 9.88452148 0.06469727 C12.00108749 0.07652166 14.11761771 0.0944577 16.23413086 0.11352539 C16.23413086 0.77352539 16.23413086 1.43352539 16.23413086 2.11352539 C7.81913086 2.60852539 7.81913086 2.60852539 -0.76586914 3.11352539 C-0.43586914 4.10352539 -0.10586914 5.09352539 0.23413086 6.11352539 C1.15757519 11.98252716 1.37532036 17.28077906 0.23413086 23.11352539 C-0.09586914 22.45352539 -0.42586914 21.79352539 -0.76586914 21.11352539 C-1.42586914 21.11352539 -2.08586914 21.11352539 -2.76586914 21.11352539 C-2.79475061 17.80104352 -2.81262713 14.48859372 -2.82836914 11.17602539 C-2.83674805 10.23049805 -2.84512695 9.2849707 -2.85375977 8.31079102 C-2.85698242 7.41166992 -2.86020508 6.51254883 -2.86352539 5.58618164 C-2.86876221 4.75352783 -2.87399902 3.92087402 -2.87939453 3.06298828 C-2.73249873 0.54048725 -2.53044965 0.16267926 0 0 Z " fill="#D1F744" transform="translate(275.765869140625,29.886474609375)"/>
<path d="M0 0 C1.265625 2.50390625 1.265625 2.50390625 2.25 5.5625 C2.58515625 6.57441406 2.9203125 7.58632813 3.265625 8.62890625 C3.62914062 9.80259766 3.62914062 9.80259766 4 11 C3.01 11.495 3.01 11.495 2 12 C0.16015625 11.109375 0.16015625 11.109375 -1.9375 9.75 C-2.62714844 9.31171875 -3.31679688 8.8734375 -4.02734375 8.421875 C-5.88989851 7.07936028 -7.43205233 5.6711668 -9 4 C-8 1 -8 1 -6.1875 -0.25 C-3.52812542 -1.16178557 -2.56137799 -1.14338316 0 0 Z " fill="#81FFE0" transform="translate(319,38)"/>
<path d="M0 0 C1.98 0 3.96 0 6 0 C5.67 0.66 5.34 1.32 5 2 C4.01 2 3.02 2 2 2 C2.33 3.32 2.66 4.64 3 6 C1.35 6.33 -0.3 6.66 -2 7 C-2.33 8.98 -2.66 10.96 -3 13 C-3.66 13 -4.32 13 -5 13 C-4.67 15.97 -4.34 18.94 -4 22 C-4.66 22 -5.32 22 -6 22 C-6 20.02 -6 18.04 -6 16 C-6.66 16 -7.32 16 -8 16 C-8 13.36 -8 10.72 -8 8 C-7.34 8 -6.68 8 -6 8 C-6 6.68 -6 5.36 -6 4 C-5.34 4 -4.68 4 -4 4 C-4 3.34 -4 2.68 -4 2 C-2.68 2 -1.36 2 0 2 C0 1.34 0 0.68 0 0 Z " fill="#25946E" transform="translate(312,17)"/>
<path d="M0 0 C1.99028232 3.69623859 4 7.74300779 4 12 C3.34 12 2.68 12 2 12 C2 10.02 2 8.04 2 6 C1.34 6 0.68 6 0 6 C0 20.52 0 35.04 0 50 C-5.28 50 -10.56 50 -16 50 C-16 49.67 -16 49.34 -16 49 C-11.38 48.67 -6.76 48.34 -2 48 C-2 33.48 -2 18.96 -2 4 C-1.34 4 -0.68 4 0 4 C0 2.68 0 1.36 0 0 Z " fill="#020205" transform="translate(346,71)"/>
<path d="M0 0 C0.495 1.98 0.495 1.98 1 4 C0.34 4 -0.32 4 -1 4 C-1.33 4.66 -1.66 5.32 -2 6 C-7.61 6 -13.22 6 -19 6 C-19 5.34 -19 4.68 -19 4 C-26.26 4 -33.52 4 -41 4 C-41.33 5.32 -41.66 6.64 -42 8 C-42.66 6.35 -43.32 4.7 -44 3 C-29.81 2.67 -15.62 2.34 -1 2 C-0.67 1.34 -0.34 0.68 0 0 Z " fill="#15121B" transform="translate(269,93)"/>
<path d="M0 0 C6.93 0.495 6.93 0.495 14 1 C14 1.66 14 2.32 14 3 C15.32 3 16.64 3 18 3 C18 3.66 18 4.32 18 5 C19.32 5 20.64 5 22 5 C22 5.66 22 6.32 22 7 C22.66 7 23.32 7 24 7 C24 7.66 24 8.32 24 9 C22.35 8.34 20.7 7.68 19 7 C19.33 7.33 19.66 7.66 20 8 C19.01 9.485 19.01 9.485 18 11 C16.35 10.34 14.7 9.68 13 9 C13 8.01 13 7.02 13 6 C12.34 5.67 11.68 5.34 11 5 C10.071875 4.505 9.14375 4.01 8.1875 3.5 C5.36341283 2.1710178 3.06353781 1.45052027 0 1 C0 0.67 0 0.34 0 0 Z " fill="#0E8B2A" transform="translate(26,46)"/>
<path d="M0 0 C0.57374185 6.88490225 -0.5246131 11.02667877 -4 17 C-4.33 17 -4.66 17 -5 17 C-5.62529897 11.9752761 -6.13012092 7.07471573 -6 2 C-2.25 0 -2.25 0 0 0 Z " fill="#09D02F" transform="translate(129,64)"/>
<path d="M0 0 C2.86724686 0.57344937 3.8614515 0.8614515 6 3 C4.61482883 6.4340702 3.34555636 7.70022022 0 9.25 C-0.70125 9.58515625 -1.4025 9.9203125 -2.125 10.265625 C-4 11 -4 11 -6 11 C-5.8125 8.625 -5.8125 8.625 -5 6 C-2.4375 4.6875 -2.4375 4.6875 0 4 C0 2.68 0 1.36 0 0 Z " fill="#23F9CC" transform="translate(314,18)"/>
<path d="M0 0 C2.0625 0.4375 2.0625 0.4375 4 1 C3.01 1.33 2.02 1.66 1 2 C0.67 2.66 0.34 3.32 0 4 C-0.66 4 -1.32 4 -2 4 C-2 5.32 -2 6.64 -2 8 C-2.66 8 -3.32 8 -4 8 C-4 10.64 -4 13.28 -4 16 C-4.66 16 -5.32 16 -6 16 C-6 18.64 -6 21.28 -6 24 C-8.64 24 -11.28 24 -14 24 C-14.33 22.68 -14.66 21.36 -15 20 C-14.401875 20.33 -13.80375 20.66 -13.1875 21 C-10.94613529 22.20787988 -10.94613529 22.20787988 -8 22 C-7.91363281 21.154375 -7.82726562 20.30875 -7.73828125 19.4375 C-6.80312901 11.88764703 -5.53684827 5.53684827 0 0 Z " fill="#07270B" transform="translate(82,111)"/>
<path d="M0 0 C0.99 0.33 1.98 0.66 3 1 C3 2.32 3 3.64 3 5 C3.99 5 4.98 5 6 5 C6.66 10.61 7.32 16.22 8 22 C7.01 22.33 6.02 22.66 5 23 C4.34 21.68 3.68 20.36 3 19 C3.33 18.67 3.66 18.34 4 18 C4.57908641 12.44077045 3.34271378 8.89623855 0.875 3.91796875 C0 2 0 2 0 0 Z " fill="#05D332" transform="translate(63,74)"/>
<path d="M0 0 C2 1.5 2 1.5 3 3 C1.68 3 0.36 3 -1 3 C-1 2.34 -1 1.68 -1 1 C-2.98 1 -4.96 1 -7 1 C-7 1.66 -7 2.32 -7 3 C-8.32 3 -9.64 3 -11 3 C-11 3.66 -11 4.32 -11 5 C-11.66 5 -12.32 5 -13 5 C-13 6.32 -13 7.64 -13 9 C-7.06 9 -1.12 9 5 9 C5.33 8.34 5.66 7.68 6 7 C6 7.99 6 8.98 6 10 C-1.26 10 -8.52 10 -16 10 C-14 4 -14 4 -11.375 1.625 C-7.04581027 -0.45942469 -4.75857007 -0.54606542 0 0 Z " fill="#29222C" transform="translate(447,74)"/>
<path d="M0 0 C0.99 0.33 1.98 0.66 3 1 C2.67 4.63 2.34 8.26 2 12 C0.35 11.67 -1.3 11.34 -3 11 C-3.36923077 4.6 -3.36923077 4.6 -1.5 1.5625 C-1.005 1.046875 -0.51 0.53125 0 0 Z " fill="#39F8F9" transform="translate(325,38)"/>
<path d="M0 0 C1.32 0 2.64 0 4 0 C4.66 1.65 5.32 3.3 6 5 C5.67 5.33 5.34 5.66 5 6 C4.75653135 8.22277862 4.61672484 10.44424927 4.4765625 12.67578125 C4 15 4 15 1 19 C0.67 12.73 0.34 6.46 0 0 Z " fill="#14C035" transform="translate(66,105)"/>
<path d="M0 0 C0.66 0.33 1.32 0.66 2 1 C-0.625 5.875 -0.625 5.875 -4 7 C-4.1546875 8.918125 -4.1546875 8.918125 -4.3125 10.875 C-4.48828125 13.0546875 -4.48828125 13.0546875 -5 15 C-5.99 15.66 -6.98 16.32 -8 17 C-8.66 16.67 -9.32 16.34 -10 16 C-10 14.68 -10 13.36 -10 12 C-9.34 12 -8.68 12 -8 12 C-7.34 10.02 -6.68 8.04 -6 6 C-5.34 6 -4.68 6 -4 6 C-4 5.34 -4 4.68 -4 4 C-3.34 4 -2.68 4 -2 4 C-2 3.34 -2 2.68 -2 2 C-1.34 2 -0.68 2 0 2 C0 1.34 0 0.68 0 0 Z " fill="#0CA128" transform="translate(88,77)"/>
<path d="M0 0 C5.94 0 11.88 0 18 0 C18 3.96 18 7.92 18 12 C17.34 12 16.68 12 16 12 C16.04125 12.763125 16.0825 13.52625 16.125 14.3125 C16 17 16 17 14 20 C13.34 20 12.68 20 12 20 C12.47550561 18.51965236 12.95551216 17.04074979 13.4375 15.5625 C13.70433594 14.73878906 13.97117187 13.91507813 14.24609375 13.06640625 C15 11 15 11 16 10 C16.23192865 8.48530552 16.41215238 6.96245438 16.5625 5.4375 C16.706875 3.973125 16.85125 2.50875 17 1 C8.585 1.495 8.585 1.495 0 2 C0 1.34 0 0.68 0 0 Z " fill="#061203" transform="translate(112,63)"/>
<path d="M0 0 C2.97 1.65 5.94 3.3 9 5 C8.25 10.75 8.25 10.75 6 13 C5.814375 11.9275 5.62875 10.855 5.4375 9.75 C4.76923865 7.30960856 4.3033734 6.2431191 2.30859375 4.64453125 C0.58340249 3.67912119 -1.20599015 2.83056012 -3 2 C-2.01 1.34 -1.02 0.68 0 0 Z " fill="#55FF9B" transform="translate(323,23)"/>
<path d="M0 0 C0.66 0.33 1.32 0.66 2 1 C1.34 2.32 0.68 3.64 0 5 C1.32 5.33 2.64 5.66 4 6 C4 6.66 4 7.32 4 8 C4.639375 8.2475 5.27875 8.495 5.9375 8.75 C8 10 8 10 8.62890625 12.078125 C8.81259766 13.02945312 8.81259766 13.02945312 9 14 C8.39671875 13.566875 7.7934375 13.13375 7.171875 12.6875 C6.37265625 12.130625 5.5734375 11.57375 4.75 11 C3.96109375 10.443125 3.1721875 9.88625 2.359375 9.3125 C-0.13261083 7.67591051 -0.13261083 7.67591051 -4 8 C-3.50168276 4.31245243 -2.89932357 2.39509338 0 0 Z " fill="#60FF8D" transform="translate(324,16)"/>
<path d="M0 0 C12.87 0 25.74 0 39 0 C39 0.33 39 0.66 39 1 C37.02 1 35.04 1 33 1 C33 1.66 33 2.32 33 3 C32.01 3 31.02 3 30 3 C30 2.34 30 1.68 30 1 C20.1 1 10.2 1 0 1 C0 0.67 0 0.34 0 0 Z " fill="#FBB103" transform="translate(139,30)"/>
<path d="M0 0 C2.64 0 5.28 0 8 0 C8 0.66 8 1.32 8 2 C5.69 1.67 3.38 1.34 1 1 C1.33 2.32 1.66 3.64 2 5 C3.32 5.33 4.64 5.66 6 6 C1.545 6.495 1.545 6.495 -3 7 C-2.67 6.01 -2.34 5.02 -2 4 C-2.99 4.99 -3.98 5.98 -5 7 C-5.99 6.67 -6.98 6.34 -8 6 C-7.34 6 -6.68 6 -6 6 C-6 5.34 -6 4.68 -6 4 C-5.34 4 -4.68 4 -4 4 C-4 3.34 -4 2.68 -4 2 C-2.68 2 -1.36 2 0 2 C0 1.34 0 0.68 0 0 Z " fill="#3F8B35" transform="translate(326,13)"/>
<path d="M0 0 C1.32 0 2.64 0 4 0 C4 1.32 4 2.64 4 4 C6.97 4.33 9.94 4.66 13 5 C13 5.33 13 5.66 13 6 C10.54137599 6.05383848 8.0839245 6.09359038 5.625 6.125 C4.57699219 6.15013672 4.57699219 6.15013672 3.5078125 6.17578125 C1.67102514 6.19344267 -0.16601963 6.10303261 -2 6 C-2.66 5.34 -3.32 4.68 -4 4 C-3.67 3.01 -3.34 2.02 -3 1 C-2.34 1 -1.68 1 -1 1 C-0.67 0.67 -0.34 0.34 0 0 Z " fill="#FFCA25" transform="translate(183,113)"/>
<path d="M0 0 C1.98 0 3.96 0 6 0 C5.38125 0.0825 4.7625 0.165 4.125 0.25 C1.30359277 1.24579079 1.30163889 2.37322693 0 5 C-1.62109375 6.88671875 -1.62109375 6.88671875 -3.4375 8.6875 C-4.03433594 9.28949219 -4.63117188 9.89148438 -5.24609375 10.51171875 C-7 12 -7 12 -10 13 C-10 12.01 -10 11.02 -10 10 C-9.34 10 -8.68 10 -8 10 C-8 9.34 -8 8.68 -8 8 C-7.34 8 -6.68 8 -6 8 C-6 7.34 -6 6.68 -6 6 C-5.34 6 -4.68 6 -4 6 C-4 5.34 -4 4.68 -4 4 C-3.34 4 -2.68 4 -2 4 C-2 3.34 -2 2.68 -2 2 C-1.34 2 -0.68 2 0 2 C0 1.34 0 0.68 0 0 Z " fill="#69676B" transform="translate(396,61)"/>
<path d="M0 0 C3.38115651 -0.29036649 6.62919149 -0.44908891 10 0 C12.625 2.5 12.625 2.5 14 5 C13.34 6.32 12.68 7.64 12 9 C11.34 8.01 10.68 7.02 10 6 C8.34738161 4.97695052 6.68208635 3.97383946 5 3 C5 2.67 5 2.34 5 2 C3.35 1.67 1.7 1.34 0 1 C0 0.67 0 0.34 0 0 Z " fill="#D5F555" transform="translate(342,20)"/>
<path d="M0 0 C1.32 0.33 2.64 0.66 4 1 C1.62475751 3.75028078 -0.6159924 4.76194844 -4 6 C-7.16017258 7.2899714 -7.16017258 7.2899714 -9 10 C-9.99 10 -10.98 10 -12 10 C-12 9.34 -12 8.68 -12 8 C-11.34 8 -10.68 8 -10 8 C-10 7.34 -10 6.68 -10 6 C-9.34 6 -8.68 6 -8 6 C-8 5.34 -8 4.68 -8 4 C-6.68 4 -5.36 4 -4 4 C-4 3.34 -4 2.68 -4 2 C-2.68 2 -1.36 2 0 2 C0 1.34 0 0.68 0 0 Z " fill="#0B5B1E" transform="translate(102,67)"/>
<path d="M0 0 C0.66 0 1.32 0 2 0 C2.05437607 1.58294782 2.09296271 3.16644256 2.125 4.75 C2.14820313 5.63171875 2.17140625 6.5134375 2.1953125 7.421875 C1.99139502 10.1135858 1.36551721 11.69904974 0 14 C-0.66 14 -1.32 14 -2 14 C-2.05437607 12.41705218 -2.09296271 10.83355744 -2.125 9.25 C-2.14820313 8.36828125 -2.17140625 7.4865625 -2.1953125 6.578125 C-1.99139502 3.8864142 -1.36551721 2.30095026 0 0 Z " fill="#6F8125" transform="translate(356,25)"/>
<path d="M0 0 C2.56326494 1.28163247 2.82416059 2.42785129 4 5 C4.37125 5.7425 4.7425 6.485 5.125 7.25 C5.41375 7.8275 5.7025 8.405 6 9 C4.02 9.66 2.04 10.32 0 11 C0 7.37 0 3.74 0 0 Z " fill="#F5A609" transform="translate(137,113)"/>
<path d="M0 0 C1.32 0 2.64 0 4 0 C4 0.66 4 1.32 4 2 C4.66 2 5.32 2 6 2 C8.1519437 5.22791555 8.20086443 6.28400809 8 10 C7.34 10 6.68 10 6 10 C5.67 9.01 5.34 8.02 5 7 C3.02 7 1.04 7 -1 7 C0.32 5.68 1.64 4.36 3 3 C2.01 2.01 1.02 1.02 0 0 Z " fill="#936A09" transform="translate(190,35)"/>
<path d="M0 0 C0.66 0 1.32 0 2 0 C0.46356148 3.68069887 -1.78150945 5.98775204 -4.625 8.75 C-5.85089844 9.94882813 -5.85089844 9.94882813 -7.1015625 11.171875 C-7.72804688 11.77515625 -8.35453125 12.3784375 -9 13 C-9.99 12.67 -10.98 12.34 -12 12 C-11.25 10.0625 -11.25 10.0625 -10 8 C-9.06800781 7.79890625 -9.06800781 7.79890625 -8.1171875 7.59375 C-5.39200506 6.82949219 -4.58512317 5.6534973 -2.875 3.4375 C-1.3671875 1.49609375 -1.3671875 1.49609375 0 0 Z " fill="#1BCF36" transform="translate(118,88)"/>
<path d="M0 0 C5.79782471 2.44573251 9.28685474 4.89442527 13 10 C8.10811588 8.18301447 3.38954562 6.10313418 0 2 C0 1.34 0 0.68 0 0 Z " fill="#C1FFEA" transform="translate(310,40)"/>
<path d="M0 0 C0.144375 0.598125 0.28875 1.19625 0.4375 1.8125 C0.8872439 3.56150404 1.42892341 5.28677023 2 7 C4.00016466 8.20882096 4.00016466 8.20882096 6 9 C4.02 9.99 2.04 10.98 0 12 C-1.95143115 9.13024831 -1.98930952 7.87385237 -1.6875 4.3125 C-1 1 -1 1 0 0 Z " fill="#F4FFBA" transform="translate(343,34)"/>
<path d="M0 0 C1.98 0 3.96 0 6 0 C5.67 0.66 5.34 1.32 5 2 C4.01 2 3.02 2 2 2 C2.33 3.32 2.66 4.64 3 6 C1.68 6.33 0.36 6.66 -1 7 C-1 6.01 -1 5.02 -1 4 C-2.65 5.32 -4.3 6.64 -6 8 C-6 6.68 -6 5.36 -6 4 C-5.34 4 -4.68 4 -4 4 C-4 3.34 -4 2.68 -4 2 C-2.68 2 -1.36 2 0 2 C0 1.34 0 0.68 0 0 Z " fill="#09715B" transform="translate(312,17)"/>
<path d="M0 0 C1.4540625 0.0309375 1.4540625 0.0309375 2.9375 0.0625 C2.2775 0.7225 1.6175 1.3825 0.9375 2.0625 C2.9175 3.3825 4.8975 4.7025 6.9375 6.0625 C6.6075 7.3825 6.2775 8.7025 5.9375 10.0625 C5.545625 9.44375 5.15375 8.825 4.75 8.1875 C2.66032509 5.73753632 0.96286673 5.04370002 -2.0625 4.0625 C-2.0625 3.4025 -2.0625 2.7425 -2.0625 2.0625 C-2.7225 1.7325 -3.3825 1.4025 -4.0625 1.0625 C-3.0625 0.0625 -3.0625 0.0625 0 0 Z " fill="#E1FF69" transform="translate(347.0625,20.9375)"/>
<path d="M0 0 C8.25 0 16.5 0 25 0 C25 0.33 25 0.66 25 1 C17.74 1 10.48 1 3 1 C2.67 2.32 2.34 3.64 2 5 C1.34 3.35 0.68 1.7 0 0 Z " fill="#100D14" transform="translate(225,96)"/>
<path d="M0 0 C0.33 0 0.66 0 1 0 C1 2.64 1 5.28 1 8 C1.99 8 2.98 8 4 8 C4 6.02 4 4.04 4 2 C4.66 2 5.32 2 6 2 C5.38461538 8.52307692 5.38461538 8.52307692 3.4375 10.9375 C2.963125 11.288125 2.48875 11.63875 2 12 C1.34 11.67 0.68 11.34 0 11 C0 7.37 0 3.74 0 0 Z " fill="#157723" transform="translate(72,91)"/>
<path d="M0 0 C0.33 0 0.66 0 1 0 C1 5.28 1 10.56 1 16 C0.67 15.34 0.34 14.68 0 14 C-0.99 13.67 -1.98 13.34 -3 13 C-2.67 11.35 -2.34 9.7 -2 8 C-1.34 8 -0.68 8 0 8 C0 5.36 0 2.72 0 0 Z " fill="#34310C" transform="translate(272,79)"/>
<path d="M0 0 C0.33 0.66 0.66 1.32 1 2 C3.02463255 2.65213292 3.02463255 2.65213292 5 3 C4.67 5.64 4.34 8.28 4 11 C1.73030256 8.73030256 1.00868171 7.02604513 0 4 C0 2.68 0 1.36 0 0 Z " fill="#13D941" transform="translate(13,59)"/>
<path d="M0 0 C4.29 0 8.58 0 13 0 C13 0.66 13 1.32 13 2 C9.04 2.66 5.08 3.32 1 4 C1.33 3.01 1.66 2.02 2 1 C1.34 0.67 0.68 0.34 0 0 Z " fill="#0C832D" transform="translate(21,45)"/>
<path d="M0 0 C0.33 0.99 0.66 1.98 1 3 C0.34 3 -0.32 3 -1 3 C-1 3.66 -1 4.32 -1 5 C-1.66 5 -2.32 5 -3 5 C-3 5.66 -3 6.32 -3 7 C-3.66 7 -4.32 7 -5 7 C-5 7.66 -5 8.32 -5 9 C-3.68 9.33 -2.36 9.66 -1 10 C-3.31 10 -5.62 10 -8 10 C-6.34908222 5.70761377 -3.26245434 3.1206085 0 0 Z " fill="#282401" transform="translate(289,92)"/>
<path d="M0 0 C-1.78810766 0.69670416 -3.58062052 1.38211189 -5.375 2.0625 C-6.37273437 2.44535156 -7.37046875 2.82820313 -8.3984375 3.22265625 C-11 4 -11 4 -13 3 C-12.67 2.01 -12.34 1.02 -12 0 C-3.96428571 -1.20535714 -3.96428571 -1.20535714 0 0 Z " fill="#139636" transform="translate(118,65)"/>
<path d="M0 0 C0.66 0.33 1.32 0.66 2 1 C2 1.99 2 2.98 2 4 C-3.14285714 8 -3.14285714 8 -7 8 C-6.67 7.01 -6.34 6.02 -6 5 C-5.01 5 -4.02 5 -3 5 C-2.690625 4.360625 -2.38125 3.72125 -2.0625 3.0625 C-1 1 -1 1 0 0 Z " fill="#17D43B" transform="translate(96,72)"/>
<path d="M0 0 C1.32 0.33 2.64 0.66 4 1 C3.34 1 2.68 1 2 1 C1.79375 1.556875 1.5875 2.11375 1.375 2.6875 C-0.55000774 5.92501302 -3.03850902 7.68231141 -6 10 C-5.34 8.02 -4.68 6.04 -4 4 C-3.34 4 -2.68 4 -2 4 C-2 3.34 -2 2.68 -2 2 C-1.34 2 -0.68 2 0 2 C0 1.34 0 0.68 0 0 Z " fill="#6D6B6C" transform="translate(212,65)"/>
<path d="M0 0 C0.66 1.32 1.32 2.64 2 4 C-0.17424117 6.50037734 -1.73045798 7.43628586 -5 8 C-4.67 6.68 -4.34 5.36 -4 4 C-3.01 4 -2.02 4 -1 4 C-0.67 2.68 -0.34 1.36 0 0 Z " fill="#FDBD0B" transform="translate(195,70)"/>
<path d="M0 0 C-0.33 0.99 -0.66 1.98 -1 3 C-1.99 3.33 -2.98 3.66 -4 4 C-5.21869929 6.50447516 -5.21869929 6.50447516 -6 9 C-6.33 9 -6.66 9 -7 9 C-7.33 6.69 -7.66 4.38 -8 2 C-2.25 0 -2.25 0 0 0 Z " fill="#2BFFE3" transform="translate(328,36)"/>
<path d="M0 0 C0.66 0 1.32 0 2 0 C2 1.65 2 3.3 2 5 C3.98 4.67 5.96 4.34 8 4 C8 4.66 8 5.32 8 6 C6.02 6.99 4.04 7.98 2 9 C0.14223235 5.86501708 -0.20140476 3.62528568 0 0 Z " fill="#78F4D1" transform="translate(307,32)"/>
<path d="M0 0 C-0.99 0 -1.98 0 -3 0 C-2.67 0.99 -2.34 1.98 -2 3 C-3.875 4.0625 -3.875 4.0625 -6 5 C-6.66 4.67 -7.32 4.34 -8 4 C-8 4.66 -8 5.32 -8 6 C-8.66 5.67 -9.32 5.34 -10 5 C-9.34 4.01 -8.68 3.02 -8 2 C-7.34 2 -6.68 2 -6 2 C-6 1.34 -6 0.68 -6 0 C-3.50907189 -1.24546405 -2.58919267 -0.7767578 0 0 Z " fill="#D8FF89" transform="translate(344,22)"/>
<path d="M0 0 C0 2.97 0 5.94 0 9 C-0.99 9.495 -0.99 9.495 -2 10 C-2.33 7.69 -2.66 5.38 -3 3 C-3.99 2.67 -4.98 2.34 -6 2 C-2.25 0 -2.25 0 0 0 Z " fill="#18B91D" transform="translate(129,64)"/>
<path d="M0 0 C0.66 0.33 1.32 0.66 2 1 C0.68 2.65 -0.64 4.3 -2 6 C-3.98 5.34 -5.96 4.68 -8 4 C-8 3.34 -8 2.68 -8 2 C-5.36 2 -2.72 2 0 2 C0 1.34 0 0.68 0 0 Z " fill="#DEFF44" transform="translate(320,102)"/>
<path d="M0 0 C0.99 0.99 1.98 1.98 3 3 C3 3.66 3 4.32 3 5 C2.34 5 1.68 5 1 5 C1 8.3 1 11.6 1 15 C0.34 15 -0.32 15 -1 15 C-0.67 10.05 -0.34 5.1 0 0 Z " fill="#0E0906" transform="translate(159,88)"/>
<path d="M0 0 C0.33 0 0.66 0 1 0 C1.33 3.63 1.66 7.26 2 11 C-0.475 12.485 -0.475 12.485 -3 14 C-3.33 13.34 -3.66 12.68 -4 12 C-3.34 12 -2.68 12 -2 12 C-2 11.34 -2 10.68 -2 10 C-1.34 10 -0.68 10 0 10 C0 6.7 0 3.4 0 0 Z " fill="#563A07" transform="translate(178,55)"/>
<path d="M0 0 C1.27875 0.103125 2.5575 0.20625 3.875 0.3125 C4.95394531 0.39951172 4.95394531 0.39951172 6.0546875 0.48828125 C8 1 8 1 10 4 C9.67 4.99 9.34 5.98 9 7 C7.53515625 5.76302083 6.0703125 4.52604167 4.60546875 3.2890625 C3.1344954 2.10798901 1.56962206 1.04641471 0 0 Z " fill="#9AFFE7" transform="translate(312,41)"/>
<path d="M0 0 C1.32 0.33 2.64 0.66 4 1 C3.34 1 2.68 1 2 1 C1.7525 1.61875 1.505 2.2375 1.25 2.875 C-0.20628639 5.35068687 -1.37812506 5.95125002 -4 7 C-4 6.01 -4 5.02 -4 4 C-3.34 4 -2.68 4 -2 4 C-2 3.34 -2 2.68 -2 2 C-1.34 2 -0.68 2 0 2 C0 1.34 0 0.68 0 0 Z " fill="#615D61" transform="translate(418,65)"/>
<path d="M0 0 C0 1.65 0 3.3 0 5 C-1.32 5.33 -2.64 5.66 -4 6 C-4 5.34 -4 4.68 -4 4 C-4.66 4 -5.32 4 -6 4 C-4.63772207 1.27544414 -3.11734545 0 0 0 Z " fill="#4DFFD3" transform="translate(319,28)"/>
<path d="M0 0 C3.96 1.98 3.96 1.98 8 4 C8 4.66 8 5.32 8 6 C5.36 5.34 2.72 4.68 0 4 C0 2.68 0 1.36 0 0 Z " fill="#42FFAE" transform="translate(320,25)"/>
<path d="M0 0 C0.66 0.33 1.32 0.66 2 1 C1.690625 1.598125 1.38125 2.19625 1.0625 2.8125 C-0.10209704 5.08956772 -0.10209704 5.08956772 -1 8 C-1.99 8 -2.98 8 -4 8 C-3.50168276 4.31245243 -2.89932357 2.39509338 0 0 Z " fill="#77FD8B" transform="translate(324,16)"/>
<path d="M0 0 C0.66 0.33 1.32 0.66 2 1 C0.41641358 4.16717283 -0.45263699 5.73268318 -3.6875 7.3125 C-4.450625 7.539375 -5.21375 7.76625 -6 8 C-6 7.34 -6 6.68 -6 6 C-5.34 6 -4.68 6 -4 6 C-4 5.34 -4 4.68 -4 4 C-3.34 4 -2.68 4 -2 4 C-2 3.34 -2 2.68 -2 2 C-1.34 2 -0.68 2 0 2 C0 1.34 0 0.68 0 0 Z " fill="#0C5B1B" transform="translate(88,77)"/>
<path d="M0 0 C0.33 0 0.66 0 1 0 C1 3.3 1 6.6 1 10 C0.01 10 -0.98 10 -2 10 C-2.1953125 3.9453125 -2.1953125 3.9453125 -2 2 C-1.34 1.34 -0.68 0.68 0 0 Z " fill="#C3EF23" transform="translate(292,75)"/>
<path d="M0 0 C1.99028232 3.69623859 4 7.74300779 4 12 C3.34 12 2.68 12 2 12 C2 10.02 2 8.04 2 6 C0.68 6 -0.64 6 -2 6 C-2 5.34 -2 4.68 -2 4 C-1.34 4 -0.68 4 0 4 C0 2.68 0 1.36 0 0 Z " fill="#1D1A1D" transform="translate(346,71)"/>
<path d="M0 0 C0.66 0 1.32 0 2 0 C1.67 3.3 1.34 6.6 1 10 C-0.87376865 6.2524627 -1.3214079 4.96403081 -1 1 C-0.67 0.67 -0.34 0.34 0 0 Z " fill="#F4BC09" transform="translate(198,60)"/>
<path d="M0 0 C0.33 0 0.66 0 1 0 C1.33 3.3 1.66 6.6 2 10 C0.68 10.33 -0.64 10.66 -2 11 C-2.66 10.01 -3.32 9.02 -4 8 C-2.68 8 -1.36 8 0 8 C0 5.36 0 2.72 0 0 Z " fill="#BDF8F9" transform="translate(327,42)"/>
<path d="M0 0 C0.66 1.32 1.32 2.64 2 4 C1.01 4.495 1.01 4.495 0 5 C-2.35981813 4.06421005 -4.69631264 3.06652192 -7 2 C-7 1.67 -7 1.34 -7 1 C-3.535 0.505 -3.535 0.505 0 0 Z " fill="#17CE34" transform="translate(47,94)"/>
<path d="M0 0 C0.66 0 1.32 0 2 0 C2 1.32 2 2.64 2 4 C2.66 4 3.32 4 4 4 C4 5.98 4 7.96 4 10 C3.67 8.68 3.34 7.36 3 6 C2.01 6 1.02 6 0 6 C0 4.02 0 2.04 0 0 Z " fill="#103812" transform="translate(66,73)"/>
<path d="M0 0 C2.8125 -0.25 2.8125 -0.25 6 0 C7.875 2 7.875 2 9 4 C8.67 4.66 8.34 5.32 8 6 C6.66402348 5.19185349 5.331275 4.37836819 4 3.5625 C3.2575 3.11003906 2.515 2.65757813 1.75 2.19140625 C1.1725 1.79824219 0.595 1.40507812 0 1 C0 0.67 0 0.34 0 0 Z " fill="#68FF77" transform="translate(323,20)"/>
<path d="M0 0 C0.598125 0.33 1.19625 0.66 1.8125 1 C4.05386471 2.20787988 4.05386471 2.20787988 7 2 C7.66 1.34 8.32 0.68 9 0 C9 1.32 9 2.64 9 4 C6.36 4 3.72 4 1 4 C0.67 2.68 0.34 1.36 0 0 Z " fill="#041904" transform="translate(67,131)"/>
<path d="M0 0 C2 2 2 2 2.1953125 3.9453125 C2.13020833 5.96354167 2.06510417 7.98177083 2 10 C1.67 10 1.34 10 1 10 C1 8.02 1 6.04 1 4 C0.01 4.33 -0.98 4.66 -2 5 C-2 2 -2 2 0 0 Z " fill="#03BB26" transform="translate(73,123)"/>
<path d="M0 0 C1.98 0 3.96 0 6 0 C6.33 0.66 6.66 1.32 7 2 C4.69 2.66 2.38 3.32 0 4 C0 2.68 0 1.36 0 0 Z " fill="#00DC30" transform="translate(27,48)"/>
<path d="M0 0 C1.32 0 2.64 0 4 0 C3.25 4.75 3.25 4.75 1 7 C0.67 4.69 0.34 2.38 0 0 Z " fill="#5EFFB6" transform="translate(328,29)"/>
<path d="M0 0 C2.97 0.99 5.94 1.98 9 3 C9 3.66 9 4.32 9 5 C6.03 4.01 3.06 3.02 0 2 C0 1.34 0 0.68 0 0 Z " fill="#7AFF61" transform="translate(329,19)"/>
<path d="M0 0 C1.98 1.65 3.96 3.3 6 5 C4.68 5.33 3.36 5.66 2 6 C2 5.34 2 4.68 2 4 C1.34 4 0.68 4 0 4 C0 2.68 0 1.36 0 0 Z " fill="#091709" transform="translate(24,83)"/>
</svg>
