<?xml version="1.0" encoding="UTF-8"?>
<svg version="1.1" xmlns="http://www.w3.org/2000/svg" width="376" height="388">
<path d="M0 0 C39.42122214 -1.50654352 86.37091369 8.98103735 118 34 C118 34.66 118 35.32 118 36 C118.69351563 36.21398437 119.38703125 36.42796875 120.1015625 36.6484375 C123.79090956 38.36880689 126.46060743 40.84971313 129.375 43.625 C129.94718262 44.16189453 130.51936523 44.69878906 131.10888672 45.25195312 C135.34577832 49.27104371 139.36086763 53.42509073 143 58 C143.55429688 58.6909375 144.10859375 59.381875 144.6796875 60.09375 C146 62 146 62 146 64 C146.66 64 147.32 64 148 64 C149.50130501 66.01193217 150.85550958 68.00384705 152.1875 70.125 C152.78643066 71.06811035 152.78643066 71.06811035 153.39746094 72.03027344 C157.40998372 78.46375969 160.71891076 85.1669059 164 92 C164.37503662 92.72469482 164.75007324 93.44938965 165.13647461 94.19604492 C168.59278587 100.90011439 171.38513148 107.7652688 174.0625 114.8125 C174.48337891 115.89853516 174.90425781 116.98457031 175.33789062 118.10351562 C181.91813329 135.29376196 186.41159117 152.73511213 189.04907227 170.93212891 C189.5821723 175.09217782 189.5821723 175.09217782 191 179 C191.23074219 178.18917969 191.46148437 177.37835938 191.69921875 176.54296875 C193.9191705 169.00566221 196.59752265 162.06794811 200 155 C200.79056149 153.29757029 201.57946707 151.59437114 202.3671875 149.890625 C203.24423687 148.01015781 204.12184738 146.12995224 205 144.25 C205.41523926 143.35023438 205.83047852 142.45046875 206.25830078 141.5234375 C208.75124182 136.23757904 211.53183713 131.69647055 215 127 C215.33 126.01 215.66 125.02 216 124 C216.66 124 217.32 124 218 124 C218.2165625 123.31292969 218.433125 122.62585938 218.65625 121.91796875 C220.39065726 118.15168321 222.77363272 115.40662959 225.5 112.3125 C226.04043945 111.69455566 226.58087891 111.07661133 227.13769531 110.43994141 C236.0033342 100.38717312 245.36666153 92.06774436 256.23925781 84.265625 C257.64657471 83.2540428 259.04048494 82.22381831 260.4296875 81.1875 C285.58263569 63.17916355 323.29485036 53.98731489 354 56 C355 57 355 57 355.1484375 60.56640625 C354.81150891 83.56433475 342.55059146 106.75720615 331 126 C330.34 126 329.68 126 329 126 C328.855625 126.61875 328.71125 127.2375 328.5625 127.875 C328 130 328 130 327 132 C326.34 132 325.68 132 325 132 C324.70609375 133.01513672 324.70609375 133.01513672 324.40625 134.05078125 C322.46033093 138.13180596 319.61962455 140.95500915 316.5 144.1875 C315.86634521 144.85168945 315.23269043 145.51587891 314.57983398 146.20019531 C313.30648789 147.5311202 312.02976834 148.85882668 310.74951172 150.18310547 C309.27684995 151.71248712 307.82533742 153.26219333 306.37890625 154.81640625 C299.64123874 161.89493384 292.00786916 167.46413491 284 173 C283.07316406 173.6496875 282.14632813 174.299375 281.19140625 174.96875 C273.29341714 180.25811866 264.69663275 184.21363182 256 188 C255.24074219 188.33290039 254.48148438 188.66580078 253.69921875 189.00878906 C245.95641445 192.26513781 237.95516792 194.20301579 229.80859375 196.1796875 C219.7702462 198.74570297 210.49041539 201.61410645 204 210 C203.34 210 202.68 210 202 210 C201.81135376 210.8338623 201.81135376 210.8338623 201.61889648 211.68457031 C200.94107374 214.22045628 200.0417188 216.59778193 199.09765625 219.046875 C197.01885251 224.70422442 195.64321518 230.35310286 194.4375 236.25 C194.22552979 237.24491455 194.01355957 238.2398291 193.79516602 239.26489258 C192.85116308 243.72735352 191.94921858 248.1917408 191.15625 252.68359375 C191.03193604 253.36969727 190.90762207 254.05580078 190.77954102 254.76269531 C190.4616802 256.5514281 190.16548559 258.34397395 189.87109375 260.13671875 C188.85045353 263.49155859 187.82596324 264.93835422 185 267 C182.74609375 267.27734375 182.74609375 267.27734375 180.4375 266.9375 C179.67308594 266.84339844 178.90867188 266.74929688 178.12109375 266.65234375 C175.55654511 265.86361516 174.65865145 265.10101606 173 263 C172.51904297 260.71801758 172.51904297 260.71801758 172.3671875 257.83203125 C172.30241211 256.66881348 172.23763672 255.5055957 172.17089844 254.30712891 C172.11126636 252.87152753 172.05457447 251.43580254 172 250 C171.96636353 249.14500916 171.93272705 248.29001831 171.89807129 247.40911865 C171.57753269 239.08326435 171.27913642 230.75615842 171.02587891 222.42797852 C171.39608239 200.20009352 171.39608239 200.20009352 164 180 C158.56226261 176.37965147 151.92839319 175.12027331 145.625 173.8125 C121.33197084 168.3539849 97.52831982 159.59110448 76 147 C76 146.34 76 145.68 76 145 C74.95199219 144.64421875 74.95199219 144.64421875 73.8828125 144.28125 C70.46522382 142.7623217 67.83369808 140.78390729 64.875 138.5 C61.95001012 136.25337435 59.06902312 134.04601541 56 132 C56 131.34 56 130.68 56 130 C55.34 130 54.68 130 54 130 C54 129.34 54 128.68 54 128 C53.34 128 52.68 128 52 128 C52 127.34 52 126.68 52 126 C51.12601563 125.62875 51.12601563 125.62875 50.234375 125.25 C47.66885764 123.81474554 46.16275202 122.22336987 44.25 120 C43.32960938 118.948125 43.32960938 118.948125 42.390625 117.875 C41 116 41 116 41 114 C40.34 114 39.68 114 39 114 C35 109.64705882 35 109.64705882 35 106 C34.34 106 33.68 106 33 106 C31.5415687 103.88172874 30.22696193 101.78189412 28.9375 99.5625 C28.54336914 98.89234863 28.14923828 98.22219727 27.74316406 97.53173828 C21.39598243 86.63683372 15.28646046 75.74655307 11.0703125 63.83203125 C10.02920597 60.92780906 10.02920597 60.92780906 8.4921875 58.00390625 C2.01755041 44.96988552 0.01221384 29.76227993 -0.75 15.375 C-0.79471436 14.53380615 -0.83942871 13.6926123 -0.88549805 12.82592773 C-1.06589082 8.39717377 -0.93241954 4.36541877 0 0 Z " fill="#18DB44" transform="translate(11,113)"/>
<path d="M0 0 C0.99 0.495 0.99 0.495 2 1 C2 1.66 2 2.32 2 3 C2.66 3.185625 3.32 3.37125 4 3.5625 C10.73112826 6.78783229 16.74432712 12.89053022 21 19 C21 19.66 21 20.32 21 21 C21.66 21 22.32 21 23 21 C37.10846124 44.98088324 44.57155529 69.32454699 37.5390625 97.07080078 C34.32912499 108.5585391 28.80259827 118.2949598 22 128 C21.45730469 128.79019531 20.91460937 129.58039063 20.35546875 130.39453125 C19.90816406 130.92433594 19.46085938 131.45414063 19 132 C18.34 132 17.68 132 17 132 C17 132.66 17 133.32 17 134 C16.34 134 15.68 134 15 134 C15 134.66 15 135.32 15 136 C14.34 136 13.68 136 13 136 C13 136.66 13 137.32 13 138 C12.34 138 11.68 138 11 138 C11 138.66 11 139.32 11 140 C7.85809109 142.59374608 4.40125224 144.7622106 1 147 C0.22011719 147.52207031 -0.55976563 148.04414063 -1.36328125 148.58203125 C-10.76009429 154.56756426 -21.91197392 159.42813423 -33 161 C-33.73476562 161.19851562 -34.46953125 161.39703125 -35.2265625 161.6015625 C-38.01725493 162.09065293 -39.37368484 162.12231807 -42 161 C-45.14763699 157.18998149 -47.50493919 153.08298029 -49.93017578 148.79150391 C-51.89432128 145.50238943 -54.34632327 142.61395923 -56.78515625 139.671875 C-58 138 -58 138 -58 136 C-58.66 136 -59.32 136 -60 136 C-61.5078125 134.5390625 -61.5078125 134.5390625 -63.125 132.625 C-63.66382813 131.99851563 -64.20265625 131.37203125 -64.7578125 130.7265625 C-66 129 -66 129 -66 127 C-66.66 127 -67.32 127 -68 127 C-68 126.34 -68 125.68 -68 125 C-68.66 125 -69.32 125 -70 125 C-72.625 122.625 -72.625 122.625 -75 120 C-75 119.34 -75 118.68 -75 118 C-75.598125 117.71125 -76.19625 117.4225 -76.8125 117.125 C-79 116 -79 116 -82 114 C-82 113.34 -82 112.68 -82 112 C-82.5775 111.71125 -83.155 111.4225 -83.75 111.125 C-86.875 109.5625 -86.875 109.5625 -90 108 C-90 107.34 -90 106.68 -90 106 C-90.67933594 105.76539062 -91.35867187 105.53078125 -92.05859375 105.2890625 C-94.96882845 104.01366084 -97.47910253 102.43810187 -100.11425781 100.67382812 C-109.21913927 94.60390715 -118.71053798 90.54549988 -128.96386719 86.80273438 C-131.04576154 85.98195876 -133.01401676 85.02927293 -135 84 C-135.83915724 56.80807803 -131.2273312 34.68301826 -112.34375 14.10546875 C-107.57454085 9.20606568 -107.57454085 9.20606568 -105 7 C-104.34 7 -103.68 7 -103 7 C-103 6.34 -103 5.68 -103 5 C-72.4922356 -19.11870379 -32.86038753 -17.51218213 0 0 Z " fill="#FECD0C" transform="translate(235,21)"/>
<path d="M0 0 C0.99 0.495 0.99 0.495 2 1 C2.41186523 3.98242188 2.41186523 3.98242188 2.62109375 7.96875 C2.65883408 8.68188354 2.6965744 9.39501709 2.73545837 10.12976074 C3.12609479 18.25145947 3.11044367 26.37128635 3.0625 34.5 C3.05746416 36.01692557 3.05290501 37.5338528 3.04882812 39.05078125 C3.03801236 42.7005564 3.02086846 46.35026679 3 50 C2.34 49.67 1.68 49.34 1 49 C0.32944176 32.65870981 -0.1593085 16.35567221 0 0 Z " fill="#5BD274" transform="translate(182,314)"/>
<path d="M0 0 C2.31243792 -0.02685412 4.6249627 -0.04632841 6.9375 -0.0625 C8.22527344 -0.07410156 9.51304687 -0.08570313 10.83984375 -0.09765625 C14 0 14 0 15 1 C15.32205302 7.09845078 14.47122471 12.45738131 13.0625 18.375 C12.88009766 19.18066406 12.69769531 19.98632812 12.50976562 20.81640625 C11.15865198 26.68269604 11.15865198 26.68269604 10 29 C9.34 29 8.68 29 8 29 C8.75665399 21.43346008 8.75665399 21.43346008 10 19.21875 C11.45300838 15.99488765 11.46708614 12.73068459 11.625 9.25 C11.68300781 8.20392578 11.68300781 8.20392578 11.7421875 7.13671875 C11.83598624 5.42489182 11.91906174 3.71248318 12 2 C7.71 2 3.42 2 -1 2 C-0.67 1.34 -0.34 0.68 0 0 Z " fill="#61D37C" transform="translate(351,169)"/>
<path d="M0 0 C6.74113409 -0.40446805 11.98000687 -0.60119566 17.84765625 2.921875 C21.52848419 4.7656291 25.54427459 5.3825134 29.55859375 6.19140625 C30.36425781 6.45824219 31.16992188 6.72507812 32 7 C32.495 8.485 32.495 8.485 33 10 C25.17675331 8.78434806 17.82179102 6.86292672 10.3125 4.375 C9.31283203 4.05015625 8.31316406 3.7253125 7.28320312 3.390625 C4.85333069 2.6000445 2.42574853 1.80312595 0 1 C0 0.67 0 0.34 0 0 Z " fill="#54D775" transform="translate(123,276)"/>
<path d="M0 0 C-1.7480201 1.6063702 -3.49831644 3.21013297 -5.25 4.8125 C-5.74113281 5.26431641 -6.23226563 5.71613281 -6.73828125 6.18164062 C-9.39507648 8.60818027 -12.07465076 10.90349971 -15 13 C-16.32 12.34 -17.64 11.68 -19 11 C-18.67 10.34 -18.34 9.68 -18 9 C-16.02 9.495 -16.02 9.495 -14 10 C-13.67 8.35 -13.34 6.7 -13 5 C-11.35 4.67 -9.7 4.34 -8 4 C-8 3.01 -8 2.02 -8 1 C-3.375 -1.125 -3.375 -1.125 0 0 Z " fill="#34D660" transform="translate(316,269)"/>
<path d="M0 0 C6.93 0 13.86 0 21 0 C21.33 0.66 21.66 1.32 22 2 C20.73542969 2.02578125 19.47085937 2.0515625 18.16796875 2.078125 C16.50777782 2.13440266 14.8476229 2.19175007 13.1875 2.25 C12.35412109 2.26417969 11.52074219 2.27835937 10.66210938 2.29296875 C5.85800133 2.36930217 5.85800133 2.36930217 1.96875 4.875 C0.88890155 7.24369982 0.35754628 9.4256668 0 12 C-0.33 12 -0.66 12 -1 12 C-0.67 8.04 -0.34 4.08 0 0 Z " fill="#41CB63" transform="translate(11,113)"/>
<path d="M0 0 C0.83283114 3.09998257 1.17420942 5.77712574 1 9 C0.67 9.33 0.34 9.66 0 10 C-1.00776709 15.62110089 -1.2981976 21.23983358 -1.5625 26.9375 C-1.60568359 27.81212891 -1.64886719 28.68675781 -1.69335938 29.58789062 C-1.79846901 31.72511995 -1.89963985 33.86254238 -2 36 C-2.33 36 -2.66 36 -3 36 C-3.08840346 32.06264583 -3.1408564 28.12555276 -3.1875 24.1875 C-3.21263672 23.08728516 -3.23777344 21.98707031 -3.26367188 20.85351562 C-3.32941564 13.42446964 -2.35707479 7.04819394 0 0 Z M1 6 C1.66 6 2.32 6 3 6 C3 6.66 3 7.32 3 8 C2.34 8 1.68 8 1 8 C1 7.34 1 6.68 1 6 Z " fill="#FEDE57" transform="translate(103,69)"/>
<path d="M0 0 C2.25 -0.0625 2.25 -0.0625 5 1 C6.2442911 3.26669812 7.13753977 5.53506698 8.0078125 7.96875 C8.33523437 8.6390625 8.66265625 9.309375 9 10 C9.99 10.33 10.98 10.66 12 11 C13.75 14.4375 13.75 14.4375 15 18 C14.67 18.66 14.34 19.32 14 20 C11.99224902 17.38084613 9.99515805 14.75375554 8 12.125 C7.42765625 11.37863281 6.8553125 10.63226563 6.265625 9.86328125 C5.72421875 9.14785156 5.1828125 8.43242187 4.625 7.6953125 C4.12226563 7.03547363 3.61953125 6.37563477 3.1015625 5.69580078 C2 4 2 4 2 2 C1.34 2 0.68 2 0 2 C0 1.34 0 0.68 0 0 Z " fill="#FEE150" transform="translate(175,155)"/>
<path d="M0 0 C-1.07218201 1.01194706 -2.15826378 2.00918057 -3.25 3 C-4.15492188 3.8353125 -4.15492188 3.8353125 -5.078125 4.6875 C-7 6 -7 6 -11 6 C-11 6.66 -11 7.32 -11 8 C-13.375 8.625 -13.375 8.625 -16 9 C-16.66 8.34 -17.32 7.68 -18 7 C-4.875 -1.625 -4.875 -1.625 0 0 Z " fill="#FEDA41" transform="translate(158,14)"/>
<path d="M0 0 C3.3 0.33 6.6 0.66 10 1 C10.33 2.32 10.66 3.64 11 5 C4.375 6.25 4.375 6.25 1 4 C1.33 3.34 1.66 2.68 2 2 C1.34 1.34 0.68 0.68 0 0 Z " fill="#27D855" transform="translate(246,300)"/>
<path d="M0 0 C3.93548431 3.06093224 6.68116787 5.49115974 9 10 C7.02 10.66 5.04 11.32 3 12 C1 9 1 9 1 6 C1.99 6 2.98 6 4 6 C3.34 5.38125 2.68 4.7625 2 4.125 C0 2 0 2 0 0 Z " fill="#4CDE6F" transform="translate(141,158)"/>
<path d="M0 0 C6.17222879 1.24028238 12.06682122 2.89603589 18 5 C18 5.33 18 5.66 18 6 C12.22192976 6.2358396 7.48675196 5.86783046 2 4 C2 3.01 2 2.02 2 1 C1.34 0.67 0.68 0.34 0 0 Z " fill="#4FD872" transform="translate(71,121)"/>
<path d="M0 0 C1.32 0.33 2.64 0.66 4 1 C4.33 2.98 4.66 4.96 5 7 C7.97 7.33 10.94 7.66 14 8 C9.43601897 10.28199051 7.85155613 10.14673145 3 9 C1.0625 7.8125 1.0625 7.8125 0 6 C-0.1875 2.8125 -0.1875 2.8125 0 0 Z " fill="#46D066" transform="translate(184,370)"/>
<path d="M0 0 C0.66 0.33 1.32 0.66 2 1 C1.41734728 5.42323682 -0.26766211 8.5155864 -2.5625 12.3125 C-3.20316406 13.38113281 -3.84382813 14.44976562 -4.50390625 15.55078125 C-4.99761719 16.35902344 -5.49132812 17.16726562 -6 18 C-6.33 16.68 -6.66 15.36 -7 14 C-6.34 14 -5.68 14 -5 14 C-4.67 12.35 -4.34 10.7 -4 9 C-3.34 9 -2.68 9 -2 9 C-2.33 7.68 -2.66 6.36 -3 5 C-2.34 5 -1.68 5 -1 5 C-0.67 3.35 -0.34 1.7 0 0 Z " fill="#FFDC48" transform="translate(266,127)"/>
<path d="M0 0 C0.99 0 1.98 0 3 0 C1.59155282 3.21524305 -0.10344786 5.32183868 -2.625 7.75 C-3.57246094 8.67039062 -3.57246094 8.67039062 -4.5390625 9.609375 C-5.02117187 10.06828125 -5.50328125 10.5271875 -6 11 C-6.5534764 8.92446352 -7 7.15634036 -7 5 C-5.68 5 -4.36 5 -3 5 C-3 4.01 -3 3.02 -3 2 C-2.01 2 -1.02 2 0 2 C0 1.34 0 0.68 0 0 Z " fill="#24CD52" transform="translate(325,255)"/>
<path d="M0 0 C1.485 0.99 1.485 0.99 3 2 C3 2.66 3 3.32 3 4 C3.66 4 4.32 4 5 4 C6.54296875 6.1171875 6.54296875 6.1171875 8.1875 8.875 C8.73792969 9.77992187 9.28835938 10.68484375 9.85546875 11.6171875 C10.23316406 12.40351562 10.61085938 13.18984375 11 14 C10.67 14.66 10.34 15.32 10 16 C9.34 15.67 8.68 15.34 8 15 C8 13.68 8 12.36 8 11 C7.401875 10.773125 6.80375 10.54625 6.1875 10.3125 C2.77889932 8.26733959 1.42627624 5.43383827 0.3125 1.6875 C0.209375 1.130625 0.10625 0.57375 0 0 Z " fill="#FEDC56" transform="translate(253,38)"/>
<path d="M0 0 C3 3.75 3 3.75 3 6 C3.66 6 4.32 6 5 6 C5.98248524 10.0527516 6.08159574 13.83861737 6 18 C4 17 4 17 2.9296875 14.19921875 C2.58164062 13.04035156 2.23359375 11.88148438 1.875 10.6875 C1.52179687 9.53636719 1.16859375 8.38523438 0.8046875 7.19921875 C0 4 0 4 0 0 Z " fill="#67D784" transform="translate(14,151)"/>
<path d="M0 0 C0.556875 0.185625 1.11375 0.37125 1.6875 0.5625 C4.399133 1.07551165 6.34371039 0.6640724 9 0 C9 0.66 9 1.32 9 2 C10.32 2.33 11.64 2.66 13 3 C10.11788698 3.96070434 8.30149956 4.10581883 5.3125 4.0625 C4.10013672 4.04896484 4.10013672 4.04896484 2.86328125 4.03515625 C1.94095703 4.01775391 1.94095703 4.01775391 1 4 C0.67 2.68 0.34 1.36 0 0 Z " fill="#FEDB3F" transform="translate(192,178)"/>
<path d="M0 0 C1.98 0 3.96 0 6 0 C6.226875 0.639375 6.45375 1.27875 6.6875 1.9375 C7.85250896 4.27193661 7.85250896 4.27193661 10.625 4.75 C11.40875 4.8325 12.1925 4.915 13 5 C12.67 5.66 12.34 6.32 12 7 C8.51329166 5.8905928 5.22515763 4.73662334 2 3 C2 2.34 2 1.68 2 1 C1.34 0.67 0.68 0.34 0 0 Z " fill="#46D36A" transform="translate(85,257)"/>
<path d="M0 0 C0.33 0 0.66 0 1 0 C3.29612756 9.41002278 3.29612756 9.41002278 3 14 C0 13 0 13 -1.875 11.5 C-3.28366341 8.36963687 -2.75496914 7.43737264 -1.6875 4.25 C-1.14324959 2.82622256 -0.58625159 1.40700382 0 0 Z " fill="#5ADF7F" transform="translate(195,262)"/>
<path d="M0 0 C3.44165927 4.22385456 5 7.50060584 5 13 C4.01 13 3.02 13 2 13 C2 10.36 2 7.72 2 5 C0.68 5.33 -0.64 5.66 -2 6 C-1.125 1.125 -1.125 1.125 0 0 Z " fill="#FED740" transform="translate(266,58)"/>
<path d="M0 0 C4.48525648 0.656379 8.66914029 1.70074209 13 3 C13 3.99 13 4.98 13 6 C11.39253944 5.57476184 9.78910164 5.13429874 8.1875 4.6875 C7.29417969 4.44386719 6.40085937 4.20023437 5.48046875 3.94921875 C2.94752262 2.9799181 1.7283504 2.04990396 0 0 Z " fill="#48D371" transform="translate(110,270)"/>
<path d="M0 0 C2.93814003 1.46907001 3.3286226 3.59447806 4.625 6.5625 C5.07101563 7.57441406 5.51703125 8.58632812 5.9765625 9.62890625 C6.31429687 10.41136719 6.65203125 11.19382813 7 12 C6.01 12 5.02 12 4 12 C3.67 10.68 3.34 9.36 3 8 C2.34 8 1.68 8 1 8 C0 2.25 0 2.25 0 0 Z " fill="#57DA79" transform="translate(172,201)"/>
<path d="M0 0 C4.95 0 9.9 0 15 0 C15.33 0.66 15.66 1.32 16 2 C13.26752652 3.36623674 11.01801098 3.128426 8 3 C7.67 2.67 7.34 2.34 7 2 C4.67182036 1.63239269 2.3381615 1.29758419 0 1 C0 0.67 0 0.34 0 0 Z " fill="#45D56A" transform="translate(334,171)"/>
<path d="M0 0 C2 1 2 1 2.875 2.8125 C3 5 3 5 1.0625 7.25 C0.381875 7.8275 -0.29875 8.405 -1 9 C-1 8.34 -1 7.68 -1 7 C-1.66 7 -2.32 7 -3 7 C-2.625 4.0625 -2.625 4.0625 -2 1 C-1.34 0.67 -0.68 0.34 0 0 Z " fill="#24D849" transform="translate(186,363)"/>
<path d="M0 0 C0.99 0.66 1.98 1.32 3 2 C1.68 5.63 0.36 9.26 -1 13 C-1.33 13 -1.66 13 -2 13 C-2 9.37 -2 5.74 -2 2 C-1.34 2 -0.68 2 0 2 C0 1.34 0 0.68 0 0 Z " fill="#46D56B" transform="translate(209,325)"/>
<path d="M0 0 C1.32 0.33 2.64 0.66 4 1 C2.75023244 4.65316671 2.32901247 5.78065836 -1 8 C-1.93065133 5.39417629 -2.14917407 4.35801776 -1.0625 1.75 C-0.711875 1.1725 -0.36125 0.595 0 0 Z " fill="#39D55D" transform="translate(332,244)"/>
<path d="M0 0 C1.60938465 2.41407698 2.65490738 4.34044437 3.6875 7 C3.95949219 7.680625 4.23148438 8.36125 4.51171875 9.0625 C5 11 5 11 4 14 C0.07260562 9.09075703 -0.43177893 6.26079448 0 0 Z " fill="#64DC82" transform="translate(185,230)"/>
<path d="M0 0 C-0.33 0.99 -0.66 1.98 -1 3 C-0.34 3.33 0.32 3.66 1 4 C1 4.66 1 5.32 1 6 C-0.32 5.67 -1.64 5.34 -3 5 C-3 4.34 -3 3.68 -3 3 C-5.475 2.01 -5.475 2.01 -8 1 C-4.93251126 -0.86240388 -3.40254489 -1.2151946 0 0 Z " fill="#FFD645" transform="translate(148,124)"/>
<path d="M0 0 C1.65 0.33 3.3 0.66 5 1 C4.360625 1.886875 3.72125 2.77375 3.0625 3.6875 C1.19170243 6.69211428 0.40576034 8.5510371 0 12 C-0.33 12 -0.66 12 -1 12 C-0.67 8.04 -0.34 4.08 0 0 Z " fill="#49C870" transform="translate(11,113)"/>
<path d="M0 0 C0.33 1.32 0.66 2.64 1 4 C-0.6875 6.3125 -0.6875 6.3125 -3 8 C-4.32 7.67 -5.64 7.34 -7 7 C-4.69 4.69 -2.38 2.38 0 0 Z " fill="#FFD541" transform="translate(128,30)"/>
<path d="M0 0 C3.3125 0.1875 3.3125 0.1875 7 1 C8.9375 3.5625 8.9375 3.5625 10 6 C6.62972148 6 5.93297304 5.50175992 3.3125 3.5625 C2.68988281 3.11003906 2.06726563 2.65757812 1.42578125 2.19140625 C0.95527344 1.79824219 0.48476562 1.40507812 0 1 C0 0.67 0 0.34 0 0 Z " fill="#50D472" transform="translate(67,244)"/>
<path d="M0 0 C1.32 1.65 2.64 3.3 4 5 C3.67 5.66 3.34 6.32 3 7 C2.01 6.67 1.02 6.34 0 6 C0 6.66 0 7.32 0 8 C-0.66 8 -1.32 8 -2 8 C-1.125 1.125 -1.125 1.125 0 0 Z " fill="#3DD664" transform="translate(162,183)"/>
<path d="M0 0 C1.65 1.32 3.3 2.64 5 4 C3.63016497 7.16115776 3.0109362 7.9927092 0 10 C0 6.7 0 3.4 0 0 Z " fill="#4BDA70" transform="translate(150,168)"/>
<path d="M0 0 C-0.33 1.32 -0.66 2.64 -1 4 C-3.3125 4.6875 -3.3125 4.6875 -6 5 C-7.8125 3.5625 -7.8125 3.5625 -9 2 C-2.25 0 -2.25 0 0 0 Z " fill="#43D76D" transform="translate(304,180)"/>
<path d="M0 0 C0.99 0.99 1.98 1.98 3 3 C2.67 3.66 2.34 4.32 2 5 C1.34 4.67 0.68 4.34 0 4 C0 4.66 0 5.32 0 6 C-1.65 6 -3.3 6 -5 6 C-3.35 4.02 -1.7 2.04 0 0 Z " fill="#39D560" transform="translate(250,211)"/>
<path d="M0 0 C3.35661695 1.67830848 4.32506861 4.70789347 6 8 C5.67 8.66 5.34 9.32 5 10 C2.525 9.01 2.525 9.01 0 8 C0 5.36 0 2.72 0 0 Z " fill="#5ADC79" transform="translate(166,190)"/>
<path d="M0 0 C0 0.99 0 1.98 0 3 C0.33 3.99 0.66 4.98 1 6 C-1.31 6.66 -3.62 7.32 -6 8 C-4.26440562 4.942048 -2.61527381 2.36620011 0 0 Z " fill="#4ED771" transform="translate(244,217)"/>
<path d="M0 0 C1.32 0.66 2.64 1.32 4 2 C-0.62197306 4.21854707 -3.76824163 5.38281159 -9 5 C-6.06279492 3.47700477 -3.0831351 2.19899698 0 1 C0 0.67 0 0.34 0 0 Z " fill="#FEDE52" transform="translate(214,175)"/>
<path d="M0 0 C0.66 0.33 1.32 0.66 2 1 C2 2.65 2 4.3 2 6 C-0.97 5.01 -3.94 4.02 -7 3 C-5.68 2.67 -4.36 2.34 -3 2 C-2.01 1.34 -1.02 0.68 0 0 Z " fill="#FFDD47" transform="translate(121,108)"/>
<path d="M0 0 C0 0.99 0 1.98 0 3 C0.66 3 1.32 3 2 3 C1.67 3.99 1.34 4.98 1 6 C-2.0625 7.1875 -2.0625 7.1875 -5 8 C-1.125 1.125 -1.125 1.125 0 0 Z " fill="#65E088" transform="translate(235,227)"/>
<path d="M0 0 C3.31832766 0.98652984 4.76548627 1.68731503 6.875 4.5 C7.24625 5.325 7.6175 6.15 8 7 C7.67 7.66 7.34 8.32 7 9 C5.83037314 7.69013727 4.66437056 6.3770374 3.5 5.0625 C2.8503125 4.33160156 2.200625 3.60070312 1.53125 2.84765625 C0 1 0 1 0 0 Z " fill="#77DA8E" transform="translate(52,228)"/>
<path d="M0 0 C0.99 0.33 1.98 0.66 3 1 C2.34 1 1.68 1 1 1 C0.67 2.65 0.34 4.3 0 6 C-0.99 5.67 -1.98 5.34 -3 5 C-5.14255793 5.38932856 -5.14255793 5.38932856 -7 6 C-4.74259377 3.66475218 -2.7194239 1.81294927 0 0 Z " fill="#6BDC87" transform="translate(278,190)"/>
<path d="M0 0 C2.9375 0.75 2.9375 0.75 6 2 C6.875 4.125 6.875 4.125 7 6 C5.68 5.67 4.36 5.34 3 5 C3 4.34 3 3.68 3 3 C2.01 2.67 1.02 2.34 0 2 C0 1.34 0 0.68 0 0 Z " fill="#4CD468" transform="translate(114,139)"/>
<path d="M0 0 C0.33 0 0.66 0 1 0 C1.125 5.75 1.125 5.75 0 8 C-0.66 8 -1.32 8 -2 8 C-2.66 9.32 -3.32 10.64 -4 12 C-3.33501617 7.61110675 -1.81242323 4.0188515 0 0 Z " fill="#FFE25F" transform="translate(108,56)"/>
<path d="M0 0 C3.79303725 1.00193437 6.71536341 1.81024227 10 4 C6.6875 4.6875 6.6875 4.6875 3 5 C1.0625 3.6875 1.0625 3.6875 0 2 C0 1.34 0 0.68 0 0 Z " fill="#FFD644" transform="translate(213,12)"/>
<path d="M0 0 C0.66 0.99 1.32 1.98 2 3 C1.125 6.6875 1.125 6.6875 0 10 C-0.66 10 -1.32 10 -2 10 C-1.34 6.7 -0.68 3.4 0 0 Z " fill="#4FD877" transform="translate(206,279)"/>
<path d="M0 0 C3.63 0 7.26 0 11 0 C11 0.99 11 1.98 11 3 C7.37 2.34 3.74 1.68 0 1 C0 0.67 0 0.34 0 0 Z " fill="#68DB82" transform="translate(161,287)"/>
<path d="M0 0 C0.66 0.33 1.32 0.66 2 1 C1.75 3.375 1.75 3.375 1 6 C-1.0625 7.3125 -1.0625 7.3125 -3 8 C-1.125 2.25 -1.125 2.25 0 0 Z " fill="#45D66C" transform="translate(216,257)"/>
<path d="M0 0 C0.33 0 0.66 0 1 0 C1.125 6.75 1.125 6.75 0 9 C-0.66 9 -1.32 9 -2 9 C-1.125 1.125 -1.125 1.125 0 0 Z " fill="#4FD270" transform="translate(361,189)"/>
<path d="M0 0 C0.99 0.33 1.98 0.66 3 1 C2.34 1 1.68 1 1 1 C1 1.66 1 2.32 1 3 C0.34 3 -0.32 3 -1 3 C-1 3.66 -1 4.32 -1 5 C-1.66 5 -2.32 5 -3 5 C-3 5.66 -3 6.32 -3 7 C-3.99 6.67 -4.98 6.34 -6 6 C-5.67 5.34 -5.34 4.68 -5 4 C-4.34 4 -3.68 4 -3 4 C-2.67 3.01 -2.34 2.02 -2 1 C-1.34 1.33 -0.68 1.66 0 2 C0 1.34 0 0.68 0 0 Z " fill="#FFE263" transform="translate(251,152)"/>
<path d="M0 0 C3.3 0.33 6.6 0.66 10 1 C6.23312136 2.88343932 4.97041037 3.22057835 1 3 C0.67 2.01 0.34 1.02 0 0 Z " fill="#59DC7A" transform="translate(48,116)"/>
<path d="M0 0 C0.99 0.33 1.98 0.66 3 1 C2.67 3.64 2.34 6.28 2 9 C1.67 9 1.34 9 1 9 C0.855625 8.21625 0.71125 7.4325 0.5625 6.625 C0.12201075 4.03578982 0.12201075 4.03578982 -1 2 C-0.67 1.34 -0.34 0.68 0 0 Z " fill="#55DA76" transform="translate(203,343)"/>
<path d="M0 0 C0.99 0 1.98 0 3 0 C1.63016497 3.16115776 1.0109362 3.9927092 -2 6 C-2.33 4.68 -2.66 3.36 -3 2 C-2.01 2 -1.02 2 0 2 C0 1.34 0 0.68 0 0 Z " fill="#41D064" transform="translate(325,255)"/>
<path d="M0 0 C-0.66 1.32 -1.32 2.64 -2 4 C-3.98 4 -5.96 4 -8 4 C-6.27302455 0.54604909 -3.70696841 0 0 0 Z " fill="#60DA83" transform="translate(289,186)"/>
<path d="M0 0 C2.475 0.495 2.475 0.495 5 1 C5.33 2.32 5.66 3.64 6 5 C4.68 4.67 3.36 4.34 2 4 C2 3.34 2 2.68 2 2 C1.34 2 0.68 2 0 2 C0 1.34 0 0.68 0 0 Z " fill="#FED933" transform="translate(175,155)"/>
<path d="M0 0 C0.33 0.99 0.66 1.98 1 3 C1.66 3 2.32 3 3 3 C2.67 5.31 2.34 7.62 2 10 C-0.4294516 6.3558226 -0.16179575 4.28758728 0 0 Z " fill="#5ED97F" transform="translate(12,139)"/>
<path d="M0 0 C0.33 0.66 0.66 1.32 1 2 C-0.3125 4.625 -0.3125 4.625 -2 7 C-2.66 7 -3.32 7 -4 7 C-4 7.99 -4 8.98 -4 10 C-4.66 10 -5.32 10 -6 10 C-4.6302836 6.00499382 -2.74277578 3.19990508 0 0 Z " fill="#FFDC59" transform="translate(120,38)"/>
<path d="M0 0 C0.99 0.33 1.98 0.66 3 1 C3 3.64 3 6.28 3 9 C1.22293791 6.33440687 0.12451727 3.9719385 -1 1 C-0.67 0.67 -0.34 0.34 0 0 Z " fill="#5AD272" transform="translate(177,292)"/>
<path d="M0 0 C-2.97 2.475 -2.97 2.475 -6 5 C-6 3.35 -6 1.7 -6 0 C-3 -1 -3 -1 0 0 Z " fill="#4CD370" transform="translate(316,269)"/>
<path d="M0 0 C2.64 0.33 5.28 0.66 8 1 C7.67 2.32 7.34 3.64 7 5 C3.535 3.02 3.535 3.02 0 1 C0 0.67 0 0.34 0 0 Z " fill="#38D362" transform="translate(78,252)"/>
<path d="M0 0 C0.66 0.66 1.32 1.32 2 2 C0.68 4.31 -0.64 6.62 -2 9 C-2.33 9 -2.66 9 -3 9 C-3.36923077 3.46153846 -3.36923077 3.46153846 -1.5 1.125 C-1.005 0.75375 -0.51 0.3825 0 0 Z " fill="#49D06E" transform="translate(350,219)"/>
<path d="M0 0 C0.99 0.33 1.98 0.66 3 1 C3 1.66 3 2.32 3 3 C1.37373596 4.38232443 -0.2925002 5.71937515 -2 7 C-2.66 6.67 -3.32 6.34 -4 6 C-3.0022242 3.00667261 -2.2477975 2.05233685 0 0 Z " fill="#FFDE5D" transform="translate(243,158)"/>
<path d="M0 0 C0.99 0.33 1.98 0.66 3 1 C1.35 3.64 -0.3 6.28 -2 9 C-2.33 7.68 -2.66 6.36 -3 5 C-2.34 5 -1.68 5 -1 5 C-0.67 3.35 -0.34 1.7 0 0 Z " fill="#FEDD68" transform="translate(262,136)"/>
<path d="M0 0 C-2.31 1.65 -4.62 3.3 -7 5 C-7 3.68 -7 2.36 -7 1 C-3.375 -1.125 -3.375 -1.125 0 0 Z M-10 5 C-7 6 -7 6 -7 6 Z " fill="#FFD932" transform="translate(158,14)"/>
<path d="M0 0 C0.66 0 1.32 0 2 0 C2 1.65 2 3.3 2 5 C0.02 5.99 0.02 5.99 -2 7 C-2 5.68 -2 4.36 -2 3 C-1.34 3 -0.68 3 0 3 C0 2.01 0 1.02 0 0 Z " fill="#3DD866" transform="translate(308,270)"/>
</svg>
