<?xml version="1.0" encoding="UTF-8"?>
<svg version="1.1" xmlns="http://www.w3.org/2000/svg" width="379" height="384">
<path d="M0 0 C39.42122214 -1.50654352 86.37091369 8.98103735 118 34 C118 34.66 118 35.32 118 36 C118.69351563 36.21398437 119.38703125 36.42796875 120.1015625 36.6484375 C123.79090956 38.36880689 126.46060743 40.84971313 129.375 43.625 C129.94718262 44.16189453 130.51936523 44.69878906 131.10888672 45.25195312 C135.34577832 49.27104371 139.36086763 53.42509073 143 58 C143.55429688 58.6909375 144.10859375 59.381875 144.6796875 60.09375 C146 62 146 62 146 64 C146.66 64 147.32 64 148 64 C149.50130501 66.01193217 150.85550958 68.00384705 152.1875 70.125 C152.78643066 71.06811035 152.78643066 71.06811035 153.39746094 72.03027344 C157.40998372 78.46375969 160.71891076 85.1669059 164 92 C164.37503662 92.72469482 164.75007324 93.44938965 165.13647461 94.19604492 C168.59278587 100.90011439 171.38513148 107.7652688 174.0625 114.8125 C174.48337891 115.89853516 174.90425781 116.98457031 175.33789062 118.10351562 C181.91813329 135.29376196 186.41159117 152.73511213 189.04907227 170.93212891 C189.5821723 175.09217782 189.5821723 175.09217782 191 179 C191.23074219 178.18917969 191.46148437 177.37835938 191.69921875 176.54296875 C193.9191705 169.00566221 196.59752265 162.06794811 200 155 C200.79056149 153.29757029 201.57946707 151.59437114 202.3671875 149.890625 C203.24423687 148.01015781 204.12184738 146.12995224 205 144.25 C205.41523926 143.35023438 205.83047852 142.45046875 206.25830078 141.5234375 C208.75124182 136.23757904 211.53183713 131.69647055 215 127 C215.33 126.01 215.66 125.02 216 124 C216.66 124 217.32 124 218 124 C218.2165625 123.31292969 218.433125 122.62585938 218.65625 121.91796875 C220.39065726 118.15168321 222.77363272 115.40662959 225.5 112.3125 C226.04043945 111.69455566 226.58087891 111.07661133 227.13769531 110.43994141 C236.0033342 100.38717312 245.36666153 92.06774436 256.23925781 84.265625 C257.64657471 83.2540428 259.04048494 82.22381831 260.4296875 81.1875 C285.58263569 63.17916355 323.29485036 53.98731489 354 56 C355 57 355 57 355.1484375 60.56640625 C354.81150891 83.56433475 342.55059146 106.75720615 331 126 C330.34 126 329.68 126 329 126 C328.855625 126.61875 328.71125 127.2375 328.5625 127.875 C328 130 328 130 327 132 C326.34 132 325.68 132 325 132 C324.70609375 133.01513672 324.70609375 133.01513672 324.40625 134.05078125 C322.46033093 138.13180596 319.61962455 140.95500915 316.5 144.1875 C315.86634521 144.85168945 315.23269043 145.51587891 314.57983398 146.20019531 C313.30648789 147.5311202 312.02976834 148.85882668 310.74951172 150.18310547 C309.27684995 151.71248712 307.82533742 153.26219333 306.37890625 154.81640625 C299.64123874 161.89493384 292.00786916 167.46413491 284 173 C283.07316406 173.6496875 282.14632813 174.299375 281.19140625 174.96875 C273.29341714 180.25811866 264.69663275 184.21363182 256 188 C255.24074219 188.33290039 254.48148438 188.66580078 253.69921875 189.00878906 C245.95641445 192.26513781 237.95516792 194.20301579 229.80859375 196.1796875 C219.7702462 198.74570297 210.49041539 201.61410645 204 210 C203.34 210 202.68 210 202 210 C201.81135376 210.8338623 201.81135376 210.8338623 201.61889648 211.68457031 C200.94107374 214.22045628 200.0417188 216.59778193 199.09765625 219.046875 C197.01892397 224.70402995 195.64204134 230.35297581 194.4375 236.25 C194.22770508 237.24273926 194.01791016 238.23547852 193.80175781 239.25830078 C192.32136942 246.30098055 190.91468825 253.35833541 189.578125 260.4296875 C189 263 189 263 188 264 C185.64686445 264.07271741 183.29166332 264.08370868 180.9375 264.0625 C179.64714844 264.05347656 178.35679687 264.04445313 177.02734375 264.03515625 C175.52880859 264.01775391 175.52880859 264.01775391 174 264 C171.72021829 257.57160265 171.61560176 251.4066336 171.47265625 244.62890625 C171.40185582 242.17252134 171.33088679 239.71614127 171.25976562 237.25976562 C171.15936222 233.42269456 171.06305376 229.5855702 170.97094727 225.74829102 C171.69368433 201.85178249 171.69368433 201.85178249 164 180 C158.56226261 176.37965147 151.92839319 175.12027331 145.625 173.8125 C121.33197084 168.3539849 97.52831982 159.59110448 76 147 C76 146.34 76 145.68 76 145 C74.95199219 144.64421875 74.95199219 144.64421875 73.8828125 144.28125 C70.46522382 142.7623217 67.83369808 140.78390729 64.875 138.5 C61.95001012 136.25337435 59.06902312 134.04601541 56 132 C56 131.34 56 130.68 56 130 C55.34 130 54.68 130 54 130 C54 129.34 54 128.68 54 128 C53.34 128 52.68 128 52 128 C52 127.34 52 126.68 52 126 C51.12601563 125.62875 51.12601563 125.62875 50.234375 125.25 C47.66885764 123.81474554 46.16275202 122.22336987 44.25 120 C43.32960938 118.948125 43.32960938 118.948125 42.390625 117.875 C41 116 41 116 41 114 C40.34 114 39.68 114 39 114 C35 109.64705882 35 109.64705882 35 106 C34.34 106 33.68 106 33 106 C31.5415687 103.88172874 30.22696193 101.78189412 28.9375 99.5625 C28.54336914 98.89234863 28.14923828 98.22219727 27.74316406 97.53173828 C21.39598243 86.63683372 15.28646046 75.74655307 11.0703125 63.83203125 C10.02920597 60.92780906 10.02920597 60.92780906 8.4921875 58.00390625 C2.01755041 44.96988552 0.01221384 29.76227993 -0.75 15.375 C-0.79471436 14.53380615 -0.83942871 13.6926123 -0.88549805 12.82592773 C-1.06589082 8.39717377 -0.93241954 4.36541877 0 0 Z " fill="#00C149" transform="translate(15,120)"/>
<path d="M0 0 C0.99 0.495 0.99 0.495 2 1 C2 1.66 2 2.32 2 3 C2.66 3.185625 3.32 3.37125 4 3.5625 C10.73112826 6.78783229 16.74432712 12.89053022 21 19 C21 19.66 21 20.32 21 21 C21.66 21 22.32 21 23 21 C37.10846124 44.98088324 44.57155529 69.32454699 37.5390625 97.07080078 C34.32912499 108.5585391 28.80259827 118.2949598 22 128 C21.45730469 128.79019531 20.91460937 129.58039063 20.35546875 130.39453125 C19.90816406 130.92433594 19.46085938 131.45414063 19 132 C18.34 132 17.68 132 17 132 C17 132.66 17 133.32 17 134 C16.34 134 15.68 134 15 134 C15 134.66 15 135.32 15 136 C14.34 136 13.68 136 13 136 C13 136.66 13 137.32 13 138 C12.34 138 11.68 138 11 138 C11 138.66 11 139.32 11 140 C7.85809109 142.59374608 4.40125224 144.7622106 1 147 C0.22011719 147.52207031 -0.55976563 148.04414063 -1.36328125 148.58203125 C-10.76009429 154.56756426 -21.91197392 159.42813423 -33 161 C-33.73476562 161.19851562 -34.46953125 161.39703125 -35.2265625 161.6015625 C-38.01725493 162.09065293 -39.37368484 162.12231807 -42 161 C-45.14763699 157.18998149 -47.50493919 153.08298029 -49.93017578 148.79150391 C-51.89432128 145.50238943 -54.34632327 142.61395923 -56.78515625 139.671875 C-58 138 -58 138 -58 136 C-58.66 136 -59.32 136 -60 136 C-61.5078125 134.5390625 -61.5078125 134.5390625 -63.125 132.625 C-63.66382813 131.99851563 -64.20265625 131.37203125 -64.7578125 130.7265625 C-66 129 -66 129 -66 127 C-66.66 127 -67.32 127 -68 127 C-68 126.34 -68 125.68 -68 125 C-68.66 125 -69.32 125 -70 125 C-72.625 122.625 -72.625 122.625 -75 120 C-75 119.34 -75 118.68 -75 118 C-75.598125 117.71125 -76.19625 117.4225 -76.8125 117.125 C-79 116 -79 116 -82 114 C-82 113.34 -82 112.68 -82 112 C-82.5775 111.71125 -83.155 111.4225 -83.75 111.125 C-86.875 109.5625 -86.875 109.5625 -90 108 C-90 107.34 -90 106.68 -90 106 C-90.67933594 105.76539063 -91.35867187 105.53078125 -92.05859375 105.2890625 C-94.96882845 104.01366084 -97.47910253 102.43810187 -100.11425781 100.67382812 C-109.21913927 94.60390715 -118.71053798 90.54549988 -128.96386719 86.80273438 C-131.04576154 85.98195876 -133.01401676 85.02927293 -135 84 C-135.83915724 56.80807803 -131.2273312 34.68301826 -112.34375 14.10546875 C-107.57454085 9.20606568 -107.57454085 9.20606568 -105 7 C-104.34 7 -103.68 7 -103 7 C-103 6.34 -103 5.68 -103 5 C-72.4922356 -19.11870379 -32.86038753 -17.51218213 0 0 Z " fill="#FEC500" transform="translate(239,28)"/>
<path d="M0 0 C0.4021875 0.928125 0.4021875 0.928125 0.8125 1.875 C1.95556848 4.2995233 1.95556848 4.2995233 5 6 C2.6881298 6.73121063 0.37558518 7.46014836 -1.9375 8.1875 C-2.65244629 8.41308594 -3.36739258 8.63867188 -4.10400391 8.87109375 C-7.88787122 10.05689765 -11.67657058 11.20367613 -15.49609375 12.26953125 C-30.61978628 16.06553545 -30.61978628 16.06553545 -42 26 C-42.66 26 -43.32 26 -44 26 C-44.12576416 26.5559082 -44.25152832 27.11181641 -44.38110352 27.68457031 C-45.05892626 30.22045628 -45.9582812 32.59778193 -46.90234375 35.046875 C-48.98107603 40.70402995 -50.35795866 46.35297581 -51.5625 52.25 C-51.77229492 53.24273926 -51.98208984 54.23547852 -52.19824219 55.25830078 C-53.67863058 62.30098055 -55.08531175 69.35833541 -56.421875 76.4296875 C-57 79 -57 79 -58 80 C-60.35313555 80.07271741 -62.70833668 80.08370868 -65.0625 80.0625 C-66.99802734 80.04896484 -66.99802734 80.04896484 -68.97265625 80.03515625 C-69.97167969 80.02355469 -70.97070312 80.01195312 -72 80 C-73.60723331 75.00911763 -74.28586573 70.68606139 -74.4140625 65.3984375 C-74.43347397 64.68731308 -74.45288544 63.97618866 -74.47288513 63.24351501 C-74.53272502 60.95412889 -74.57927233 58.66470765 -74.625 56.375 C-74.66282593 54.80101319 -74.70115829 53.22703848 -74.73999023 51.65307617 C-75.01199096 40.10211194 -75.12077224 28.55387718 -75 17 C-74.67 17 -74.34 17 -74 17 C-74 19.31 -74 21.62 -74 24 C-73.34 24 -72.68 24 -72 24 C-72 26.64 -72 29.28 -72 32 C-71.01 32.33 -70.02 32.66 -69 33 C-69.33 33.66 -69.66 34.32 -70 35 C-70.66 34.67 -71.32 34.34 -72 34 C-72 43.9 -72 53.8 -72 64 C-71.71084731 59.10881223 -71.71084731 59.10881223 -71.43188477 54.21704102 C-71.11111111 49.11111111 -71.11111111 49.11111111 -70 48 C-69.63239269 45.67182036 -69.29758419 43.3381615 -69 41 C-68.34 41.33 -67.68 41.66 -67 42 C-67 49.59 -67 57.18 -67 65 C-66.34 65.33 -65.68 65.66 -65 66 C-64.67 64.68 -64.34 63.36 -64 62 C-63.34 62.99 -62.68 63.98 -62 65 C-60.81693272 62.63386544 -60.86645392 61.13219264 -60.875 58.5 C-60.87242187 57.7059375 -60.86984375 56.911875 -60.8671875 56.09375 C-60.86722004 53.94081466 -60.86722004 53.94081466 -62 52 C-61.67 51.01 -61.34 50.02 -61 49 C-59.515 48.505 -59.515 48.505 -58 48 C-56.77479736 44.99152582 -56.77479736 44.99152582 -56 42 C-54.68 42.33 -53.36 42.66 -52 43 C-52.7425 42.4740625 -52.7425 42.4740625 -53.5 41.9375 C-55.81427231 38.9482316 -55.37460334 36.68359949 -55 33 C-53.5 29.5625 -53.5 29.5625 -52 27 C-51.34 27 -50.68 27 -50 27 C-50.495 24.525 -50.495 24.525 -51 22 C-50.113125 21.608125 -49.22625 21.21625 -48.3125 20.8125 C-44.86164784 18.92429787 -42.72734198 16.79911414 -40 14 C-37.6875 12.6875 -37.6875 12.6875 -36 12 C-36 12.66 -36 13.32 -36 14 C-34.6078125 12.7315625 -34.6078125 12.7315625 -33.1875 11.4375 C-31.60546875 9.99609375 -31.60546875 9.99609375 -30 9 C-29.01 9.33 -28.02 9.66 -27 10 C-27 9.01 -27 8.02 -27 7 C-25.02 7 -23.04 7 -21 7 C-20.67 5.68 -20.34 4.36 -20 3 C-18.35 3 -16.7 3 -15 3 C-15 3.99 -15 4.98 -15 6 C-11.26512223 5.5020163 -9.18762365 5.12508244 -6 3 C-4.68 3 -3.36 3 -2 3 C-2 2.34 -2 1.68 -2 1 C-1.34 0.67 -0.68 0.34 0 0 Z " fill="#02CC48" transform="translate(261,304)"/>
<path d="M0 0 C1 1 1 1 1.16796875 4.51953125 C1.10637486 9.05627476 0.33245276 13.27826918 -0.6875 17.6875 C-0.86249023 18.46335449 -1.03748047 19.23920898 -1.21777344 20.03857422 C-2.85231463 26.96611921 -5.18027286 33.45915755 -8 40 C-8.33 40 -8.66 40 -9 40 C-9 36.37 -9 32.74 -9 29 C-7.68 28.67 -6.36 28.34 -5 28 C-5.04125 26.96875 -5.0825 25.9375 -5.125 24.875 C-5.00424851 21.13170373 -4.35127982 18.46265453 -3 15 C-4.98 14.67 -6.96 14.34 -9 14 C-9.495 12.515 -9.495 12.515 -10 11 C-10.66 11.99 -11.32 12.98 -12 14 C-12.99 14 -13.98 14 -15 14 C-15.495 11.525 -15.495 11.525 -16 9 C-16.99 8.67 -17.98 8.34 -19 8 C-19 7.34 -19 6.68 -19 6 C-21.57737166 7.03094867 -22.76284247 7.5108626 -24 10.0625 C-25 12 -25 12 -26.875 12.8125 C-29.17030283 13.01502672 -30.81733924 12.70156953 -33 12 C-33 12.99 -33 13.98 -33 15 C-35.39541268 15.19585135 -37.79092774 15.38192107 -40.1875 15.5625 C-41.19780273 15.64661133 -41.19780273 15.64661133 -42.22851562 15.73242188 C-46.04587285 16.0117407 -49.27714279 15.81225975 -53 15 C-55.16715557 15.87483915 -55.16715557 15.87483915 -57 17 C-58.33333333 17 -59.66666667 17 -61 17 C-61.66 16.34 -62.32 15.68 -63 15 C-63.99 15 -64.98 15 -66 15 C-67.66666667 15 -69.33333333 15 -71 15 C-71.0825 15.78375 -71.165 16.5675 -71.25 17.375 C-72 20 -72 20 -73.6875 21.3125 C-76.52166325 22.15508907 -79.05252175 22 -82 22 C-84.30230766 22.89831016 -84.30230766 22.89831016 -86 24 C-86 24.66 -86 25.32 -86 26 C-84.68 26.33 -83.36 26.66 -82 27 C-81.67 26.34 -81.34 25.68 -81 25 C-80.67 25.99 -80.34 26.98 -80 28 C-89.55737705 32.14754098 -89.55737705 32.14754098 -93 31 C-93.33 29.35 -93.66 27.7 -94 26 C-89.17105619 22.37357023 -84.42038403 19.51420173 -78.9375 17 C-78.19580566 16.65678711 -77.45411133 16.31357422 -76.68994141 15.95996094 C-53.23560752 5.28017643 -25.94980286 -1.70097793 0 0 Z " fill="#01C94B" transform="translate(369,176)"/>
<path d="M0 0 C12.71460217 11.84258299 19.14195312 31.47519726 25.25 47.25 C25.66233887 48.31436279 26.07467773 49.37872559 26.49951172 50.4753418 C30.37282135 60.66143903 33.71604015 70.99149741 36.125 81.625 C36.28967773 82.34228271 36.45435547 83.05956543 36.62402344 83.79858398 C38.53862916 92.23896218 40.32813525 100.30441588 40 109 C38.4375 107.4375 38.4375 107.4375 37 105 C37.3125 101.25 37.3125 101.25 38 98 C36.02 98.99 34.04 99.98 32 101 C30.8422494 97.52674819 30.93133348 94.63932552 31 91 C30.01 90.67 29.02 90.34 28 90 C28 88.35 28 86.7 28 85 C26.68 84.67 25.36 84.34 24 84 C24 82.02 24 80.04 24 78 C25.485 78.495 25.485 78.495 27 79 C27.54162925 76.0887428 28 73.34098118 28 70.375 C28 68.06120512 28.34558969 66.20863479 29 64 C28.01 63.34 27.02 62.68 26 62 C25.015625 59.5390625 25.015625 59.5390625 24.25 56.625 C23.98703125 55.66851562 23.7240625 54.71203125 23.453125 53.7265625 C23.00735336 51.04424693 23.11128992 49.53402469 24 47 C23.34 47 22.68 47 22 47 C21.67 45.68 21.34 44.36 21 43 C20.34 43 19.68 43 19 43 C19 43.66 19 44.32 19 45 C17 44 17 44 16 41 C15.34 41.66 14.68 42.32 14 43 C13.67 42.01 13.34 41.02 13 40 C13.33 39.34 13.66 38.68 14 38 C12.515 37.505 12.515 37.505 11 37 C7.72445302 31.81371728 6.47728854 25.88819972 5 20 C5.33 19.67 5.66 19.34 6 19 C6.04063832 17.33382885 6.042721 15.66611905 6 14 C5.01 13.67 4.02 13.34 3 13 C2.67 10.69 2.34 8.38 2 6 C0.02 6.33 -1.96 6.66 -4 7 C-4 6.01 -4 5.02 -4 4 C-3.01 4 -2.02 4 -1 4 C-0.67 2.68 -0.34 1.36 0 0 Z " fill="#00C847" transform="translate(164,188)"/>
<path d="M0 0 C0.763125 0.165 1.52625 0.33 2.3125 0.5 C5.03596236 1.09145396 5.03596236 1.09145396 8 1 C7.67 2.32 7.34 3.64 7 5 C6.34 5 5.68 5 5 5 C4.855625 5.61875 4.71125 6.2375 4.5625 6.875 C4 9 4 9 3 11 C2.34 11 1.68 11 1 11 C0.8040625 11.67675781 0.608125 12.35351562 0.40625 13.05078125 C-1.53982192 17.13212653 -4.38088873 19.95415966 -7.5 23.1875 C-8.12640381 23.84661377 -8.75280762 24.50572754 -9.39819336 25.18481445 C-11.25611259 27.13248365 -13.12522205 29.06856527 -15 31 C-15.51320801 31.52980469 -16.02641602 32.05960937 -16.55517578 32.60546875 C-25.09819203 41.38685369 -25.09819203 41.38685369 -30 45 C-30.66 45 -31.32 45 -32 45 C-33 42 -33 42 -33 38 C-30.8684706 34.47477831 -29.79813566 33.19953392 -25.75 32.1875 C-24.8425 32.125625 -23.935 32.06375 -23 32 C-23 29.36 -23 26.72 -23 24 C-21.68 23.34 -20.36 22.68 -19 22 C-19 20.68 -19 19.36 -19 18 C-17.9275 18 -16.855 18 -15.75 18 C-12.01358689 17.42313825 -12.01358689 17.42313825 -10.64453125 15.15234375 C-9.65559657 13.12806229 -8.7755243 11.11462836 -8 9 C-7.01 9.33 -6.02 9.66 -5 10 C-5 10.66 -5 11.32 -5 12 C-4.34 12 -3.68 12 -3 12 C-2.95101563 11.38511719 -2.90203125 10.77023438 -2.8515625 10.13671875 C-2.77679688 9.32847656 -2.70203125 8.52023438 -2.625 7.6875 C-2.55539062 6.88699219 -2.48578125 6.08648437 -2.4140625 5.26171875 C-2 3 -2 3 0 0 Z " fill="#00CA48" transform="translate(339,241)"/>
<path d="M0 0 C0.33 0 0.66 0 1 0 C1 2.31 1 4.62 1 7 C1.66 7 2.32 7 3 7 C3 9.64 3 12.28 3 15 C3.99 15.33 4.98 15.66 6 16 C5.67 16.66 5.34 17.32 5 18 C4.34 17.67 3.68 17.34 3 17 C3 26.9 3 36.8 3 47 C3.28915269 42.10881223 3.28915269 42.10881223 3.56811523 37.21704102 C3.88888889 32.11111111 3.88888889 32.11111111 5 31 C5.36760731 28.67182036 5.70241581 26.3381615 6 24 C6.66 24.33 7.32 24.66 8 25 C8 32.59 8 40.18 8 48 C8.66 48.33 9.32 48.66 10 49 C10.33 47.68 10.66 46.36 11 45 C13.19097652 48.3340947 14.43454163 51.04179141 15 55 C15.99 54.505 15.99 54.505 17 54 C17 52.35 17 50.7 17 49 C17.66 49 18.32 49 19 49 C19.33 48.34 19.66 47.68 20 47 C20.38388527 53.01420257 19.08764885 57.34595103 17 63 C12.38 63 7.76 63 3 63 C1.39276669 58.00911763 0.71413427 53.68606139 0.5859375 48.3984375 C0.56652603 47.68731308 0.54711456 46.97618866 0.52711487 46.24351501 C0.46727498 43.95412889 0.42072767 41.66470765 0.375 39.375 C0.33717407 37.80101319 0.29884171 36.22703848 0.26000977 34.65307617 C-0.01199096 23.10211194 -0.12077224 11.55387718 0 0 Z " fill="#02CD4F" transform="translate(186,321)"/>
<path d="M0 0 C1 1 1 1 1.16796875 4.51953125 C1.10637486 9.05627476 0.33245276 13.27826918 -0.6875 17.6875 C-0.86249023 18.46335449 -1.03748047 19.23920898 -1.21777344 20.03857422 C-2.85231463 26.96611921 -5.18027286 33.45915755 -8 40 C-8.33 40 -8.66 40 -9 40 C-9 36.37 -9 32.74 -9 29 C-7.68 28.67 -6.36 28.34 -5 28 C-5.04125 26.96875 -5.0825 25.9375 -5.125 24.875 C-5.00424851 21.13170373 -4.35127982 18.46265453 -3 15 C-4.98 14.67 -6.96 14.34 -9 14 C-9.495 12.515 -9.495 12.515 -10 11 C-10.66 11.99 -11.32 12.98 -12 14 C-12.99 14 -13.98 14 -15 14 C-15.495 11.525 -15.495 11.525 -16 9 C-16.99 8.67 -17.98 8.34 -19 8 C-19 7.34 -19 6.68 -19 6 C-19.99 6.33 -20.98 6.66 -22 7 C-22 6.34 -22 5.68 -22 5 C-26.10223585 3.98459888 -26.10223585 3.98459888 -30 5 C-31.53668865 5.22467831 -33.07968054 5.40796805 -34.625 5.5625 C-35.44226563 5.64628906 -36.25953125 5.73007813 -37.1015625 5.81640625 C-38.04128906 5.90728516 -38.04128906 5.90728516 -39 6 C-39 6.33 -39 6.66 -39 7 C-41.97 7 -44.94 7 -48 7 C-47.67 8.65 -47.34 10.3 -47 12 C-50.14737182 11.30058404 -53.02588876 10.23921302 -56 9 C-56 8.67 -56 8.34 -56 8 C-37.72611141 2.98077193 -19.09882475 -1.25190467 0 0 Z " fill="#03CA44" transform="translate(369,176)"/>
<path d="M0 0 C3.31248078 -0.02945031 6.62492711 -0.04694801 9.9375 -0.0625 C10.86369141 -0.07087891 11.78988281 -0.07925781 12.74414062 -0.08789062 C18.58300303 -0.10837786 24.20913053 0.24570213 30 1 C26.0835948 2.98689421 22.12345035 4.4880682 18 6 C18.99 7.485 18.99 7.485 20 9 C18.54207116 9.05399736 17.08357288 9.09279177 15.625 9.125 C14.81289063 9.14820313 14.00078125 9.17140625 13.1640625 9.1953125 C11 9 11 9 9 7 C5.01408344 9.39154993 4.18393861 11.57856555 3 16 C2.68704255 19.29329804 2.68704255 19.29329804 2.75 22.625 C2.74484375 23.73101562 2.7396875 24.83703125 2.734375 25.9765625 C2.99720094 28.96814009 3.58069546 30.4242251 5 33 C5.42927877 34.65351822 5.80276513 36.32233273 6.125 38 C6.29257812 38.845625 6.46015625 39.69125 6.6328125 40.5625 C7 43 7 43 7 47 C8.32 47.66 9.64 48.32 11 49 C10.34 51.31 9.68 53.62 9 56 C7 55 7 55 6.03515625 52.62109375 C2.26200931 40.27123531 -0.06817275 28.24493102 -0.75 15.375 C-0.79471436 14.53380615 -0.83942871 13.6926123 -0.88549805 12.82592773 C-1.06589082 8.39717377 -0.93241954 4.36541877 0 0 Z " fill="#3FD373" transform="translate(15,120)"/>
<path d="M0 0 C4.67907646 0 9.23242302 0.93143521 13.84765625 1.66015625 C16.89788444 2.276269 16.89788444 2.276269 19 1 C19.66 1.33 20.32 1.66 21 2 C20.67 3.32 20.34 4.64 20 6 C18.02 6 16.04 6 14 6 C14 8.97 14 11.94 14 15 C14.33 14.34 14.66 13.68 15 13 C15.99 13.33 16.98 13.66 18 14 C17.67 14.66 17.34 15.32 17 16 C18.32 16 19.64 16 21 16 C23.08797256 16.3029183 25.17136922 16.638499 27.25 17 C28.32765625 17.185625 29.4053125 17.37125 30.515625 17.5625 C31.33546875 17.706875 32.1553125 17.85125 33 18 C33.495 19.485 33.495 19.485 34 21 C33.01 21 32.02 21 31 21 C30.34 23.31 29.68 25.62 29 28 C30.65 28.33 32.3 28.66 34 29 C33.34 29.99 32.68 30.98 32 32 C28.03935893 30.25731793 24.25563451 27.85325271 21 25 C21 24.34 21 23.68 21 23 C20.34 23 19.68 23 19 23 C19 22.34 19 21.68 19 21 C18.34 21 17.68 21 17 21 C17 20.34 17 19.68 17 19 C16.41734375 18.7525 15.8346875 18.505 15.234375 18.25 C12.66885764 16.81474554 11.16275202 15.22336987 9.25 13 C8.63640625 12.29875 8.0228125 11.5975 7.390625 10.875 C6 9 6 9 6 7 C5.34 7 4.68 7 4 7 C0 2.52941176 0 2.52941176 0 0 Z " fill="#0AC34F" transform="translate(50,227)"/>
<path d="M0 0 C1.7074998 1.28062485 3.37373596 2.61767557 5 4 C5 4.66 5 5.32 5 6 C5.66 6 6.32 6 7 6 C17.11675783 23.19597795 24.27604508 39.05215849 24.0625 59.4375 C24.05798828 60.26443359 24.05347656 61.09136719 24.04882812 61.94335938 C24.03715811 63.96227146 24.01922718 65.98114574 24 68 C23.67 68 23.34 68 23 68 C22.67 62.72 22.34 57.44 22 52 C20.35 51.34 18.7 50.68 17 50 C16.1875 47.375 16.1875 47.375 16 45 C16.99 45 17.98 45 19 45 C19.495 45.495 19.495 45.495 20 46 C20 44.02 20 42.04 20 40 C19.67 40.99 19.34 41.98 19 43 C17.515 42.505 17.515 42.505 16 42 C16 41.34 16 40.68 16 40 C14.515 40.495 14.515 40.495 13 41 C12.66151348 39.10507994 12.32943089 37.20901534 12 35.3125 C11.7215625 33.72888672 11.7215625 33.72888672 11.4375 32.11328125 C10.83302099 27.81176544 10.76306791 24.17464582 12 20 C11.34 20 10.68 20 10 20 C10 19.34 10 18.68 10 18 C9.34 17.67 8.68 17.34 8 17 C8.33 16.01 8.66 15.02 9 14 C7.0745356 12.8509288 7.0745356 12.8509288 5 13 C4.690625 12.21625 4.38125 11.4325 4.0625 10.625 C3.07124962 8.07669872 3.07124962 8.07669872 2 6 C1.32136945 4.0040278 0.65358081 2.00431449 0 0 Z " fill="#FFD200" transform="translate(255,43)"/>
<path d="M0 0 C0 3 0 3 -1 5 C-0.01 4.67 0.98 4.34 2 4 C4.21311475 9.40983607 4.21311475 9.40983607 3.1875 12.25 C2.5996875 13.11625 2.5996875 13.11625 2 14 C1.67 14.66 1.34 15.32 1 16 C-0.64363134 16.72159424 -2.31050386 17.39351421 -4 18 C-4 18.99 -4 19.98 -4 21 C-4.66 21.66 -5.32 22.32 -6 23 C-5.34 23 -4.68 23 -4 23 C-4 24.32 -4 25.64 -4 27 C-4.66 27.639375 -5.32 28.27875 -6 28.9375 C-8.29325271 30.83547923 -8.29325271 30.83547923 -8.0625 33.625 C-8.041875 34.40875 -8.02125 35.1925 -8 36 C-8.99 36.66 -9.98 37.32 -11 38 C-11.50621513 40.02276681 -11.50621513 40.02276681 -11.51171875 42.3515625 C-11.54716797 43.20234375 -11.58261719 44.053125 -11.61914062 44.9296875 C-11.64169922 45.81914063 -11.66425781 46.70859375 -11.6875 47.625 C-11.72166016 48.5221875 -11.75582031 49.419375 -11.79101562 50.34375 C-11.87362402 52.56237538 -11.94272719 54.7805994 -12 57 C-12.33 57 -12.66 57 -13 57 C-13.66013259 35.60916511 -11.46803659 19.82809327 -1 1 C-0.67 0.67 -0.34 0.34 0 0 Z " fill="#FEEA4F" transform="translate(117,55)"/>
<path d="M0 0 C8.06700234 7.41876108 16.35018602 20.95316236 17 32 C16.67 32.99 16.34 33.98 16 35 C15.34 35 14.68 35 14 35 C14 35.66 14 36.32 14 37 C13.01 37 12.02 37 11 37 C7.94226163 31.61255621 6.50170462 25.98551772 5 20 C5.33 19.67 5.66 19.34 6 19 C6.04063832 17.33382885 6.042721 15.66611905 6 14 C5.01 13.67 4.02 13.34 3 13 C2.67 10.69 2.34 8.38 2 6 C0.02 6.33 -1.96 6.66 -4 7 C-4 6.01 -4 5.02 -4 4 C-3.01 4 -2.02 4 -1 4 C-0.67 2.68 -0.34 1.36 0 0 Z " fill="#24D16C" transform="translate(164,188)"/>
<path d="M0 0 C1.1446875 0.3403125 1.1446875 0.3403125 2.3125 0.6875 C9.00283503 1.88636289 9.00283503 1.88636289 15.3125 -0.3125 C15.9725 1.0075 16.6325 2.3275 17.3125 3.6875 C12.66693046 6.96369405 7.89835031 9.47843169 2.75 11.875 C1.6372168 12.40770508 1.6372168 12.40770508 0.50195312 12.95117188 C-3.20712882 14.6917651 -6.58317568 16.14296588 -10.6875 16.6875 C-10.0275 15.0375 -9.3675 13.3875 -8.6875 11.6875 C-9.3475 11.6875 -10.0075 11.6875 -10.6875 11.6875 C-10.3575 10.3675 -10.0275 9.0475 -9.6875 7.6875 C-8.6975 8.6775 -7.7075 9.6675 -6.6875 10.6875 C-4.21926154 7.34348531 -4.21926154 7.34348531 -4 3.375 C-4.3403125 2.5396875 -4.3403125 2.5396875 -4.6875 1.6875 C-1.6875 -0.3125 -1.6875 -0.3125 0 0 Z " fill="#00C94C" transform="translate(276.6875,292.3125)"/>
<path d="M0 0 C0.66 0 1.32 0 2 0 C2 0.66 2 1.32 2 2 C6.455 1.505 6.455 1.505 11 1 C11 1.99 11 2.98 11 4 C12.32 4 13.64 4 15 4 C15.33 4.99 15.66 5.98 16 7 C17.175625 6.7215625 17.175625 6.7215625 18.375 6.4375 C21 6 21 6 23 7 C23 7.66 23 8.32 23 9 C23.99 9.33 24.98 9.66 26 10 C25.34 10.33 24.68 10.66 24 11 C23.34 10.67 22.68 10.34 22 10 C21.67 10.66 21.34 11.32 21 12 C23.97 12.495 23.97 12.495 27 13 C27 13.66 27 14.32 27 15 C21.70715156 14.36874285 16.7876071 13.22174423 11.6875 11.6875 C10.94636963 11.46747314 10.20523926 11.24744629 9.44165039 11.02075195 C3.82868309 9.32321042 -1.62883449 7.36225707 -7 5 C-6.01 3.68 -5.02 2.36 -4 1 C-2.68 1.33 -1.36 1.66 0 2 C0 1.34 0 0.68 0 0 Z " fill="#02CD46" transform="translate(127,276)"/>
<path d="M0 0 C1.32 0.33 2.64 0.66 4 1 C5.409845 8.69006362 4.23007556 14.5538155 2 22 C1.34 22 0.68 22 0 22 C0 22.66 0 23.32 0 24 C-0.66 24 -1.32 24 -2 24 C-1.67 26.31 -1.34 28.62 -1 31 C-2.32 30.67 -3.64 30.34 -5 30 C-6.125 24.375 -6.125 24.375 -5 21 C-4.90796257 19.48138245 -4.86998716 17.95889574 -4.875 16.4375 C-4.87242187 15.65246094 -4.86984375 14.86742187 -4.8671875 14.05859375 C-4.87023634 11.93561023 -4.87023634 11.93561023 -6 10 C-5.67 9.01 -5.34 8.02 -5 7 C-4.01 6.67 -3.02 6.34 -2 6 C-0.77479736 2.99152582 -0.77479736 2.99152582 0 0 Z " fill="#00CA48" transform="translate(205,346)"/>
<path d="M0 0 C5.72306781 1.9798377 10.6793281 4.36794733 15.8125 7.5625 C16.46669922 7.96146484 17.12089844 8.36042969 17.79492188 8.77148438 C20.56485933 10.46626735 23.29793331 12.19862221 26 14 C26 14.66 26 15.32 26 16 C26.99 16.33 27.98 16.66 29 17 C26 18 26 18 24 18 C24 17.34 24 16.68 24 16 C23.34 16 22.68 16 22 16 C22 16.99 22 17.98 22 19 C20.35 19 18.7 19 17 19 C17 18.34 17 17.68 17 17 C15.02 17.33 13.04 17.66 11 18 C11.33 17.01 11.66 16.02 12 15 C12.99 15 13.98 15 15 15 C15 14.34 15 13.68 15 13 C12.69 13 10.38 13 8 13 C7.87625 12.1028125 7.87625 12.1028125 7.75 11.1875 C6.79394921 8.39901853 5.32024306 7.72147066 3 6 C3 5.01 3 4.02 3 3 C1.68 2.67 0.36 2.34 -1 2 C-0.67 1.34 -0.34 0.68 0 0 Z " fill="#01CB4D" transform="translate(107,140)"/>
<path d="M0 0 C1.87643761 1.87643761 1.17984987 4.49805701 1.23046875 6.9921875 C1 9 1 9 -1 12 C-1 11.01 -1 10.02 -1 9 C-1.66 9 -2.32 9 -3 9 C-3 8.01 -3 7.02 -3 6 C-3.66 5.67 -4.32 5.34 -5 5 C-4.01 4.67 -3.02 4.34 -2 4 C-1.67 3.01 -1.34 2.02 -1 1 C-2.62580966 1.11398665 -4.25067157 1.24155659 -5.875 1.375 C-6.77992188 1.44460937 -7.68484375 1.51421875 -8.6171875 1.5859375 C-11.17941903 1.79568132 -11.17941903 1.79568132 -13 4 C-12.67958603 6.60280568 -12.67958603 6.60280568 -12 9 C-12.99 9.66 -13.98 10.32 -15 11 C-15.495 10.01 -15.495 10.01 -16 9 C-16.99 8.67 -17.98 8.34 -19 8 C-19 7.34 -19 6.68 -19 6 C-19.99 6.33 -20.98 6.66 -22 7 C-22 6.34 -22 5.68 -22 5 C-26.10223585 3.98459888 -26.10223585 3.98459888 -30 5 C-31.53668865 5.22467831 -33.07968054 5.40796805 -34.625 5.5625 C-35.44226563 5.64628906 -36.25953125 5.73007813 -37.1015625 5.81640625 C-38.04128906 5.90728516 -38.04128906 5.90728516 -39 6 C-39 6.33 -39 6.66 -39 7 C-41.97 7 -44.94 7 -48 7 C-47.67 8.65 -47.34 10.3 -47 12 C-50.14737182 11.30058404 -53.02588876 10.23921302 -56 9 C-56 8.67 -56 8.34 -56 8 C-37.72611141 2.98077193 -19.09882475 -1.25190467 0 0 Z " fill="#02CE4E" transform="translate(369,176)"/>
<path d="M0 0 C0.763125 0.165 1.52625 0.33 2.3125 0.5 C5.03596236 1.09145396 5.03596236 1.09145396 8 1 C7.67 2.32 7.34 3.64 7 5 C6.34 5 5.68 5 5 5 C4.855625 5.61875 4.71125 6.2375 4.5625 6.875 C4 9 4 9 3 11 C2.34 11 1.68 11 1 11 C0.79632813 11.68449219 0.59265625 12.36898437 0.3828125 13.07421875 C-1.4729266 17.00062718 -4.13684588 19.70301711 -7.125 22.8125 C-7.96998047 23.7087207 -7.96998047 23.7087207 -8.83203125 24.62304688 C-10.2149998 26.08805594 -11.60664785 27.54486312 -13 29 C-13.33 28.01 -13.66 27.02 -14 26 C-12.68 25.34 -11.36 24.68 -10 24 C-10.020625 23.236875 -10.04125 22.47375 -10.0625 21.6875 C-10 19 -10 19 -9 16 C-9.33 15.34 -9.66 14.68 -10 14 C-9.0625 11.375 -9.0625 11.375 -8 9 C-7.01 9.33 -6.02 9.66 -5 10 C-5 10.66 -5 11.32 -5 12 C-4.34 12 -3.68 12 -3 12 C-2.95101563 11.38511719 -2.90203125 10.77023438 -2.8515625 10.13671875 C-2.77679688 9.32847656 -2.70203125 8.52023438 -2.625 7.6875 C-2.52058594 6.48673828 -2.52058594 6.48673828 -2.4140625 5.26171875 C-2 3 -2 3 0 0 Z " fill="#02CA43" transform="translate(339,241)"/>
<path d="M0 0 C0 0.33 0 0.66 0 1 C-2.97 1 -5.94 1 -9 1 C-9.33 1.99 -9.66 2.98 -10 4 C-12.6875 5.4375 -12.6875 5.4375 -16 6 C-19.375 4.125 -19.375 4.125 -22 2 C-22 2.99 -22 3.98 -22 5 C-22.66 5 -23.32 5 -24 5 C-23.67 6.32 -23.34 7.64 -23 9 C-25.5217982 9.90064221 -26.57303018 10.19407719 -29.0625 9.0625 C-29.701875 8.711875 -30.34125 8.36125 -31 8 C-36.14052744 8 -41.6101441 8.0734294 -46 11 C-46.474375 11.53625 -46.94875 12.0725 -47.4375 12.625 C-49 14 -49 14 -51.6875 14.1875 C-52.450625 14.125625 -53.21375 14.06375 -54 14 C-45.50732503 4.76372676 -29.91510712 0.95965177 -17.73046875 0.08203125 C-11.81956037 -0.09554969 -5.91248875 -0.07094987 0 0 Z " fill="#FFD600" transform="translate(198,15)"/>
<path d="M0 0 C0.66 0.33 1.32 0.66 2 1 C2 1.99 2 2.98 2 4 C1.01 4.33 0.02 4.66 -1 5 C-1.66 4.67 -2.32 4.34 -3 4 C-4.51953709 8.91582077 -4.51953709 8.91582077 -5 14 C-6.1875 16.1875 -6.1875 16.1875 -8 18 C-10.6875 18.25 -10.6875 18.25 -13 18 C-12.67 18.99 -12.34 19.98 -12 21 C-13.65 21.99 -15.3 22.98 -17 24 C-17.99 23.34 -18.98 22.68 -20 22 C-20.66 23.32 -21.32 24.64 -22 26 C-22.66 26 -23.32 26 -24 26 C-22.55255498 21.35789822 -19.8576687 18.32053493 -16.5625 14.875 C-15.82676758 14.08802734 -15.82676758 14.08802734 -15.07617188 13.28515625 C-13.72748751 11.84728763 -12.36428599 10.42307394 -11 9 C-10.43152344 8.38382813 -9.86304688 7.76765625 -9.27734375 7.1328125 C-8 6 -8 6 -6 6 C-6 5.34 -6 4.68 -6 4 C-4.03852126 2.61061923 -2.03833424 1.2739589 0 0 Z " fill="#FED100" transform="translate(142,29)"/>
<path d="M0 0 C0.268125 0.61875 0.53625 1.2375 0.8125 1.875 C1.95556848 4.2995233 1.95556848 4.2995233 5 6 C-3.39565679 8.65542308 -11.80215497 11.26490641 -20.25 13.75 C-20.96406006 13.96035889 -21.67812012 14.17071777 -22.41381836 14.38745117 C-25.59557969 15.31878201 -28.7736748 16.23499506 -32 17 C-32 16.01 -32 15.02 -32 14 C-30.35 14 -28.7 14 -27 14 C-27 13.34 -27 12.68 -27 12 C-26.236875 11.938125 -25.47375 11.87625 -24.6875 11.8125 C-21.76948191 11.23064738 -21.76948191 11.23064738 -20.1875 8.4375 C-19.795625 7.633125 -19.40375 6.82875 -19 6 C-19.66 6 -20.32 6 -21 6 C-20.67 5.01 -20.34 4.02 -20 3 C-18.35 3 -16.7 3 -15 3 C-15 3.99 -15 4.98 -15 6 C-11.26512223 5.5020163 -9.18762365 5.12508244 -6 3 C-4.68 3 -3.36 3 -2 3 C-2 2.34 -2 1.68 -2 1 C-1.34 0.67 -0.68 0.34 0 0 Z " fill="#20D163" transform="translate(261,304)"/>
<path d="M0 0 C0.66 0.99 1.32 1.98 2 3 C1.375 5.625 1.375 5.625 0 8 C-2.125 8.8125 -2.125 8.8125 -4 9 C-4 9.99 -4 10.98 -4 12 C-3.34 12.33 -2.68 12.66 -2 13 C-3.0209375 13.4640625 -3.0209375 13.4640625 -4.0625 13.9375 C-6.24225528 15.79612983 -6.24225528 15.79612983 -6.04296875 18.203125 C-5.77326626 20.4902021 -5.43607646 22.73903835 -5 25 C-4.34 25 -3.68 25 -3 25 C-3 26.32 -3 27.64 -3 29 C-4.98 29 -6.96 29 -9 29 C-9 28.34 -9 27.68 -9 27 C-9.66 27 -10.32 27 -11 27 C-11 28.32 -11 29.64 -11 31 C-10.34 31.33 -9.68 31.66 -9 32 C-9.99 32 -10.98 32 -12 32 C-12 31.01 -12 30.02 -12 29 C-13.32 29.33 -14.64 29.66 -16 30 C-14.55415577 25.16312936 -12.53438293 20.96477401 -10.125 16.5625 C-9.78597656 15.93279297 -9.44695312 15.30308594 -9.09765625 14.65429688 C-6.79683074 10.39820711 -4.41316632 6.19328228 -2 2 C-1.34 2 -0.68 2 0 2 C0 1.34 0 0.68 0 0 Z " fill="#00CA47" transform="translate(233,242)"/>
<path d="M0 0 C3.03231592 1.51615796 3.28461958 3.78669835 4.49609375 6.90625 C4.97240234 8.12570313 5.44871094 9.34515625 5.93945312 10.6015625 C6.18574463 11.24254883 6.43203613 11.88353516 6.68579102 12.54394531 C7.42481393 14.46698901 8.17328663 16.38611425 8.92382812 18.3046875 C16.50160906 37.81670642 16.50160906 37.81670642 16 43 C14.515 42.505 14.515 42.505 13 42 C13.061875 41.05125 13.12375 40.1025 13.1875 39.125 C13.125625 38.09375 13.06375 37.0625 13 36 C12.01 35.34 11.02 34.68 10 34 C9.015625 31.5390625 9.015625 31.5390625 8.25 28.625 C7.98703125 27.66851562 7.7240625 26.71203125 7.453125 25.7265625 C7.00735336 23.04424693 7.11128992 21.53402469 8 19 C7.34 19 6.68 19 6 19 C5.67 17.68 5.34 16.36 5 15 C4.34 15 3.68 15 3 15 C3 15.66 3 16.32 3 17 C1 16 1 16 0 13 C-0.66 13.66 -1.32 14.32 -2 15 C-3.32529578 11.02411267 -2.22711972 8.95405244 -1 5 C-0.64628502 3.33753959 -0.30404678 1.67225729 0 0 Z " fill="#12C357" transform="translate(180,216)"/>
<path d="M0 0 C0.33 0.99 0.66 1.98 1 3 C0.34 3 -0.32 3 -1 3 C-0.67 4.093125 -0.34 5.18625 0 6.3125 C1 10 1 10 1 13 C1.31088368 14.67099977 1.64080332 16.33871537 2 18 C4.64 18.66 7.28 19.32 10 20 C10 23 10 26 10 29 C8 30.75 8 30.75 6 32 C-4.85526088 12.00208008 -4.85526088 12.00208008 -6 8 C-5 5 -5 5 -3 3 C-3.33 2.34 -3.66 1.68 -4 1 C-2.68 0.67 -1.36 0.34 0 0 Z " fill="#1CCF5D" transform="translate(32,177)"/>
<path d="M0 0 C2.64 0.33 5.28 0.66 8 1 C8 1.99 8 2.98 8 4 C9.258125 3.814375 10.51625 3.62875 11.8125 3.4375 C14.82744268 2.99267239 16.00468461 3.00156154 19 4 C18.67 3.01 18.34 2.02 18 1 C20.375 1.5625 20.375 1.5625 23 3 C24.4375 6.4375 24.4375 6.4375 25 10 C24.01 11.485 24.01 11.485 23 13 C23.33 13.66 23.66 14.32 24 15 C20.45756548 13.63408831 17.07372071 12.09068516 13.6875 10.375 C12.80449219 9.92898438 11.92148438 9.48296875 11.01171875 9.0234375 C10.34785156 8.68570312 9.68398437 8.34796875 9 8 C9 7.34 9 6.68 9 6 C8.2575 5.7525 7.515 5.505 6.75 5.25 C3.79875938 3.90852699 2.15185026 2.39094474 0 0 Z " fill="#25D06B" transform="translate(82,259)"/>
<path d="M0 0 C-0.99 0 -1.98 0 -3 0 C-3 0.66 -3 1.32 -3 2 C-4.65 2 -6.3 2 -8 2 C-8.0825 2.78375 -8.165 3.5675 -8.25 4.375 C-9 7 -9 7 -10.6875 8.3125 C-13.52166325 9.15508907 -16.05252175 9 -19 9 C-21.30230766 9.89831016 -21.30230766 9.89831016 -23 11 C-23 11.66 -23 12.32 -23 13 C-21.68 13.33 -20.36 13.66 -19 14 C-18.67 13.34 -18.34 12.68 -18 12 C-17.67 12.99 -17.34 13.98 -17 15 C-26.55737705 19.14754098 -26.55737705 19.14754098 -30 18 C-30.33 16.35 -30.66 14.7 -31 13 C-25.97400541 9.19726335 -20.98030125 6.35013669 -15.25 3.75 C-14.49589844 3.399375 -13.74179687 3.04875 -12.96484375 2.6875 C-4.27350753 -1.32626096 -4.27350753 -1.32626096 0 0 Z " fill="#09C74E" transform="translate(306,189)"/>
<path d="M0 0 C17.85649203 -0.18451025 17.85649203 -0.18451025 26 1 C22.10272859 3.01885681 18.11802472 4.4900576 14 6 C14.99 7.485 14.99 7.485 16 9 C14.54207116 9.05399736 13.08357288 9.09279177 11.625 9.125 C10.81289063 9.14820313 10.00078125 9.17140625 9.1640625 9.1953125 C7 9 7 9 5 7 C3.02 7.99 3.02 7.99 1 9 C0.29925156 5.846632 0 3.27275026 0 0 Z " fill="#04D253" transform="translate(19,120)"/>
<path d="M0 0 C0 0.66 0 1.32 0 2 C-0.66 2 -1.32 2 -2 2 C-1.67 2.99 -1.34 3.98 -1 5 C-1.97774708 8.91098831 -2.93626874 11.39015485 -6 14 C-6.825 14.886875 -7.65 15.77375 -8.5 16.6875 C-11 19 -11 19 -14 19 C-14.66 18.01 -15.32 17.02 -16 16 C-17.32 16.33 -18.64 16.66 -20 17 C-16.31659274 12.29342405 -12.31599773 8.38751244 -7.75 4.5625 C-7.21858398 4.11342285 -6.68716797 3.6643457 -6.13964844 3.20166016 C-2.25200685 0 -2.25200685 0 0 0 Z " fill="#01C949" transform="translate(269,207)"/>
<path d="M0 0 C5.8845041 3.94291645 10.05708355 8.1154959 14 14 C13.01 14.495 13.01 14.495 12 15 C11.34 14.67 10.68 14.34 10 14 C9.67 14.99 9.34 15.98 9 17 C8.67 16.34 8.34 15.68 8 15 C6.35 15.33 4.7 15.66 3 16 C-1.77607656 8.14258373 -1.77607656 8.14258373 -2 4 C-1.37405501 2.64707166 -0.71151084 1.30995212 0 0 Z " fill="#04C843" transform="translate(140,161)"/>
<path d="M0 0 C4.67907646 0 9.23242302 0.93143521 13.84765625 1.66015625 C16.89788444 2.276269 16.89788444 2.276269 19 1 C19.66 1.33 20.32 1.66 21 2 C20.67 3.32 20.34 4.64 20 6 C18.02 6 16.04 6 14 6 C14 8.31 14 10.62 14 13 C10.06830895 13 8.83572772 11.60580385 6 9 C6 8.34 6 7.68 6 7 C5.34 7 4.68 7 4 7 C0 2.52941176 0 2.52941176 0 0 Z " fill="#14C65A" transform="translate(50,227)"/>
<path d="M0 0 C4.59808129 0.53894425 7.86784369 1.76571528 11.875 4.0625 C12.84179688 4.61035156 13.80859375 5.15820312 14.8046875 5.72265625 C15.89136719 6.35494141 15.89136719 6.35494141 17 7 C17 7.66 17 8.32 17 9 C17.66 9.185625 18.32 9.37125 19 9.5625 C23.31339218 11.62933375 26.51456519 14.76537811 30 18 C29.67 18.66 29.34 19.32 29 20 C27.02 19.67 25.04 19.34 23 19 C22.67 18.01 22.34 17.02 22 16 C19.72791589 14.48527726 17.43980815 13.21990407 15 12 C15 11.34 15 10.68 15 10 C14.2575 10.20625 13.515 10.4125 12.75 10.625 C9.67669159 11.04408751 8.57213134 10.61949011 6 9 C6 8.34 6 7.68 6 7 C5.01 7.33 4.02 7.66 3 8 C3.33 6.02 3.66 4.04 4 2 C2.68 2.33 1.36 2.66 0 3 C0 2.01 0 1.02 0 0 Z " fill="#FFEC53" transform="translate(224,22)"/>
<path d="M0 0 C0.33 0 0.66 0 1 0 C1.38388527 6.01420257 0.08764885 10.34595103 -2 16 C-6.62 16 -11.24 16 -16 16 C-18 9.25 -18 9.25 -18 7 C-17.01 7.33 -16.02 7.66 -15 8 C-14.34 8 -13.68 8 -13 8 C-13 8.66 -13 9.32 -13 10 C-12.34 10.33 -11.68 10.66 -11 11 C-10.67 11.33 -10.34 11.66 -10 12 C-9.67 10.35 -9.34 8.7 -9 7 C-8.34 7 -7.68 7 -7 7 C-6.67 8.65 -6.34 10.3 -6 12 C-5.34 12 -4.68 12 -4 12 C-2.39644899 8.49223216 -1.77963136 5.85645121 -2 2 C-1.34 2 -0.68 2 0 2 C0 1.34 0 0.68 0 0 Z " fill="#02D74F" transform="translate(205,368)"/>
<path d="M0 0 C8.07723468 0.49399397 15.13139525 2.80029066 22.75 5.4375 C23.95527344 5.84548828 25.16054687 6.25347656 26.40234375 6.67382812 C31.31590875 8.34531278 36.19496508 10.03515903 41 12 C38.42786866 13.61949011 37.32330841 14.04408751 34.25 13.625 C33.13625 13.315625 33.13625 13.315625 32 13 C32 12.34 32 11.68 32 11 C25.76839184 8.48083925 22.10531243 9.42497027 16 12 C14 9 14 9 14 6 C13.01 6 12.02 6 11 6 C11 5.01 11 4.02 11 3 C7.37 2.67 3.74 2.34 0 2 C0 1.34 0 0.68 0 0 Z " fill="#45D67B" transform="translate(62,125)"/>
<path d="M0 0 C0.99 0 1.98 0 3 0 C2.36794127 4.83006075 0.3661805 8.71381186 -1.8125 13 C-2.15603516 13.69867188 -2.49957031 14.39734375 -2.85351562 15.1171875 C-4.87223063 19.13189276 -7.03175375 22.58484926 -10 26 C-10.83796731 21.34462607 -11.0161692 17.62921525 -10 13 C-9.01 13 -8.02 13 -7 13 C-7 11.68 -7 10.36 -7 9 C-6.34 9 -5.68 9 -5 9 C-5 7.68 -5 6.36 -5 5 C-3.68 4.67 -2.36 4.34 -1 4 C-0.67 2.68 -0.34 1.36 0 0 Z " fill="#00CD43" transform="translate(357,216)"/>
<path d="M0 0 C0.33 0 0.66 0 1 0 C0.63174225 14.22814042 -5.16509694 27.34277117 -13 39 C-13.99 39.495 -13.99 39.495 -15 40 C-15.08096803 38.54257537 -15.13917774 37.08387193 -15.1875 35.625 C-15.22230469 34.81289062 -15.25710938 34.00078125 -15.29296875 33.1640625 C-15.19628906 32.44992188 -15.09960938 31.73578125 -15 31 C-14.01 30.34 -13.02 29.68 -12 29 C-11.27034634 26.43717258 -11.27034634 26.43717258 -11 24 C-10.34 24 -9.68 24 -9 24 C-9 24.66 -9 25.32 -9 26 C-8.34 26 -7.68 26 -7 26 C-7.3403125 25.1028125 -7.3403125 25.1028125 -7.6875 24.1875 C-7.790625 23.465625 -7.89375 22.74375 -8 22 C-7 21 -6 20 -5 19 C-4.74930087 16.37429296 -4.74930087 16.37429296 -5 14 C-5.99 14.495 -5.99 14.495 -7 15 C-7 12 -7 12 -5 10 C-5 9.34 -5 8.68 -5 8 C-3.68 8 -2.36 8 -1 8 C-0.67 5.36 -0.34 2.72 0 0 Z " fill="#FFEA60" transform="translate(277,113)"/>
<path d="M0 0 C0.33 0 0.66 0 1 0 C0.5547115 5.27315333 -0.08373163 10.01770224 -2 15 C-2.66 15 -3.32 15 -4 15 C-4 15.99 -4 16.98 -4 18 C-7.3 18 -10.6 18 -14 18 C-10.57306316 10.99035645 -5.46368396 5.50349222 0 0 Z " fill="#01CB44" transform="translate(248,224)"/>
<path d="M0 0 C1.65 0 3.3 0 5 0 C0.21823187 5.91429216 -5.03030761 11.26504615 -11 16 C-11.66 16 -12.32 16 -13 16 C-14 13 -14 13 -14 9 C-12.625 6.375 -12.625 6.375 -10 4 C-6.70547659 2.99305319 -3.41325388 2.4364275 0 2 C0 1.34 0 0.68 0 0 Z " fill="#08CC4F" transform="translate(320,270)"/>
<path d="M0 0 C0.66 0.66 1.32 1.32 2 2 C4.43252661 2.46162427 4.43252661 2.46162427 7.125 2.625 C8.03507812 2.69976562 8.94515625 2.77453125 9.8828125 2.8515625 C10.93082031 2.92503906 10.93082031 2.92503906 12 3 C12 3.99 12 4.98 12 6 C4.61704423 7.12621359 4.61704423 7.12621359 1.25 6.4375 C-1.55282511 5.89250623 -2.59105658 6.58786075 -5 8 C-6.33333333 8 -7.66666667 8 -9 8 C-10.33333333 6.66666667 -11.66666667 5.33333333 -13 4 C-12.34 4 -11.68 4 -11 4 C-11 3.34 -11 2.68 -11 2 C-7.18610442 0.20522561 -4.21354337 -0.37453719 0 0 Z " fill="#01C953" transform="translate(317,185)"/>
<path d="M0 0 C0 3 0 3 -1 5 C-0.01 4.67 0.98 4.34 2 4 C4.21311475 9.40983607 4.21311475 9.40983607 3.1875 12.25 C2.5996875 13.11625 2.5996875 13.11625 2 14 C1.67 14.66 1.34 15.32 1 16 C-0.84765625 16.8515625 -0.84765625 16.8515625 -3.0625 17.625 C-4.16271484 18.01558594 -4.16271484 18.01558594 -5.28515625 18.4140625 C-5.85105469 18.60742188 -6.41695313 18.80078125 -7 19 C-7.95551713 11.83362154 -4.72623082 6.96609809 -1 1 C-0.67 0.67 -0.34 0.34 0 0 Z " fill="#FFD000" transform="translate(117,55)"/>
<path d="M0 0 C2.64 0.33 5.28 0.66 8 1 C8 1.66 8 2.32 8 3 C8.66 3 9.32 3 10 3 C10.99 4.485 10.99 4.485 12 6 C12.66 6 13.32 6 14 6 C14.33 6.99 14.66 7.98 15 9 C17.97 9 20.94 9 24 9 C24.92538169 12.70152678 25.08174162 13.63458162 24 17 C22.68 16.67 21.36 16.34 20 16 C20 15.34 20 14.68 20 14 C19.34644531 13.77570313 18.69289062 13.55140625 18.01953125 13.3203125 C13.98269626 11.55517637 10.39564092 9.24105239 6.6875 6.875 C5.94693359 6.40707031 5.20636719 5.93914062 4.44335938 5.45703125 C2.62658032 4.30835804 0.81296963 3.15467631 -1 2 C-0.67 1.34 -0.34 0.68 0 0 Z " fill="#FFEA50" transform="translate(129,120)"/>
<path d="M0 0 C2.26798664 2.26798664 2.44906215 3.21849283 3.0703125 6.2890625 C3.33134766 7.57876953 3.33134766 7.57876953 3.59765625 8.89453125 C3.85869141 10.24611328 3.85869141 10.24611328 4.125 11.625 C4.30675781 12.50285156 4.48851562 13.38070313 4.67578125 14.28515625 C5.73140796 19.62678617 6.19030383 24.55731048 6 30 C4.4375 28.4375 4.4375 28.4375 3 26 C3.3125 22.25 3.3125 22.25 4 19 C2.02 19.99 0.04 20.98 -2 22 C-3.00496852 18.98509443 -3.10335303 16.95818308 -3.0625 13.8125 C-3.05347656 12.91144531 -3.04445312 12.01039063 -3.03515625 11.08203125 C-3.02355469 10.39496094 -3.01195312 9.70789063 -3 9 C-2.01 8.67 -1.02 8.34 0 8 C0 5.36 0 2.72 0 0 Z " fill="#02CB4D" transform="translate(198,267)"/>
<path d="M0 0 C1.2065625 0.0309375 1.2065625 0.0309375 2.4375 0.0625 C2.65505666 5.5014165 2.54178384 9.93330814 0.4375 15.0625 C-1.5425 15.3925 -3.5225 15.7225 -5.5625 16.0625 C-6.62324867 12.13065827 -6.44612449 9.66920258 -5.1875 5.8125 C-4.77371094 4.50539063 -4.77371094 4.50539063 -4.3515625 3.171875 C-3.19418931 0.07790706 -3.19418931 0.07790706 0 0 Z " fill="#01C84A" transform="translate(213.5625,284.9375)"/>
<path d="M0 0 C1.7074998 1.28062485 3.37373596 2.61767557 5 4 C5 4.66 5 5.32 5 6 C5.66 6 6.32 6 7 6 C8.27289905 8.20716463 9.5433605 10.41567485 10.8125 12.625 C11.16892578 13.24246094 11.52535156 13.85992187 11.89257812 14.49609375 C16.51004642 22.54489169 16.51004642 22.54489169 18 26 C17.67 26.99 17.34 27.98 17 29 C17 28.34 17 27.68 17 27 C16.34 27 15.68 27 15 27 C14.34 26.34 13.68 25.68 13 25 C13 25.66 13 26.32 13 27 C12.34 27 11.68 27 11 27 C11.33 24.69 11.66 22.38 12 20 C11.34 20 10.68 20 10 20 C10 19.34 10 18.68 10 18 C9.34 17.67 8.68 17.34 8 17 C8.33 16.01 8.66 15.02 9 14 C7.0745356 12.8509288 7.0745356 12.8509288 5 13 C4.690625 12.21625 4.38125 11.4325 4.0625 10.625 C3.07124962 8.07669872 3.07124962 8.07669872 2 6 C1.32136945 4.0040278 0.65358081 2.00431449 0 0 Z " fill="#FEE848" transform="translate(255,43)"/>
<path d="M0 0 C0 0.99 0 1.98 0 3 C0.20625 3.598125 0.4125 4.19625 0.625 4.8125 C1.17661815 8.03027255 0.31724769 10.05187421 -1 13 C-4.2 16 -4.2 16 -7 16 C-7.12375 15.195625 -7.2475 14.39125 -7.375 13.5625 C-7.684375 12.2940625 -7.684375 12.2940625 -8 11 C-8.66 10.67 -9.32 10.34 -10 10 C-9.67 8.35 -9.34 6.7 -9 5 C-8.443125 4.9175 -7.88625 4.835 -7.3125 4.75 C-4.30285794 3.77389987 -2.37845248 2.04811186 0 0 Z " fill="#00C74E" transform="translate(307,275)"/>
<path d="M0 0 C3.42170626 3.13656407 5.85630802 6.62177375 8.25 10.5625 C8.61351562 11.13935547 8.97703125 11.71621094 9.3515625 12.31054688 C11.06299902 15.09967369 12 16.66657441 12 20 C11.38125 20.12375 10.7625 20.2475 10.125 20.375 C7.80879168 20.87197356 7.80879168 20.87197356 6 23 C6 20 6 17 6 14 C5.01 13.67 4.02 13.34 3 13 C2.67 10.69 2.34 8.38 2 6 C0.02 6.33 -1.96 6.66 -4 7 C-4 6.01 -4 5.02 -4 4 C-3.01 4 -2.02 4 -1 4 C-0.67 2.68 -0.34 1.36 0 0 Z " fill="#5CD784" transform="translate(164,188)"/>
<path d="M0 0 C8.81633954 -0.64773107 16.74263252 0.81335396 25 4 C25.33 4.66 25.66 5.32 26 6 C25.14535156 6.13277344 24.29070312 6.26554687 23.41015625 6.40234375 C22.30542969 6.57894531 21.20070312 6.75554688 20.0625 6.9375 C18.96035156 7.11152344 17.85820312 7.28554688 16.72265625 7.46484375 C14.09573071 7.71845136 14.09573071 7.71845136 13 9 C12.34 8.67 11.68 8.34 11 8 C11 7.34 11 6.68 11 6 C10.01 6.33 9.02 6.66 8 7 C8.185625 6.38125 8.37125 5.7625 8.5625 5.125 C9.23686176 2.95839822 9.23686176 2.95839822 8 1 C5.36 1 2.72 1 0 1 C0 0.67 0 0.34 0 0 Z " fill="#FFE337" transform="translate(198,16)"/>
<path d="M0 0 C0.33 0 0.66 0 1 0 C1 2.31 1 4.62 1 7 C1.66 7 2.32 7 3 7 C3 9.64 3 12.28 3 15 C3.99 15.33 4.98 15.66 6 16 C5.67 16.66 5.34 17.32 5 18 C4.34 17.67 3.68 17.34 3 17 C2.67 27.56 2.34 38.12 2 49 C1.67 49 1.34 49 1 49 C0.32944176 32.65870981 -0.1593085 16.35567221 0 0 Z " fill="#95E4B1" transform="translate(186,321)"/>
<path d="M0 0 C2.49443789 2.49443789 2.74473408 4.27514692 3.5625 7.6875 C3.81128906 8.70199219 4.06007813 9.71648437 4.31640625 10.76171875 C5.717214 17.39754517 6.13322146 23.68632067 6.0625 30.4375 C6.05798828 31.26443359 6.05347656 32.09136719 6.04882812 32.94335938 C6.03715811 34.96227146 6.01922718 36.98114574 6 39 C5.67 39 5.34 39 5 39 C4.67 33.72 4.34 28.44 4 23 C1.525 22.01 1.525 22.01 -1 21 C-1.8125 18.375 -1.8125 18.375 -2 16 C-1.01 16 -0.02 16 1 16 C1.33 16.33 1.66 16.66 2 17 C2 15.02 2 13.04 2 11 C0.68 10.34 -0.64 9.68 -2 9 C-1.34 8.67 -0.68 8.34 0 8 C0 5.36 0 2.72 0 0 Z " fill="#FFE957" transform="translate(273,72)"/>
<path d="M0 0 C0.66 0 1.32 0 2 0 C2.91740621 3.12354971 3.13460306 5.93686438 3.125 9.1875 C3.12757813 10.06792969 3.13015625 10.94835937 3.1328125 11.85546875 C3 14 3 14 2 15 C1.7637353 18.21019977 1.60339698 21.41273872 1.48242188 24.62890625 C1.39075776 26.42413939 1.20240144 28.21385947 1 30 C0.34 30.33 -0.32 30.66 -1 31 C-1.02908633 26.77084783 -1.04682792 22.54172148 -1.0625 18.3125 C-1.07087891 17.11431641 -1.07925781 15.91613281 -1.08789062 14.68164062 C-1.09111328 13.52470703 -1.09433594 12.36777344 -1.09765625 11.17578125 C-1.10289307 10.11270752 -1.10812988 9.04963379 -1.11352539 7.9543457 C-1.00716844 5.1865491 -0.62894788 2.69207103 0 0 Z " fill="#00C739" transform="translate(189,338)"/>
<path d="M0 0 C-0.66 0.99 -1.32 1.98 -2 3 C-4.53125 3.2578125 -4.53125 3.2578125 -7.5 3.125 C-11.39956854 2.84437596 -11.39956854 2.84437596 -15 4 C-16.53668865 4.22467831 -18.07968054 4.40796805 -19.625 4.5625 C-20.44226563 4.64628906 -21.25953125 4.73007813 -22.1015625 4.81640625 C-23.04128906 4.90728516 -23.04128906 4.90728516 -24 5 C-24 5.33 -24 5.66 -24 6 C-26.97 6 -29.94 6 -33 6 C-32.67 7.65 -32.34 9.3 -32 11 C-35.14737182 10.30058404 -38.02588876 9.23921302 -41 8 C-41 7.67 -41 7.34 -41 7 C-27.43105472 3.27306303 -14.19428071 -0.15290069 0 0 Z " fill="#96E6B3" transform="translate(354,177)"/>
<path d="M0 0 C3.82278276 0.26064428 5.57935599 0.61171322 8.4375 3.25 C10 6 10 6 9.75 8.8125 C9.5025 9.534375 9.255 10.25625 9 11 C9.66 11.33 10.32 11.66 11 12 C11 13.65 11 15.3 11 17 C10.34 17 9.68 17 9 17 C7.36136603 14.56866946 5.85078666 12.15228465 4.375 9.625 C3.95476563 8.92632812 3.53453125 8.22765625 3.1015625 7.5078125 C0 2.27140828 0 2.27140828 0 0 Z " fill="#27CF68" transform="translate(39,209)"/>
<path d="M0 0 C2.88444193 3.29650506 3.76617065 6.24921064 4.6875 10.5 C4.93886719 11.6240625 5.19023437 12.748125 5.44921875 13.90625 C6 17 6 17 6 21 C7.32 21.66 8.64 22.32 10 23 C9.34 25.31 8.68 27.62 8 30 C6 29 6 29 5 26.375 C-0.35348837 8.30697674 -0.35348837 8.30697674 0 0 Z " fill="#6DDA9B" transform="translate(16,146)"/>
<path d="M0 0 C14.4 -0.3 14.4 -0.3 19 2 C18.34 3.65 17.68 5.3 17 7 C16.67 6.34 16.34 5.68 16 5 C15.01 5 14.02 5 13 5 C12.67 5.66 12.34 6.32 12 7 C11.01 6.67 10.02 6.34 9 6 C9 5.01 9 4.02 9 3 C6.36 3.66 3.72 4.32 1 5 C0.67 3.35 0.34 1.7 0 0 Z " fill="#FFD500" transform="translate(189,16)"/>
<path d="M0 0 C1.65 1.32 3.3 2.64 5 4 C5.33 3.34 5.66 2.68 6 2 C6.99 2.33 7.98 2.66 9 3 C8.67 3.66 8.34 4.32 8 5 C9.32 5 10.64 5 12 5 C14.01495907 5.61998741 16.0187415 6.27954236 18 7 C18 7.99 18 8.98 18 10 C17.01 10.33 16.02 10.66 15 11 C14.67 11.99 14.34 12.98 14 14 C13.34 14 12.68 14 12 14 C12 13.34 12 12.68 12 12 C11.34 12 10.68 12 10 12 C10 11.34 10 10.68 10 10 C9.34 10 8.68 10 8 10 C8 9.34 8 8.68 8 8 C7.4225 7.7525 6.845 7.505 6.25 7.25 C3.67060021 5.81700012 1.93878408 4.21575324 0 2 C0 1.34 0 0.68 0 0 Z " fill="#22CE66" transform="translate(59,238)"/>
<path d="M0 0 C0.66 0 1.32 0 2 0 C2.33 5.94 2.66 11.88 3 18 C0.525 17.01 0.525 17.01 -2 16 C-2.33 16.66 -2.66 17.32 -3 18 C-3.33278764 11.18401613 -3.24201565 6.07877934 0 0 Z " fill="#00CF52" transform="translate(20,129)"/>
<path d="M0 0 C0.99 0 1.98 0 3 0 C1.79618552 2.49361571 0.54571278 4.68143083 -1 7 C-1.66 7 -2.32 7 -3 7 C-3 7.66 -3 8.32 -3 9 C-3.66 9 -4.32 9 -5 9 C-5 9.66 -5 10.32 -5 11 C-5.66 11 -6.32 11 -7 11 C-7 11.66 -7 12.32 -7 13 C-7.66 13 -8.32 13 -9 13 C-9 13.66 -9 14.32 -9 15 C-10.62626404 16.38232443 -12.2925002 17.71937515 -14 19 C-14.66 18.67 -15.32 18.34 -16 18 C-14.625 15.5 -14.625 15.5 -13 13 C-12.34 13 -11.68 13 -11 13 C-9.60699818 11.04109119 -8.27754554 9.0360882 -7 7 C-6.34 6.01 -5.68 5.02 -5 4 C-5.66 4 -6.32 4 -7 4 C-7.33 4.66 -7.66 5.32 -8 6 C-7.6875 4.0625 -7.6875 4.0625 -7 2 C-6.01 1.67 -5.02 1.34 -4 1 C-4 1.66 -4 2.32 -4 3 C-2.68 3 -1.36 3 0 3 C0 2.01 0 1.02 0 0 Z " fill="#FFE236" transform="translate(259,153)"/>
<path d="M0 0 C1.27259511 0.45341868 2.54301243 0.91295227 3.8125 1.375 C4.52019531 1.63023437 5.22789063 1.88546875 5.95703125 2.1484375 C8 3 8 3 11 5 C11.144375 5.66 11.28875 6.32 11.4375 7 C11.81270124 9.2074709 11.81270124 9.2074709 14.0625 10.25 C14.701875 10.4975 15.34125 10.745 16 11 C15.67 11.66 15.34 12.32 15 13 C12.69 13 10.38 13 8 13 C7.87625 12.1028125 7.87625 12.1028125 7.75 11.1875 C6.79394921 8.39901853 5.32024306 7.72147066 3 6 C3 5.01 3 4.02 3 3 C1.68 2.67 0.36 2.34 -1 2 C-0.67 1.34 -0.34 0.68 0 0 Z " fill="#02CE46" transform="translate(107,140)"/>
<path d="M0 0 C2.64 0.33 5.28 0.66 8 1 C8 1.99 8 2.98 8 4 C10.64 3.67 13.28 3.34 16 3 C16.33 3.66 16.66 4.32 17 5 C16.34 5 15.68 5 15 5 C15 5.99 15 6.98 15 8 C16.32 8.33 17.64 8.66 19 9 C19 9.99 19 10.98 19 12 C15.51329166 10.8905928 12.22515763 9.73662334 9 8 C9 7.34 9 6.68 9 6 C8.2575 5.7525 7.515 5.505 6.75 5.25 C3.79875938 3.90852699 2.15185026 2.39094474 0 0 Z " fill="#13CD60" transform="translate(82,259)"/>
<path d="M0 0 C3.23913108 3.23913108 4.14386756 7.54069729 5.625 11.8125 C5.94984375 12.71548828 6.2746875 13.61847656 6.609375 14.54882812 C7.06957031 15.86463867 7.06957031 15.86463867 7.5390625 17.20703125 C7.81959473 18.0060083 8.10012695 18.80498535 8.38916016 19.62817383 C9.04482214 22.17403959 9.10863116 24.38210526 9 27 C8.01 26.67 7.02 26.34 6 26 C6.061875 25.05125 6.12375 24.1025 6.1875 23.125 C6.0946875 21.578125 6.0946875 21.578125 6 20 C5.01 19.34 4.02 18.68 3 18 C0.6504585 12.16965629 -0.41693222 6.25398325 0 0 Z " fill="#63DD92" transform="translate(187,232)"/>
<path d="M0 0 C0.33 0.99 0.66 1.98 1 3 C0.34 3 -0.32 3 -1 3 C-0.67 4.093125 -0.34 5.18625 0 6.3125 C1 10 1 10 1 13 C1.309375 14.5159375 1.309375 14.5159375 1.625 16.0625 C1.74875 17.031875 1.8725 18.00125 2 19 C1.34 19.66 0.68 20.32 0 21 C-1.03271642 18.90163996 -2.05083717 16.79609109 -3.0625 14.6875 C-3.63097656 13.51574219 -4.19945313 12.34398437 -4.78515625 11.13671875 C-6 8 -6 8 -5 5 C-4.34 4.34 -3.68 3.68 -3 3 C-3.33 2.34 -3.66 1.68 -4 1 C-2.68 0.67 -1.36 0.34 0 0 Z " fill="#44D77F" transform="translate(32,177)"/>
<path d="M0 0 C0 0.33 0 0.66 0 1 C-2.97 1 -5.94 1 -9 1 C-9.33 1.99 -9.66 2.98 -10 4 C-12.8125 5.375 -12.8125 5.375 -16 6 C-16.57621094 5.50113281 -17.15242188 5.00226562 -17.74609375 4.48828125 C-21.08688252 2.28231847 -23.38873619 3.13320359 -27.25 3.8125 C-29.14492187 4.13154297 -29.14492187 4.13154297 -31.078125 4.45703125 C-32.04234375 4.63621094 -33.0065625 4.81539062 -34 5 C-33.67 4.34 -33.34 3.68 -33 3 C-22.20056256 -0.33800793 -11.19724759 -0.13436697 0 0 Z " fill="#FFED52" transform="translate(198,15)"/>
<path d="M0 0 C2 2 2 2 2.2734375 5.1171875 C1.96873431 9.44397287 0.99961022 13.03978199 -0.375 17.125 C-0.59671875 17.81464844 -0.8184375 18.50429687 -1.046875 19.21484375 C-2.23405838 22.8671785 -3.5239399 26.45469677 -5 30 C-5.33 30 -5.66 30 -6 30 C-6 26.37 -6 22.74 -6 19 C-4.68 18.67 -3.36 18.34 -2 18 C-2.061875 16.453125 -2.061875 16.453125 -2.125 14.875 C-2.00424851 11.13170373 -1.35127982 8.46265453 0 5 C-0.99 4.67 -1.98 4.34 -3 4 C-1 1 -1 1 0 0 Z " fill="#70E19C" transform="translate(366,186)"/>
<path d="M0 0 C4.455 0.99 4.455 0.99 9 2 C5.83918877 4.59583531 2.64226013 6.17645154 -1.125 7.75 C-2.17945313 8.19859375 -3.23390625 8.6471875 -4.3203125 9.109375 C-7 10 -7 10 -9 9 C-8.34 7.68 -7.68 6.36 -7 5 C-7.66 5 -8.32 5 -9 5 C-8.67 3.68 -8.34 2.36 -8 1 C-7.443125 1.474375 -6.88625 1.94875 -6.3125 2.4375 C-3.81653926 4.12395996 -1.9553763 4.58953107 1 5 C0.67 3.35 0.34 1.7 0 0 Z " fill="#3AD578" transform="translate(275,299)"/>
<path d="M0 0 C-0.99 0 -1.98 0 -3 0 C-3 0.66 -3 1.32 -3 2 C-4.65 2 -6.3 2 -8 2 C-8.0825 2.78375 -8.165 3.5675 -8.25 4.375 C-9 7 -9 7 -10.5625 8.375 C-14.23195298 9.31588538 -17.2743324 8.6209446 -21 8 C-19.30765783 4.61531567 -15.52037378 3.76753413 -12.1875 2.3125 C-11.46240234 1.97927734 -10.73730469 1.64605469 -9.99023438 1.30273438 C-9.28576172 0.99271484 -8.58128906 0.68269531 -7.85546875 0.36328125 C-7.21246826 0.07751221 -6.56946777 -0.20825684 -5.90698242 -0.50268555 C-3.60686362 -1.10252449 -2.22888923 -0.74151943 0 0 Z " fill="#51D884" transform="translate(306,189)"/>
<path d="M0 0 C5.8845041 3.94291645 10.05708355 8.1154959 14 14 C13.01 14.495 13.01 14.495 12 15 C11.34 14.67 10.68 14.34 10 14 C9.67 14.99 9.34 15.98 9 17 C7.4375 15.75 7.4375 15.75 6 14 C6.30271961 12.65938457 6.63837971 11.32594105 7 10 C6.48396654 7.80092298 6.48396654 7.80092298 5 6 C2.46229997 4.71745356 2.46229997 4.71745356 0 4 C0 4.66 0 5.32 0 6 C-0.66 6 -1.32 6 -2 6 C-1.34 4.02 -0.68 2.04 0 0 Z " fill="#24CB63" transform="translate(140,161)"/>
<path d="M0 0 C5.33171954 0.61996739 8.65611187 2.2030191 12.875 5.4375 C14 7 14 7 13.6875 9.1875 C13.460625 9.785625 13.23375 10.38375 13 11 C12.01 10.67 11.02 10.34 10 10 C8.66893378 9.65772583 7.33599921 9.32248257 6 9 C6 8.34 6 7.68 6 7 C5.01 7.33 4.02 7.66 3 8 C3.33 6.02 3.66 4.04 4 2 C2.68 2.33 1.36 2.66 0 3 C0 2.01 0 1.02 0 0 Z " fill="#FED300" transform="translate(224,22)"/>
<path d="M0 0 C2.20703125 0.05859375 2.20703125 0.05859375 4.8125 0.4375 C8.54394778 0.91065188 11.31690969 0.78126158 15 0 C15.99 0.66 16.98 1.32 18 2 C17.34 2 16.68 2 16 2 C16 2.66 16 3.32 16 4 C17.65 4 19.3 4 21 4 C20.67 4.99 20.34 5.98 20 7 C12.52164523 5.77048326 5.2783523 4.11170763 -2 2 C-1.34 1.34 -0.68 0.68 0 0 Z " fill="#60DA8D" transform="translate(156,290)"/>
<path d="M0 0 C0.33 0 0.66 0 1 0 C0.36934845 5.7809725 -0.65155132 11.3443706 -2 17 C-2.45375 16.525625 -2.9075 16.05125 -3.375 15.5625 C-4.93258204 13.90972192 -4.93258204 13.90972192 -7 13 C-7 11.68 -7 10.36 -7 9 C-6.01 8.34 -5.02 7.68 -4 7 C-2.79549696 4.44816596 -2.79549696 4.44816596 -2 2 C-1.34 2 -0.68 2 0 2 C0 1.34 0 0.68 0 0 Z " fill="#52D885" transform="translate(209,351)"/>
<path d="M0 0 C1.98 0 3.96 0 6 0 C4.21829434 1.87547965 2.41702241 3.45805382 0.375 5.0625 C-2.06031981 6.77866905 -2.06031981 6.77866905 -3 9 C-3.66 9 -4.32 9 -5 9 C-5.13277344 9.56203125 -5.26554688 10.1240625 -5.40234375 10.703125 C-6.02437111 13.09366153 -6.77115041 15.41035775 -7.5625 17.75 C-7.83191406 18.54921875 -8.10132813 19.3484375 -8.37890625 20.171875 C-8.58386719 20.77515625 -8.78882813 21.3784375 -9 22 C-10.05859375 20.12890625 -10.05859375 20.12890625 -11 18 C-10.0625 15.9375 -10.0625 15.9375 -9 14 C-9.33 13.01 -9.66 12.02 -10 11 C-9.34 11 -8.68 11 -8 11 C-8 10.01 -8 9.02 -8 8 C-6.68 8 -5.36 8 -4 8 C-3.67 6.68 -3.34 5.36 -3 4 C-2.34 4 -1.68 4 -1 4 C-0.67 2.68 -0.34 1.36 0 0 Z " fill="#68DC96" transform="translate(222,321)"/>
<path d="M0 0 C0.66 0.33 1.32 0.66 2 1 C1.525625 1.4125 1.05125 1.825 0.5625 2.25 C-1.16266518 4.182185 -1.56584875 5.48192275 -2 8 C-2.99 8 -3.98 8 -5 8 C-6.20628008 10.33214148 -7.1654738 12.49642139 -8 15 C-9.66666667 15.66666667 -11.33333333 16.33333333 -13 17 C-13.33 17.99 -13.66 18.98 -14 20 C-14.66 20 -15.32 20 -16 20 C-14.55255498 15.35789822 -11.8576687 12.32053493 -8.5625 8.875 C-7.82676758 8.08802734 -7.82676758 8.08802734 -7.07617188 7.28515625 C-4.75910633 4.81487045 -2.41534918 2.37441105 0 0 Z " fill="#FFF36C" transform="translate(134,35)"/>
<path d="M0 0 C0 4.07961116 -1.6034759 5.33076956 -4.1875 8.4375 C-4.96480469 9.38496094 -5.74210937 10.33242188 -6.54296875 11.30859375 C-8.868603 13.8560691 -11.24720797 15.93173885 -14 18 C-13.6875 16.0625 -13.6875 16.0625 -13 14 C-12.01 13.67 -11.02 13.34 -10 13 C-10.04125 12.236875 -10.0825 11.47375 -10.125 10.6875 C-9.95701836 7.07589476 -8.50475817 5.50475817 -6 3 C-6 3.66 -6 4.32 -6 5 C-5.01 4.67 -4.02 4.34 -3 4 C-2.67 3.01 -2.34 2.02 -2 1 C-1.34 0.67 -0.68 0.34 0 0 Z " fill="#5BDB90" transform="translate(339,252)"/>
<path d="M0 0 C2.08268593 -0.08126087 4.16628658 -0.13930839 6.25 -0.1875 C7.99023438 -0.23970703 7.99023438 -0.23970703 9.765625 -0.29296875 C13.22351763 0.02024616 14.55544335 0.59779953 17 3 C17 3.33 17 3.66 17 4 C18.32 4.66 19.64 5.32 21 6 C17.80042565 7.05711427 16.03354912 6.95184778 12.890625 5.78515625 C12.13652344 5.51123047 11.38242188 5.23730469 10.60546875 4.95507812 C9.82816406 4.66052734 9.05085937 4.36597656 8.25 4.0625 C7.45722656 3.77181641 6.66445312 3.48113281 5.84765625 3.18164062 C3.89487371 2.46405186 1.94694059 1.73329094 0 1 C0 0.67 0 0.34 0 0 Z " fill="#67DD98" transform="translate(125,282)"/>
<path d="M0 0 C3.38023517 0 5.83468937 0.87455622 9 2 C9 2.66 9 3.32 9 4 C9.66 4 10.32 4 11 4 C11 5.65 11 7.3 11 9 C6.90385231 8.13350722 4.52464275 7.53809513 1.5625 4.5 C0 2 0 2 0 0 Z " fill="#06CD44" transform="translate(50,227)"/>
<path d="M0 0 C1.08667969 0.01804687 2.17335938 0.03609375 3.29296875 0.0546875 C4.54013672 0.08949219 4.54013672 0.08949219 5.8125 0.125 C5.4825 1.115 5.1525 2.105 4.8125 3.125 C3.8225 3.125 2.8325 3.125 1.8125 3.125 C2.1425 4.115 2.4725 5.105 2.8125 6.125 C3.4725 6.455 4.1325 6.785 4.8125 7.125 C-0.25748019 6.47080901 -4.60740777 4.2703591 -9.1875 2.125 C-5.66070901 -0.22619399 -4.15870515 -0.08943452 0 0 Z " fill="#4DDC7E" transform="translate(115.1875,272.875)"/>
<path d="M0 0 C0.99 0 1.98 0 3 0 C2.37954537 4.23322844 0.89476441 7.52290295 -1.0625 11.3125 C-1.61035156 12.38113281 -2.15820312 13.44976562 -2.72265625 14.55078125 C-3.14417969 15.35902344 -3.56570313 16.16726562 -4 17 C-4.66 15.68 -5.32 14.36 -6 13 C-5.34 12.34 -4.68 11.68 -4 11 C-3.59952556 8.67724823 -3.2602896 6.34260643 -3 4 C-2.34 4 -1.68 4 -1 4 C-0.67 2.68 -0.34 1.36 0 0 Z " fill="#5EDC90" transform="translate(357,216)"/>
<path d="M0 0 C3.73884332 2.65654657 5.64978174 4.58110387 7 9 C7.66 9 8.32 9 9 9 C9.33 10.32 9.66 11.64 10 13 C7.03 12.505 7.03 12.505 4 12 C4.33 10.68 4.66 9.36 5 8 C4.01 7.67 3.02 7.34 2 7 C2.33 7.99 2.66 8.98 3 10 C1.68 9.67 0.36 9.34 -1 9 C-1 8.01 -1 7.02 -1 6 C-0.34 6 0.32 6 1 6 C0.67 4.02 0.34 2.04 0 0 Z " fill="#5ADE8D" transform="translate(154,175)"/>
<path d="M0 0 C3 2 3 2 3.6875 4.625 C3.790625 5.40875 3.89375 6.1925 4 7 C4.66 7 5.32 7 6 7 C6.54372951 10.05847848 7 12.88772805 7 16 C5.82750647 14.54634731 4.66216184 13.08692581 3.5 11.625 C2.8503125 10.81289062 2.200625 10.00078125 1.53125 9.1640625 C0 7 0 7 0 5 C-0.66 5 -1.32 5 -2 5 C-2.33 4.01 -2.66 3.02 -3 2 C-2.01 2 -1.02 2 0 2 C0 1.34 0 0.68 0 0 Z " fill="#FFE94C" transform="translate(181,159)"/>
<path d="M0 0 C2.97 0 5.94 0 9 0 C9.92538169 3.70152678 10.08174162 4.63458162 9 8 C7.68 7.67 6.36 7.34 5 7 C5 6.34 5 5.68 5 5 C2.525 4.01 2.525 4.01 0 3 C0 2.01 0 1.02 0 0 Z " fill="#FFDA25" transform="translate(144,129)"/>
<path d="M0 0 C1.485 0.99 1.485 0.99 3 2 C3 2.66 3 3.32 3 4 C3.66 4 4.32 4 5 4 C4.67 7.63 4.34 11.26 4 15 C3.67 15 3.34 15 3 15 C2.67 13.35 2.34 11.7 2 10 C1.01 9.67 0.02 9.34 -1 9 C-1.09765625 2.84765625 -1.09765625 2.84765625 -1 1 C-0.67 0.67 -0.34 0.34 0 0 Z " fill="#21CF64" transform="translate(207,336)"/>
<path d="M0 0 C0.66 0.99 1.32 1.98 2 3 C1.375 5.625 1.375 5.625 0 8 C-2.125 8.8125 -2.125 8.8125 -4 9 C-4 9.99 -4 10.98 -4 12 C-3.34 12.33 -2.68 12.66 -2 13 C-4.35953094 15.35953094 -5.77895617 15.49141413 -9 16 C-7.23570801 11.02790438 -4.6060834 6.56561939 -2 2 C-1.34 2 -0.68 2 0 2 C0 1.34 0 0.68 0 0 Z " fill="#6CDF9C" transform="translate(233,242)"/>
<path d="M0 0 C0.99 0.33 1.98 0.66 3 1 C2.67 3.31 2.34 5.62 2 8 C1.01 8 0.02 8 -1 8 C-1 9.65 -1 11.3 -1 13 C-2.9375 12.6875 -2.9375 12.6875 -5 12 C-5.33 11.01 -5.66 10.02 -6 9 C-5.67 8.34 -5.34 7.68 -5 7 C-4.01 7 -3.02 7 -2 7 C-1.855625 6.21625 -1.71125 5.4325 -1.5625 4.625 C-1 2 -1 2 0 0 Z " fill="#00CB53" transform="translate(358,208)"/>
<path d="M0 0 C1.04449911 3.13349732 0.93423645 3.98968256 0 7 C-0.61875 6.814375 -1.2375 6.62875 -1.875 6.4375 C-4.04160178 5.76313824 -4.04160178 5.76313824 -6 7 C-7.33333333 5.66666667 -8.66666667 4.33333333 -10 3 C-9.34 3 -8.68 3 -8 3 C-8 2.34 -8 1.68 -8 1 C-3.375 -1.125 -3.375 -1.125 0 0 Z " fill="#23D368" transform="translate(314,186)"/>
<path d="M0 0 C0.99 0.99 1.98 1.98 3 3 C0.0094833 6.33557632 -2.93184627 8.15083921 -7 10 C-6.67 7.69 -6.34 5.38 -6 3 C-5.195625 2.690625 -4.39125 2.38125 -3.5625 2.0625 C-1.10919595 1.23664655 -1.10919595 1.23664655 0 0 Z " fill="#FFDF22" transform="translate(241,168)"/>
<path d="M0 0 C2.9719385 1.12451727 5.33440687 2.22293791 8 4 C8 4.66 8 5.32 8 6 C8.99 6.33 9.98 6.66 11 7 C8 8 8 8 6 8 C6 7.34 6 6.68 6 6 C5.34 6 4.68 6 4 6 C4 6.99 4 7.98 4 9 C2.68 8.67 1.36 8.34 0 8 C0.185625 7.236875 0.37125 6.47375 0.5625 5.6875 C1.22819173 2.91032625 1.22819173 2.91032625 0 0 Z " fill="#45D87B" transform="translate(125,150)"/>
<path d="M0 0 C2.97 0.495 2.97 0.495 6 1 C6 1.66 6 2.32 6 3 C6.66 3 7.32 3 8 3 C8.33 2.34 8.66 1.68 9 1 C9.66 1.33 10.32 1.66 11 2 C11 2.66 11 3.32 11 4 C12.32 4.33 13.64 4.66 15 5 C12.11788698 5.96070434 10.30149956 6.10581883 7.3125 6.0625 C6.10013672 6.04896484 6.10013672 6.04896484 4.86328125 6.03515625 C3.94095703 6.01775391 3.94095703 6.01775391 3 6 C2.01 4.02 1.02 2.04 0 0 Z " fill="#FEE94A" transform="translate(194,183)"/>
<path d="M0 0 C0.66 0.33 1.32 0.66 2 1 C1.85691406 1.56203125 1.71382812 2.1240625 1.56640625 2.703125 C0.98879098 5.04545453 0.45716693 7.39417659 -0.0625 9.75 C-0.32740234 10.94882812 -0.32740234 10.94882812 -0.59765625 12.171875 C-0.73042969 12.77515625 -0.86320313 13.3784375 -1 14 C-0.34 14.33 0.32 14.66 1 15 C0.01 15 -0.98 15 -2 15 C-2 14.01 -2 13.02 -2 12 C-3.32 12.33 -4.64 12.66 -6 13 C-4.58707905 8.1725201 -2.57025846 4.2837641 0 0 Z " fill="#57DA86" transform="translate(223,259)"/>
<path d="M0 0 C0 3 0 3 -1 5 C-0.01 4.67 0.98 4.34 2 4 C2.33 4.66 2.66 5.32 3 6 C2.01 6.66 1.02 7.32 0 8 C0.66 8.33 1.32 8.66 2 9 C1.01 9.99 0.02 10.98 -1 12 C-1 11.34 -1 10.68 -1 10 C-3.97 12.475 -3.97 12.475 -7 15 C-6.31168611 11.64446978 -5.04870897 8.86039528 -3.5 5.8125 C-3.0565625 4.93207031 -2.613125 4.05164062 -2.15625 3.14453125 C-1 1 -1 1 0 0 Z " fill="#FFE959" transform="translate(117,55)"/>
<path d="M0 0 C0.99 0.33 1.98 0.66 3 1 C3 1.66 3 2.32 3 3 C3.99 3.33 4.98 3.66 6 4 C5.01 4.495 5.01 4.495 4 5 C3.34 4.67 2.68 4.34 2 4 C1.67 4.66 1.34 5.32 1 6 C3.97 6.495 3.97 6.495 7 7 C7 7.66 7 8.32 7 9 C2.44262737 8.56179109 -0.57653445 8.14958831 -4 5 C-2.25 1.125 -2.25 1.125 0 0 Z " fill="#32D069" transform="translate(147,282)"/>
<path d="M0 0 C2.31243792 -0.02685412 4.6249627 -0.04632841 6.9375 -0.0625 C8.22527344 -0.07410156 9.51304687 -0.08570313 10.83984375 -0.09765625 C14 0 14 0 15 1 C15.36090226 8.45864662 15.36090226 8.45864662 13 12 C13 11.01 13 10.02 13 9 C12.34 9 11.68 9 11 9 C11 8.01 11 7.02 11 6 C10.34 5.67 9.68 5.34 9 5 C9.99 4.67 10.98 4.34 12 4 C12.33 3.01 12.66 2.02 13 1 C8.71 1 4.42 1 0 1 C0 0.67 0 0.34 0 0 Z " fill="#9CEAB8" transform="translate(355,176)"/>
<path d="M0 0 C2 1 4 2 6 3 C4.10908264 3.84442881 2.21202485 4.67511587 0.3125 5.5 C-1.27111328 6.19609375 -1.27111328 6.19609375 -2.88671875 6.90625 C-5.85627816 7.94950801 -7.89195063 8.23065301 -11 8 C-10.01 7.67 -9.02 7.34 -8 7 C-7.731875 6.34 -7.46375 5.68 -7.1875 5 C-6.795625 4.34 -6.40375 3.68 -6 3 C-2.875 2.25 -2.875 2.25 0 2 C0 1.34 0 0.68 0 0 Z " fill="#FFEB55" transform="translate(221,179)"/>
<path d="M0 0 C0.66 0 1.32 0 2 0 C1.74213573 6.52396607 1.17832479 10.87818251 -3 16 C-4.52150158 12.95699684 -4.23899393 10.345915 -4 7 C-3.01 6.34 -2.02 5.68 -1 5 C-0.27034634 2.43717258 -0.27034634 2.43717258 0 0 Z " fill="#FEDF34" transform="translate(266,137)"/>
<path d="M0 0 C7.42686315 -0.10331031 14.63512596 0.00137301 22 1 C13.65665818 5.26157761 13.65665818 5.26157761 9.625 4.625 C9.08875 4.41875 8.5525 4.2125 8 4 C8.66 4 9.32 4 10 4 C9.67 3.34 9.34 2.68 9 2 C6.87423218 1.53348793 6.87423218 1.53348793 4.4375 1.375 C3.61121094 1.30023438 2.78492188 1.22546875 1.93359375 1.1484375 C1.29550781 1.09945312 0.65742188 1.05046875 0 1 C0 0.67 0 0.34 0 0 Z " fill="#7FE6A2" transform="translate(23,120)"/>
<path d="M0 0 C0.66 0 1.32 0 2 0 C2 1.65 2 3.3 2 5 C2.66 5 3.32 5 4 5 C4 5.66 4 6.32 4 7 C2.54077307 6.88590407 1.08259402 6.75834456 -0.375 6.625 C-1.59316406 6.52058594 -1.59316406 6.52058594 -2.8359375 6.4140625 C-5 6 -5 6 -7 4 C-5.75 2.4375 -5.75 2.4375 -4 1 C-1.8125 1.3125 -1.8125 1.3125 0 2 C0 1.34 0 0.68 0 0 Z " fill="#2ACE69" transform="translate(127,276)"/>
<path d="M0 0 C2.50535913 2.34877419 3.90564909 4.0911787 4.265625 7.55859375 C4.25149142 10.04963675 4.17369194 12.51524028 4 15 C3.01 14.67 2.02 14.34 1 14 C0.63906896 11.85529407 0.28642411 9.70919203 -0.0625 7.5625 C-0.25972656 6.36753906 -0.45695312 5.17257813 -0.66015625 3.94140625 C-0.77230469 2.97074219 -0.88445313 2.00007812 -1 1 C-0.67 0.67 -0.34 0.34 0 0 Z " fill="#01CB42" transform="translate(20,149)"/>
<path d="M0 0 C2.64 0 5.28 0 8 0 C8 0.99 8 1.98 8 3 C8.99 3 9.98 3 11 3 C11.33 2.01 11.66 1.02 12 0 C14 1 14 1 16 3 C16 4.32 16 5.64 16 7 C10.53262809 5.25192871 5.24175152 3.34205919 0 1 C0 0.67 0 0.34 0 0 Z " fill="#FEEC55" transform="translate(111,114)"/>
<path d="M0 0 C0.33 0.99 0.66 1.98 1 3 C1.99 3.66 2.98 4.32 4 5 C3.67 6.32 3.34 7.64 3 9 C3.99 9.33 4.98 9.66 6 10 C5.01 11.485 5.01 11.485 4 13 C4 12.34 4 11.68 4 11 C3.34 11 2.68 11 2 11 C2 10.34 2 9.68 2 9 C1.34 9 0.68 9 0 9 C-1.625 6.5 -1.625 6.5 -3 4 C-2.01 2.68 -1.02 1.36 0 0 Z " fill="#FFE235" transform="translate(169,144)"/>
<path d="M0 0 C6.71539173 1.29975324 12.72019113 3.29928888 19 6 C15.52452927 7.94566951 13.87493656 8.07637127 10 7 C10 6.34 10 5.68 10 5 C9.04287109 4.70996094 9.04287109 4.70996094 8.06640625 4.4140625 C6.82697266 4.02347656 6.82697266 4.02347656 5.5625 3.625 C4.73878906 3.36976563 3.91507812 3.11453125 3.06640625 2.8515625 C1 2 1 2 0 0 Z " fill="#6EDC9F" transform="translate(84,131)"/>
<path d="M0 0 C3.77384561 3.77384561 4.125 9.87477764 4.125 15.0625 C4.08375 16.031875 4.0425 17.00125 4 18 C2.015625 16.98046875 2.015625 16.98046875 0 15 C-0.29642569 12.28770497 -0.38061189 10.00260268 -0.25 7.3125 C-0.23195312 6.61060547 -0.21390625 5.90871094 -0.1953125 5.18554688 C-0.14826213 3.45644564 -0.07651873 1.72804795 0 0 Z " fill="#77DFA3" transform="translate(198,267)"/>
<path d="M0 0 C1.65 0 3.3 0 5 0 C7.125 5.625 7.125 5.625 6 9 C4.68 8.67 3.36 8.34 2 8 C0 1.125 0 1.125 0 0 Z " fill="#05C742" transform="translate(174,214)"/>
<path d="M0 0 C0.99 0.33 1.98 0.66 3 1 C3.33 1.99 3.66 2.98 4 4 C2.02 5.32 0.04 6.64 -2 8 C-2.66 7.67 -3.32 7.34 -4 7 C-3.67 6.34 -3.34 5.68 -3 5 C-3.99 4.67 -4.98 4.34 -6 4 C-4 2.66666667 -2 1.33333333 0 0 Z " fill="#44DB7E" transform="translate(290,292)"/>
<path d="M0 0 C1.1446875 0.2475 1.1446875 0.2475 2.3125 0.5 C5.03596236 1.09145396 5.03596236 1.09145396 8 1 C7.67 2.32 7.34 3.64 7 5 C6.34 5 5.68 5 5 5 C4.855625 5.61875 4.71125 6.2375 4.5625 6.875 C4 9 4 9 3 11 C2.01 10.67 1.02 10.34 0 10 C0 9.34 0 8.68 0 8 C0.99 7.67 1.98 7.34 3 7 C3 6.01 3 5.02 3 4 C2.01 4.495 2.01 4.495 1 5 C0.67 3.35 0.34 1.7 0 0 Z " fill="#5BDF8D" transform="translate(339,241)"/>
<path d="M0 0 C0.66 0.33 1.32 0.66 2 1 C1.649375 1.9075 1.29875 2.815 0.9375 3.75 C0.03531221 6.87758436 -0.13381507 8.05208081 1 11 C0.01 11 -0.98 11 -2 11 C-2.66 10.01 -3.32 9.02 -4 8 C-5.32 8.33 -6.64 8.66 -8 9 C-7.04270084 7.87411986 -6.08412105 6.7493285 -5.125 5.625 C-4.59132812 4.99851563 -4.05765625 4.37203125 -3.5078125 3.7265625 C-2.38567993 2.44163349 -1.20628025 1.20628025 0 0 Z " fill="#2DD473" transform="translate(257,215)"/>
<path d="M0 0 C-0.75925781 0.32613281 -1.51851562 0.65226562 -2.30078125 0.98828125 C-3.29464844 1.42527344 -4.28851563 1.86226562 -5.3125 2.3125 C-6.29863281 2.74175781 -7.28476563 3.17101562 -8.30078125 3.61328125 C-10.7755256 4.88467668 -12.09679873 6.05148441 -14 8 C-16.6875 8.1875 -16.6875 8.1875 -19 8 C-16.10566319 4.81213375 -13.41353184 2.96686681 -9.5 1.1875 C-8.5615625 0.74792969 -7.623125 0.30835937 -6.65625 -0.14453125 C-3.86758178 -1.04264645 -2.68941917 -1.03390407 0 0 Z " fill="#FFF466" transform="translate(163,21)"/>
<path d="M0 0 C1.89611434 0.14213297 3.79188394 0.28886907 5.6875 0.4375 C6.74324219 0.51871094 7.79898438 0.59992188 8.88671875 0.68359375 C11.65086297 0.96451681 14.28945741 1.40156852 17 2 C14 3.5 14 3.5 11 5 C8.96855359 4.06553465 6.96466413 3.06775224 5 2 C4.67 3.32 4.34 4.64 4 6 C4 5.01 4 4.02 4 3 C2.68 2.34 1.36 1.68 0 1 C0 0.67 0 0.34 0 0 Z " fill="#74E39E" transform="translate(45,122)"/>
<path d="M0 0 C2.31 0.33 4.62 0.66 7 1 C3.87247409 2.64528614 0.6946943 3.91702499 -2.625 5.125 C-3.58664063 5.47820312 -4.54828125 5.83140625 -5.5390625 6.1953125 C-8 7 -8 7 -10 7 C-10 6.01 -10 5.02 -10 4 C-8.35 4 -6.7 4 -5 4 C-5 3.34 -5 2.68 -5 2 C-3.35 1.67 -1.7 1.34 0 1 C0 0.67 0 0.34 0 0 Z " fill="#7DE0A6" transform="translate(239,314)"/>
<path d="M0 0 C1.80411967 2.75924185 2.0127245 3.88972103 1.625 7.25 C1.41875 8.1575 1.2125 9.065 1 10 C0.34 10 -0.32 10 -1 10 C-1.33 10.66 -1.66 11.32 -2 12 C-3.17571451 8.32589215 -3.07366746 4.83070817 -3 1 C-2.01 1.495 -2.01 1.495 -1 2 C-0.67 1.34 -0.34 0.68 0 0 Z " fill="#03C446" transform="translate(197,267)"/>
<path d="M0 0 C0.33 0 0.66 0 1 0 C1.37851209 5.93002267 0.10575375 10.47239641 -2 16 C-2.33 16 -2.66 16 -3 16 C-3.09765625 9.84765625 -3.09765625 9.84765625 -3 8 C-2.67 7.67 -2.34 7.34 -2 7 C-1.95936168 5.33382885 -1.957279 3.66611905 -2 2 C-1.34 2 -0.68 2 0 2 C0 1.34 0 0.68 0 0 Z " fill="#83E7AC" transform="translate(205,368)"/>
<path d="M0 0 C0.33 0 0.66 0 1 0 C1 1.98 1 3.96 1 6 C1.66 6.33 2.32 6.66 3 7 C2.01 7 1.02 7 0 7 C-0.33 8.65 -0.66 10.3 -1 12 C-1.99 12.33 -2.98 12.66 -4 13 C-3.40895235 8.15340923 -2.02055843 4.39251833 0 0 Z " fill="#6ADA95" transform="translate(216,272)"/>
<path d="M0 0 C0 0.33 0 0.66 0 1 C-2.97 1 -5.94 1 -9 1 C-8.67 2.65 -8.34 4.3 -8 6 C-11.14737182 5.30058404 -14.02588876 4.23921302 -17 3 C-17 2.67 -17 2.34 -17 2 C-15.10787298 1.46585888 -13.21108364 0.94821671 -11.3125 0.4375 C-10.25675781 0.14746094 -9.20101563 -0.14257812 -8.11328125 -0.44140625 C-4.99304618 -1.00124767 -3.02306766 -0.84690764 0 0 Z " fill="#61E394" transform="translate(330,182)"/>
<path d="M0 0 C1.32 0 2.64 0 4 0 C4 0.66 4 1.32 4 2 C3.34 2 2.68 2 2 2 C2 2.66 2 3.32 2 4 C1.34 4 0.68 4 0 4 C0 4.66 0 5.32 0 6 C-0.66 6 -1.32 6 -2 6 C-2 6.66 -2 7.32 -2 8 C-3.62626404 9.38232443 -5.2925002 10.71937515 -7 12 C-7.66 11.67 -8.32 11.34 -9 11 C-7.625 8.5 -7.625 8.5 -6 6 C-5.34 6 -4.68 6 -4 6 C-3.38125 5.01 -2.7625 4.02 -2.125 3 C-1.42375 2.01 -0.7225 1.02 0 0 Z " fill="#FEF279" transform="translate(252,160)"/>
<path d="M0 0 C1.04449911 3.13349732 0.93423645 3.98968256 0 7 C-0.66 7 -1.32 7 -2 7 C-2 7.66 -2 8.32 -2 9 C-3.65 9.33 -5.3 9.66 -7 10 C-2.85714286 2.42857143 -2.85714286 2.42857143 0 0 Z " fill="#68DE9B" transform="translate(241,232)"/>
<path d="M0 0 C1.65 1.32 3.3 2.64 5 4 C5.33 3.34 5.66 2.68 6 2 C6.99 2.33 7.98 2.66 9 3 C8.67 3.66 8.34 4.32 8 5 C8.66 5.33 9.32 5.66 10 6 C10 7.32 10 8.64 10 10 C9.34 10 8.68 10 8 10 C8 9.34 8 8.68 8 8 C7.4225 7.7525 6.845 7.505 6.25 7.25 C3.67060021 5.81700012 1.93878408 4.21575324 0 2 C0 1.34 0 0.68 0 0 Z " fill="#81E5A9" transform="translate(59,238)"/>
<path d="M0 0 C0.66 0.33 1.32 0.66 2 1 C2.625 3.5625 2.625 3.5625 3 6 C2.67 6 2.34 6 2 6 C1.71125 7.11375 1.4225 8.2275 1.125 9.375 C0 13 0 13 -2 15 C-3.32529578 11.02411267 -2.22711972 8.95405244 -1 5 C-0.64628502 3.33753959 -0.30404678 1.67225729 0 0 Z " fill="#32DD6F" transform="translate(180,216)"/>
<path d="M0 0 C0.66 0 1.32 0 2 0 C4 3 4 3 4 6 C3.38125 6.12375 2.7625 6.2475 2.125 6.375 C-0.19120832 6.87197356 -0.19120832 6.87197356 -2 9 C-2 5.20442119 -1.49821059 3.37097383 0 0 Z " fill="#35D674" transform="translate(172,202)"/>
<path d="M0 0 C1.27445454 0.42683632 2.54445882 0.86697202 3.8125 1.3125 C4.52019531 1.55613281 5.22789063 1.79976562 5.95703125 2.05078125 C8.14472373 3.06724258 9.40896718 4.20820594 11 6 C7.71023192 7.09658936 6.28696233 6.79953138 3 6 C3 5.01 3 4.02 3 3 C1.68 2.67 0.36 2.34 -1 2 C-0.67 1.34 -0.34 0.68 0 0 Z " fill="#48DD87" transform="translate(107,140)"/>
<path d="M0 0 C2.475 0.495 2.475 0.495 5 1 C5 1.99 5 2.98 5 4 C6.65 4 8.3 4 10 4 C10 4.99 10 5.98 10 7 C11.43750191 8.68798827 11.43750191 8.68798827 13 10 C12.01 10.495 12.01 10.495 11 11 C11 10.34 11 9.68 11 9 C10.1028125 8.566875 10.1028125 8.566875 9.1875 8.125 C7 7 7 7 4 5 C4 4.34 4 3.68 4 3 C2.68 2.34 1.36 1.68 0 1 C0 0.67 0 0.34 0 0 Z " fill="#FFF05C" transform="translate(153,137)"/>
<path d="M0 0 C4.455 0.99 4.455 0.99 9 2 C6.45394698 4.00047023 4.0335364 5.82572785 1 7 C0.01 6.67 -0.98 6.34 -2 6 C-1.34 5.67 -0.68 5.34 0 5 C0 3.68 0 2.36 0 1 C0 0.67 0 0.34 0 0 Z " fill="#5ADE8D" transform="translate(275,299)"/>
<path d="M0 0 C2 2 2 2 2.25 4.8125 C2.00289113 7.96313815 1.33686973 10.15915182 0 13 C-0.33 13 -0.66 13 -1 13 C-1.2236337 11.58566794 -1.42826476 10.16832382 -1.625 8.75 C-1.74101562 7.96109375 -1.85703125 7.1721875 -1.9765625 6.359375 C-2.00319395 3.67847541 -1.36592084 2.27305911 0 0 Z " fill="#3EDB81" transform="translate(196,259)"/>
<path d="M0 0 C0.33 1.32 0.66 2.64 1 4 C2.65 4.33 4.3 4.66 6 5 C5.01 6.485 5.01 6.485 4 8 C0.18315774 6.44499019 -2.19195732 3.96404505 -5 1 C-3.35 0.67 -1.7 0.34 0 0 Z " fill="#62DC91" transform="translate(78,251)"/>
<path d="M0 0 C1.27310312 0.93441535 2.543388 1.87267111 3.8125 2.8125 C4.52019531 3.33457031 5.22789062 3.85664063 5.95703125 4.39453125 C7.78531393 5.83128877 9.39896688 7.31815763 11 9 C10.67 9.66 10.34 10.32 10 11 C9.278125 10.21625 8.55625 9.4325 7.8125 8.625 C5.16700959 6.15587562 3.39626389 5.06739722 0 4 C0 4.66 0 5.32 0 6 C-0.66 6 -1.32 6 -2 6 C-1.34 4.02 -0.68 2.04 0 0 Z " fill="#98E7B6" transform="translate(140,161)"/>
<path d="M0 0 C8.35010941 1.33041575 8.35010941 1.33041575 11.0625 4.125 C11.371875 4.74375 11.68125 5.3625 12 6 C9.69 6.66 7.38 7.32 5 8 C5 6 5 6 6 5 C5.67 4.01 5.34 3.02 5 2 C3.35 1.67 1.7 1.34 0 1 C0 0.67 0 0.34 0 0 Z " fill="#53DA87" transform="translate(75,128)"/>
<path d="M0 0 C0.66 0 1.32 0 2 0 C2 0.66 2 1.32 2 2 C4.31 2 6.62 2 9 2 C9.66 3.32 10.32 4.64 11 6 C8.03 6 5.06 6 2 6 C1.34 4.02 0.68 2.04 0 0 Z " fill="#07CA50" transform="translate(24,123)"/>
<path d="M0 0 C1.32 1.65 2.64 3.3 4 5 C2.6875 7 2.6875 7 1 9 C0.01 9 -0.98 9 -2 9 C-2.33 9.99 -2.66 10.98 -3 12 C-2.40075776 7.80530429 -1.42500059 3.99000166 0 0 Z " fill="#FFE863" transform="translate(109,70)"/>
<path d="M0 0 C3.37462715 0.54723683 5.08235 1.0549 8 3 C7.34 4.32 6.68 5.64 6 7 C5.38125 6.2884375 5.38125 6.2884375 4.75 5.5625 C2.817815 3.83733482 1.51807725 3.43415125 -1 3 C-0.67 2.01 -0.34 1.02 0 0 Z " fill="#1EC750" transform="translate(279,294)"/>
<path d="M0 0 C1.65 0 3.3 0 5 0 C-1.15034169 7.48291572 -1.15034169 7.48291572 -5 10 C-4.39717492 6.62417953 -3.12674568 4.65843209 -1 2 C-0.67 1.34 -0.34 0.68 0 0 Z " fill="#59D98D" transform="translate(320,270)"/>
<path d="M0 0 C1.98 0 3.96 0 6 0 C6.66 1.65 7.32 3.3 8 5 C7.01 5.495 7.01 5.495 6 6 C3.96855359 5.06553465 1.96466413 4.06775224 0 3 C0 2.01 0 1.02 0 0 Z " fill="#00CC45" transform="translate(97,264)"/>
<path d="M0 0 C0.99 0 1.98 0 3 0 C2.49202991 4.3177458 1.80317221 8.03302114 0 12 C-0.33 12 -0.66 12 -1 12 C-1.02687279 10.18757948 -1.04633715 8.37504767 -1.0625 6.5625 C-1.07410156 5.55316406 -1.08570313 4.54382813 -1.09765625 3.50390625 C-1 1 -1 1 0 0 Z " fill="#6ADA93" transform="translate(361,204)"/>
<path d="M0 0 C1 3 1 3 -0.21484375 5.91796875 C-0.78332031 6.99691406 -1.35179687 8.07585937 -1.9375 9.1875 C-2.50339844 10.27417969 -3.06929688 11.36085937 -3.65234375 12.48046875 C-4.09707031 13.31191406 -4.54179687 14.14335937 -5 15 C-6.24546405 12.50907189 -5.7767578 11.58919267 -5 9 C-4.34 9 -3.68 9 -3 9 C-3.2475 8.443125 -3.495 7.88625 -3.75 7.3125 C-4 5 -4 5 -2.0625 2.25 C-1.381875 1.5075 -0.70125 0.765 0 0 Z " fill="#FFF37C" transform="translate(273,130)"/>
<path d="M0 0 C1.38317955 3.84216542 0.9279297 7.07414359 0 11 C-2.0625 12.9375 -2.0625 12.9375 -4 14 C-3.00956295 9.16371695 -2.04301154 4.52381127 0 0 Z " fill="#76DEA3" transform="translate(211,285)"/>
<path d="M0 0 C0.33 0.66 0.66 1.32 1 2 C1.66 2 2.32 2 3 2 C3 2.99 3 3.98 3 5 C3.66 5 4.32 5 5 5 C4 8 4 8 0 10 C0 6.7 0 3.4 0 0 Z " fill="#FFD700" transform="translate(105,100)"/>
<path d="M0 0 C4.3890815 0.51035831 7.33708062 1.52214277 11 4 C10.01 4.495 10.01 4.495 9 5 C8.01 4.67 7.02 4.34 6 4 C5.34 5.32 4.68 6.64 4 8 C2.75453595 5.50907189 3.2232422 4.58919267 4 2 C2.68 2.33 1.36 2.66 0 3 C0 2.01 0 1.02 0 0 Z " fill="#FFEA54" transform="translate(224,22)"/>
<path d="M0 0 C2.1875 0.3125 2.1875 0.3125 4 1 C3.01 1.66 2.02 2.32 1 3 C0.67 3.99 0.34 4.98 0 6 C-2.60242414 7.64820195 -3.86248779 8 -7 8 C-6 5 -6 5 -3 3 C-2.2884375 2.1646875 -2.2884375 2.1646875 -1.5625 1.3125 C-1.046875 0.879375 -0.53125 0.44625 0 0 Z " fill="#02D156" transform="translate(325,264)"/>
<path d="M0 0 C1.98 0 3.96 0 6 0 C4.21829434 1.87547965 2.41702241 3.45805382 0.375 5.0625 C-2.06031981 6.77866905 -2.06031981 6.77866905 -3 9 C-3.66 8.67 -4.32 8.34 -5 8 C-4.34 6.68 -3.68 5.36 -3 4 C-2.34 4 -1.68 4 -1 4 C-0.67 2.68 -0.34 1.36 0 0 Z " fill="#87E4A9" transform="translate(222,321)"/>
<path d="M0 0 C0.66 0 1.32 0 2 0 C2.1953125 6.0546875 2.1953125 6.0546875 2 8 C1.34 8.66 0.68 9.32 0 10 C-1 9 -1 9 -1.1328125 7.1875 C-1.13023437 6.465625 -1.12765625 5.74375 -1.125 5 C-1.12757813 4.278125 -1.13015625 3.55625 -1.1328125 2.8125 C-1 1 -1 1 0 0 Z " fill="#00C556" transform="translate(217,285)"/>
<path d="M0 0 C2.62113708 0 4.50935112 0.31292445 7 1 C6.67 2.98 6.34 4.96 6 7 C5.34 7 4.68 7 4 7 C0 2.52941176 0 2.52941176 0 0 Z " fill="#4EE388" transform="translate(50,227)"/>
<path d="M0 0 C0 1.98 0 3.96 0 6 C-2.31 6.66 -4.62 7.32 -7 8 C-2.45945946 0 -2.45945946 0 0 0 Z " fill="#62DE8D" transform="translate(249,224)"/>
<path d="M0 0 C2.475 0.99 2.475 0.99 5 2 C5 2.66 5 3.32 5 4 C5.66 4.33 6.32 4.66 7 5 C7 6.65 7 8.3 7 10 C6.34 10 5.68 10 5 10 C3.7109375 8.3203125 3.7109375 8.3203125 2.375 6.125 C1.92898437 5.40570313 1.48296875 4.68640625 1.0234375 3.9453125 C0 2 0 2 0 0 Z " fill="#66E29C" transform="translate(43,216)"/>
<path d="M0 0 C0.99 0.66 1.98 1.32 3 2 C3 3.32 3 4.64 3 6 C0.69 6.33 -1.62 6.66 -4 7 C-4 6.01 -4 5.02 -4 4 C-3.01 4 -2.02 4 -1 4 C-0.67 2.68 -0.34 1.36 0 0 Z " fill="#33D06F" transform="translate(164,188)"/>
<path d="M0 0 C0.33 0.99 0.66 1.98 1 3 C0.34 3 -0.32 3 -1 3 C-0.67 3.99 -0.34 4.98 0 6 C-0.99 6.33 -1.98 6.66 -3 7 C-3.66 7.99 -4.32 8.98 -5 10 C-5.33 8.35 -5.66 6.7 -6 5 C-5.01 4.34 -4.02 3.68 -3 3 C-3.33 2.34 -3.66 1.68 -4 1 C-2.68 0.67 -1.36 0.34 0 0 Z " fill="#39D475" transform="translate(32,177)"/>
<path d="M0 0 C2.97 0 5.94 0 9 0 C5.44444444 3.55555556 5.44444444 3.55555556 2 4 C1.34 3.67 0.68 3.34 0 3 C0 2.01 0 1.02 0 0 Z " fill="#03CA55" transform="translate(246,307)"/>
<path d="M0 0 C-1.62339805 1.70884005 -3.29319053 3.37446717 -5 5 C-5.66 5 -6.32 5 -7 5 C-7 3.35 -7 1.7 -7 0 C-4.3333581 -1.33332095 -2.83319697 -0.67102033 0 0 Z " fill="#46D885" transform="translate(307,286)"/>
<path d="M0 0 C0.66 0 1.32 0 2 0 C2 2.64 2 5.28 2 8 C-0.475 7.01 -0.475 7.01 -3 6 C-3 4 -3 4 -1 2 C-0.67 1.34 -0.34 0.68 0 0 Z " fill="#00D358" transform="translate(362,178)"/>
<path d="M0 0 C1.98 0 3.96 0 6 0 C6.33 1.32 6.66 2.64 7 4 C6.01 4.66 5.02 5.32 4 6 C2.62437146 4.71034824 1.29233607 3.37310707 0 2 C0 1.34 0 0.68 0 0 Z " fill="#00CB52" transform="translate(141,169)"/>
<path d="M0 0 C1.98 0 3.96 0 6 0 C6.33 0.99 6.66 1.98 7 3 C4.69 3.33 2.38 3.66 0 4 C0 2.68 0 1.36 0 0 Z " fill="#00CC3D" transform="translate(26,121)"/>
<path d="M0 0 C3.375 4.5 3.375 4.5 3 9 C1.02 9.99 1.02 9.99 -1 11 C-0.67 7.37 -0.34 3.74 0 0 Z " fill="#FFDF09" transform="translate(106,82)"/>
<path d="M0 0 C3.2645028 3.2645028 3.93236055 7.41047299 4.125 11.9375 C4.08375 12.618125 4.0425 13.29875 4 14 C3.34 13.01 2.68 12.02 2 11 C-0.05003955 9.80767387 -0.05003955 9.80767387 -2 9 C-1.34 8.67 -0.68 8.34 0 8 C0 5.36 0 2.72 0 0 Z " fill="#FFF17C" transform="translate(273,72)"/>
<path d="M0 0 C3 1 3 1 4 3 C4.039992 4.99960012 4.04346799 7.00047242 4 9 C3.01 8.67 2.02 8.34 1 8 C0.67 5.36 0.34 2.72 0 0 Z " fill="#62E085" transform="translate(187,375)"/>
<path d="M0 0 C0.94875 0.350625 1.8975 0.70125 2.875 1.0625 C2.545 2.3825 2.215 3.7025 1.875 5.0625 C0.555 4.4025 -0.765 3.7425 -2.125 3.0625 C-2.125 2.4025 -2.125 1.7425 -2.125 1.0625 C-3.115 1.3925 -4.105 1.7225 -5.125 2.0625 C-5.125 1.4025 -5.125 0.7425 -5.125 0.0625 C-3.125 -0.9375 -3.125 -0.9375 0 0 Z " fill="#01D13E" transform="translate(91.125,134.9375)"/>
<path d="M0 0 C-0.33 3.3 -0.66 6.6 -1 10 C-2.32 9.67 -3.64 9.34 -5 9 C-4.34 8.34 -3.68 7.68 -3 7 C-3 6.01 -3 5.02 -3 4 C-3 3.01 -3 2.02 -3 1 C-1 0 -1 0 0 0 Z " fill="#FFDF04" transform="translate(278,108)"/>
<path d="M0 0 C0.66 0.33 1.32 0.66 2 1 C2 1.99 2 2.98 2 4 C1.01 4.33 0.02 4.66 -1 5 C-1.66 4.67 -2.32 4.34 -3 4 C-3 4.66 -3 5.32 -3 6 C-3.99 6 -4.98 6 -6 6 C-6 5.34 -6 4.68 -6 4 C-4.03852126 2.61061923 -2.03833424 1.2739589 0 0 Z " fill="#FFEC50" transform="translate(142,29)"/>
<path d="M0 0 C3 2 3 2 4 5 C2.35 5 0.7 5 -1 5 C-1.33 5.99 -1.66 6.98 -2 8 C-2.6875 6.25 -2.6875 6.25 -3 4 C-1.5625 1.75 -1.5625 1.75 0 0 Z " fill="#09CF52" transform="translate(230,313)"/>
<path d="M0 0 C1.65 0 3.3 0 5 0 C0.375 4.875 0.375 4.875 -3 6 C-3.33 5.01 -3.66 4.02 -4 3 C-2.68 2.67 -1.36 2.34 0 2 C0 1.34 0 0.68 0 0 Z " fill="#70DE9B" transform="translate(310,280)"/>
<path d="M0 0 C0.99 0.33 1.98 0.66 3 1 C3 1.66 3 2.32 3 3 C3.99 3.33 4.98 3.66 6 4 C4.25 5.125 4.25 5.125 2 6 C-0.25 5.125 -0.25 5.125 -2 4 C-2 3.34 -2 2.68 -2 2 C-1.34 2 -0.68 2 0 2 C0 1.34 0 0.68 0 0 Z " fill="#02CE50" transform="translate(68,239)"/>
<path d="M0 0 C0.33 0.66 0.66 1.32 1 2 C0.22265625 3.7265625 0.22265625 3.7265625 -0.9375 5.625 C-1.618125 6.73875 -2.29875 7.8525 -3 9 C-3.33 9 -3.66 9 -4 9 C-4.33 6.69 -4.66 4.38 -5 2 C-3.35 1.34 -1.7 0.68 0 0 Z " fill="#58D78F" transform="translate(351,233)"/>
<path d="M0 0 C0.66 0 1.32 0 2 0 C2.93065133 2.60582371 3.14917407 3.64198224 2.0625 6.25 C1.5365625 7.11625 1.5365625 7.11625 1 8 C-1 7 -1 7 -3 5 C-1.625 2.5 -1.625 2.5 0 0 Z " fill="#08CA51" transform="translate(349,221)"/>
<path d="M0 0 C-1.13304992 3.39914975 -2.12518475 4.05254451 -5 6 C-5.66 4.35 -6.32 2.7 -7 1 C-3.375 -1.125 -3.375 -1.125 0 0 Z " fill="#45D67C" transform="translate(43,203)"/>
<path d="M0 0 C0.66 0 1.32 0 2 0 C2 0.66 2 1.32 2 2 C2.66 2 3.32 2 4 2 C4.33 2.99 4.66 3.98 5 5 C3.1875 5.6875 3.1875 5.6875 1 6 C-0.75 4.5625 -0.75 4.5625 -2 3 C-1.34 2.01 -0.68 1.02 0 0 Z " fill="#0CC74A" transform="translate(223,316)"/>
<path d="M0 0 C0.268125 0.61875 0.53625 1.2375 0.8125 1.875 C1.95556848 4.2995233 1.95556848 4.2995233 5 6 C3.35 6.33 1.7 6.66 0 7 C0 6.34 0 5.68 0 5 C-0.99 5 -1.98 5 -3 5 C-2.625 3.0625 -2.625 3.0625 -2 1 C-1.34 0.67 -0.68 0.34 0 0 Z " fill="#35D970" transform="translate(261,304)"/>
<path d="M0 0 C0 2.31 0 4.62 0 7 C-0.99 7.33 -1.98 7.66 -3 8 C-3.33 5.69 -3.66 3.38 -4 1 C-1 0 -1 0 0 0 Z " fill="#00CD32" transform="translate(216,285)"/>
<path d="M0 0 C1.65 0 3.3 0 5 0 C5 0.66 5 1.32 5 2 C6.32 2 7.64 2 9 2 C8.67 2.66 8.34 3.32 8 4 C5.36 4 2.72 4 0 4 C0 2.68 0 1.36 0 0 Z " fill="#07CC57" transform="translate(298,282)"/>
<path d="M0 0 C3.3 0.99 6.6 1.98 10 3 C10 3.99 10 4.98 10 6 C6.51329166 4.8905928 3.22515763 3.73662334 0 2 C0 1.34 0 0.68 0 0 Z " fill="#81E5A7" transform="translate(91,265)"/>
<path d="M0 0 C0.33 0.66 0.66 1.32 1 2 C1.66 2 2.32 2 3 2 C3 3.32 3 4.64 3 6 C1.68 5.67 0.36 5.34 -1 5 C-1 4.34 -1 3.68 -1 3 C-1.99 2.67 -2.98 2.34 -4 2 C-2.68 1.34 -1.36 0.68 0 0 Z " fill="#0BC550" transform="translate(90,254)"/>
<path d="M0 0 C-0.33 0.99 -0.66 1.98 -1 3 C-0.12516085 5.16715557 -0.12516085 5.16715557 1 7 C-2.26954202 6.43628586 -3.82575883 5.50037734 -6 3 C-2.25 0 -2.25 0 0 0 Z " fill="#52DC89" transform="translate(275,203)"/>
<path d="M0 0 C0.99 0.33 1.98 0.66 3 1 C1.90716423 2.03295436 0.80029421 3.05107835 -0.3125 4.0625 C-0.92738281 4.63097656 -1.54226563 5.19945312 -2.17578125 5.78515625 C-2.77777344 6.18605469 -3.37976563 6.58695313 -4 7 C-4.99 6.67 -5.98 6.34 -7 6 C-4.74259377 3.66475218 -2.7194239 1.81294927 0 0 Z " fill="#8CE6B1" transform="translate(282,197)"/>
<path d="M0 0 C1.32 0.33 2.64 0.66 4 1 C3.8125 2.875 3.8125 2.875 3 5 C0.4375 6.25 0.4375 6.25 -2 7 C-2.33 6.34 -2.66 5.68 -3 5 C-2.34 5 -1.68 5 -1 5 C-0.67 3.35 -0.34 1.7 0 0 Z " fill="#23D561" transform="translate(103,138)"/>
<path d="M0 0 C0.99 0.33 1.98 0.66 3 1 C0.94766315 3.2477975 -0.00667261 4.0022242 -3 5 C-3.33 5.99 -3.66 6.98 -4 8 C-4.66 8 -5.32 8 -6 8 C-4.75237172 4.15314615 -3.6129609 1.97070595 0 0 Z " fill="#FEEC49" transform="translate(124,47)"/>
<path d="M0 0 C0.33 0.66 0.66 1.32 1 2 C1.66 2.33 2.32 2.66 3 3 C0.64046906 5.35953094 -0.77895617 5.49141413 -4 6 C-2.25 1.125 -2.25 1.125 0 0 Z " fill="#4FDB8A" transform="translate(228,252)"/>
<path d="M0 0 C0.99 0.33 1.98 0.66 3 1 C2.67 2.65 2.34 4.3 2 6 C0.68 6 -0.64 6 -2 6 C-1.34 4.02 -0.68 2.04 0 0 Z " fill="#03C857" transform="translate(248,231)"/>
<path d="M0 0 C0.66 0 1.32 0 2 0 C2 0.66 2 1.32 2 2 C1.34 2 0.68 2 0 2 C-0.226875 2.639375 -0.45375 3.27875 -0.6875 3.9375 C-2 6 -2 6 -4.625 6.75 C-5.800625 6.87375 -5.800625 6.87375 -7 7 C-4.66666667 4.66666667 -2.33333333 2.33333333 0 0 Z " fill="#94E1AF" transform="translate(267,207)"/>
<path d="M0 0 C0.66 0.33 1.32 0.66 2 1 C2.40729228 3.32156597 2.74438677 5.6568787 3 8 C1.68 7.67 0.36 7.34 -1 7 C-0.67 4.69 -0.34 2.38 0 0 Z " fill="#01C857" transform="translate(37,189)"/>
<path d="M0 0 C0.99 0 1.98 0 3 0 C2.67 1.65 2.34 3.3 2 5 C1.01 5.33 0.02 5.66 -1 6 C-1.042721 4.33388095 -1.04063832 2.66617115 -1 1 C-0.67 0.67 -0.34 0.34 0 0 Z " fill="#07CB47" transform="translate(218,271)"/>
<path d="M0 0 C0.66 0.99 1.32 1.98 2 3 C1 5 0 7 -1 9 C-1.66 9 -2.32 9 -3 9 C-3 8.01 -3 7.02 -3 6 C-2.34 6 -1.68 6 -1 6 C-1.0309375 4.7934375 -1.0309375 4.7934375 -1.0625 3.5625 C-1 1 -1 1 0 0 Z " fill="#0BC04F" transform="translate(233,261)"/>
<path d="M0 0 C2.64 0.33 5.28 0.66 8 1 C7.67 2.32 7.34 3.64 7 5 C3.535 3.02 3.535 3.02 0 1 C0 0.67 0 0.34 0 0 Z " fill="#4BDD89" transform="translate(82,259)"/>
<path d="M0 0 C2.56616632 3.84924948 2.55097676 6.4349304 3 11 C2.01 10.67 1.02 10.34 0 10 C0 6.7 0 3.4 0 0 Z " fill="#8DE7AD" transform="translate(193,248)"/>
<path d="M0 0 C1.98 0.495 1.98 0.495 4 1 C4 1.99 4 2.98 4 4 C3.01 4.33 2.02 4.66 1 5 C0.34 4.67 -0.32 4.34 -1 4 C-0.67 2.68 -0.34 1.36 0 0 Z " fill="#01CD42" transform="translate(74,248)"/>
<path d="M0 0 C1.99097846 2.98646769 2.94124926 5.59687262 4 9 C2.35 8.01 0.7 7.02 -1 6 C-0.67 4.02 -0.34 2.04 0 0 Z " fill="#7DDC9E" transform="translate(183,222)"/>
<path d="M0 0 C0.66 0.33 1.32 0.66 2 1 C1.67 1.99 1.34 2.98 1 4 C-2.13349732 5.04449911 -2.98968256 4.93423645 -6 4 C-6.33 4.99 -6.66 5.98 -7 7 C-7 5.68 -7 4.36 -7 3 C-4.69631264 1.93347808 -2.35981813 0.93578995 0 0 Z " fill="#0FCD57" transform="translate(266,211)"/>
<path d="M0 0 C0 0.99 0 1.98 0 3 C-2.64 3 -5.28 3 -8 3 C-6.14481495 -0.71037009 -3.79223618 -1.26407873 0 0 Z " fill="#83E1AA" transform="translate(293,194)"/>
<path d="M0 0 C1.98 0.66 3.96 1.32 6 2 C6 2.99 6 3.98 6 5 C3.03 4.505 3.03 4.505 0 4 C-0.33 3.01 -0.66 2.02 -1 1 C-0.67 0.67 -0.34 0.34 0 0 Z " fill="#6BDF92" transform="translate(118,146)"/>
<path d="M0 0 C1.65 0 3.3 0 5 0 C5.33 0.99 5.66 1.98 6 3 C5.67 3.66 5.34 4.32 5 5 C2.525 4.01 2.525 4.01 0 3 C0 2.01 0 1.02 0 0 Z " fill="#FEE238" transform="translate(144,129)"/>
<path d="M0 0 C2.875 -0.125 2.875 -0.125 6 0 C6.66 0.66 7.32 1.32 8 2 C7.01 2.33 6.02 2.66 5 3 C4.34 3.66 3.68 4.32 3 5 C1.5 3.625 1.5 3.625 0 2 C0 1.34 0 0.68 0 0 Z " fill="#06C855" transform="translate(64,127)"/>
<path d="M0 0 C1.2065625 0.0309375 1.2065625 0.0309375 2.4375 0.0625 C2.4375 1.3825 2.4375 2.7025 2.4375 4.0625 C0.4575 4.0625 -1.5225 4.0625 -3.5625 4.0625 C-3.5625 0.08689024 -3.5625 0.08689024 0 0 Z " fill="#00C73E" transform="translate(46.5625,122.9375)"/>
<path d="M0 0 C1.65 0 3.3 0 5 0 C5.66 1.32 6.32 2.64 7 4 C4.69 3.34 2.38 2.68 0 2 C0 1.34 0 0.68 0 0 Z " fill="#02CF40" transform="translate(277,297)"/>
<path d="M0 0 C1.32 0 2.64 0 4 0 C4 1.65 4 3.3 4 5 C4.66 5.33 5.32 5.66 6 6 C5.01 6 4.02 6 3 6 C3 5.01 3 4.02 3 3 C1.68 3.33 0.36 3.66 -1 4 C-0.67 2.68 -0.34 1.36 0 0 Z " fill="#37D574" transform="translate(218,268)"/>
<path d="M0 0 C0.33 0.66 0.66 1.32 1 2 C2.32 2 3.64 2 5 2 C4.67 2.99 4.34 3.98 4 5 C3.34 4.67 2.68 4.34 2 4 C1.67 4.66 1.34 5.32 1 6 C0.34 5.34 -0.32 4.68 -1 4 C-0.625 1.875 -0.625 1.875 0 0 Z " fill="#0ECA48" transform="translate(51,223)"/>
<path d="M0 0 C0.66 0.33 1.32 0.66 2 1 C2 2.65 2 4.3 2 6 C1.01 6.33 0.02 6.66 -1 7 C-1.04254356 5.00045254 -1.04080783 2.99958364 -1 1 C-0.67 0.67 -0.34 0.34 0 0 Z " fill="#00CB5A" transform="translate(205,346)"/>
<path d="M0 0 C0.66 0 1.32 0 2 0 C2 2.31 2 4.62 2 7 C1.01 7.495 1.01 7.495 0 8 C-0.38063221 5.6739143 -0.71269945 3.33944736 -1 1 C-0.67 0.67 -0.34 0.34 0 0 Z " fill="#00C83C" transform="translate(202,343)"/>
<path d="M0 0 C2.5761382 3.8642073 3.18466897 5.62817334 2.5625 10.25 C2.376875 11.1575 2.19125 12.065 2 13 C1.67 13 1.34 13 1 13 C0.67 8.71 0.34 4.42 0 0 Z " fill="#B4EFC9" transform="translate(184,308)"/>
<path d="M0 0 C1.32 0 2.64 0 4 0 C4.93065133 2.60582371 5.14917407 3.64198224 4.0625 6.25 C3.5365625 7.11625 3.5365625 7.11625 3 8 C2.01 5.36 1.02 2.72 0 0 Z " fill="#80D89B" transform="translate(180,300)"/>
<path d="M0 0 C2.60018816 3.90028225 2.15085514 7.47434569 2 12 C0.4375 10.5 0.4375 10.5 -1 8 C-0.96823234 5.22562457 -0.50364148 2.74713533 0 0 Z " fill="#9EEABC" transform="translate(202,285)"/>
<path d="M0 0 C1.2065625 0.0309375 1.2065625 0.0309375 2.4375 0.0625 C1.7775 1.3825 1.1175 2.7025 0.4375 4.0625 C-0.5525 4.0625 -1.5425 4.0625 -2.5625 4.0625 C-2.8925 3.0725 -3.2225 2.0825 -3.5625 1.0625 C-2.5625 0.0625 -2.5625 0.0625 0 0 Z " fill="#01CC38" transform="translate(305.5625,279.9375)"/>
<path d="M0 0 C1.32 0 2.64 0 4 0 C4.33 0.99 4.66 1.98 5 3 C4.67 3.66 4.34 4.32 4 5 C3.01 5 2.02 5 1 5 C0.67 3.35 0.34 1.7 0 0 Z " fill="#05C73A" transform="translate(172,208)"/>
<path d="M0 0 C0.99 0.33 1.98 0.66 3 1 C3 3.31 3 5.62 3 8 C0.9375 5.6875 0.9375 5.6875 -1 3 C-0.67 2.01 -0.34 1.02 0 0 Z " fill="#01C83F" transform="translate(47,209)"/>
<path d="M0 0 C2.475 0.495 2.475 0.495 5 1 C5 2.98 5 4.96 5 7 C2.47411298 4.63707344 1.11179163 3.33537489 0 0 Z " fill="#FFEE4E" transform="translate(189,175)"/>
<path d="M0 0 C1.9375 0.3125 1.9375 0.3125 4 1 C4.33 1.99 4.66 2.98 5 4 C3.68 4.33 2.36 4.66 1 5 C0.67 3.35 0.34 1.7 0 0 Z " fill="#02D341" transform="translate(19,124)"/>
<path d="M0 0 C2 1 4 2 6 3 C5.67 3.66 5.34 4.32 5 5 C2.03 4.505 2.03 4.505 -1 4 C-0.67 2.68 -0.34 1.36 0 0 Z " fill="#FFEA43" transform="translate(248,37)"/>
<path d="M0 0 C0.33 0 0.66 0 1 0 C1 2.31 1 4.62 1 7 C0.01 7 -0.98 7 -2 7 C-2 5.35 -2 3.7 -2 2 C-1.34 2 -0.68 2 0 2 C0 1.34 0 0.68 0 0 Z " fill="#74DC9D" transform="translate(205,368)"/>
<path d="M0 0 C0.66 0.66 1.32 1.32 2 2 C-0.97 4.475 -0.97 4.475 -4 7 C-4 5.35 -4 3.7 -4 2 C-2.68 1.34 -1.36 0.68 0 0 Z " fill="#08CB46" transform="translate(253,222)"/>
<path d="M0 0 C0.66 0.33 1.32 0.66 2 1 C0.515 3.475 0.515 3.475 -1 6 C-2.32 5.67 -3.64 5.34 -5 5 C-3.35 3.35 -1.7 1.7 0 0 Z " fill="#87EBAD" transform="translate(257,215)"/>
<path d="M0 0 C2.475 0.495 2.475 0.495 5 1 C4.67 1.99 4.34 2.98 4 4 C2.68 4 1.36 4 0 4 C0 2.68 0 1.36 0 0 Z " fill="#0BCB3A" transform="translate(325,183)"/>
<path d="M0 0 C1.32 0.66 2.64 1.32 4 2 C3.67 2.66 3.34 3.32 3 4 C2.67 4 2.34 4 2 4 C1.01 4.33 0.02 4.66 -1 5 C-1.66 4.01 -2.32 3.02 -3 2 C-2.01 1.34 -1.02 0.68 0 0 Z " fill="#01CF52" transform="translate(37,123)"/>
<path d="M0 0 C0.66 0.33 1.32 0.66 2 1 C1.67 1.66 1.34 2.32 1 3 C1.66 3.33 2.32 3.66 3 4 C2.67 4.66 2.34 5.32 2 6 C0.68 6 -0.64 6 -2 6 C-2 4.35 -2 2.7 -2 1 C-1.34 0.67 -0.68 0.34 0 0 Z " fill="#FFD600" transform="translate(129,115)"/>
</svg>
